<svg version="1.1" id="Layer_1" xmlns="http://www.w3.org/2000/svg" xmlns:xlink="http://www.w3.org/1999/xlink" x="0px" y="0px"
	 width="100%" viewBox="0 0 791 791" enable-background="new 0 0 791 791" xml:space="preserve">
<path fill="#F2777F" opacity="1.000000" stroke="none" 
	d="
M1.000000,2.000000 
	C1.333333,1.666667 1.666667,1.333333 2.836840,1.241436 
	C6.149022,1.655078 8.624351,1.977886 11.099709,1.978106 
	C268.118622,2.000941 525.137573,1.996149 782.156494,2.040959 
	C785.104614,2.041473 788.052673,2.666497 791.000488,3.455950 
	C791.000122,262.965515 790.999695,522.019165 791.005432,781.072754 
	C791.005493,783.403381 791.087463,785.734070 791.021118,788.442749 
	C788.394348,789.547852 785.877869,790.910461 783.360840,790.911438 
	C525.215942,791.007874 267.070953,791.001892 8.925986,790.996399 
	C7.261286,790.996399 5.564080,791.092224 3.946357,790.794250 
	C3.197902,790.656311 2.604426,789.677063 1.963115,788.608643 
	C1.990326,527.822510 1.997038,267.506989 1.958600,7.191481 
	C1.958345,5.460940 1.333299,3.730491 1.000000,2.000000 
M405.825989,427.500000 
	C405.825317,410.839569 405.943329,394.178070 405.794556,377.518982 
	C405.598267,355.535370 392.654083,339.126373 371.607361,334.014313 
	C359.075714,330.970459 346.469055,330.956177 334.039307,334.357452 
	C319.889954,338.229248 307.959106,345.540833 300.909149,358.919006 
	C298.669891,363.168243 297.774933,368.125916 295.933746,373.775208 
	C304.709045,373.775208 311.994720,373.879456 319.268982,373.638428 
	C320.142303,373.609467 321.458710,371.815613 321.708313,370.654541 
	C322.954407,364.858063 326.499298,360.859985 331.248535,357.754791 
	C339.157043,352.583984 347.985901,351.261078 357.123199,352.433929 
	C376.126953,354.873169 386.713104,371.952454 380.259949,389.995667 
	C371.433868,389.995667 362.458008,389.892273 353.485474,390.021484 
	C341.895203,390.188354 330.608246,392.044281 319.960266,396.868164 
	C301.942993,405.030609 292.417084,421.237091 294.176605,440.641022 
	C295.817200,458.732971 308.330811,472.979462 327.245941,477.378540 
	C346.258423,481.800293 363.609985,478.280640 378.492615,465.025421 
	C379.429230,464.191254 380.463104,463.466339 381.657349,462.529236 
	C382.486206,466.213470 383.009644,469.521637 384.043549,472.661774 
	C384.468445,473.952301 385.961548,475.791534 387.022675,475.828369 
	C394.799194,476.098206 402.589355,475.973938 411.424377,475.973938 
	C404.893738,460.130402 405.863342,444.266479 405.825989,427.500000 
M524.454163,442.883026 
	C526.415161,456.847473 533.941833,467.217621 546.353394,473.206848 
	C565.830505,482.605560 585.060608,481.384766 603.221191,469.180023 
	C606.074707,467.262329 608.626160,464.895264 611.642700,462.474884 
	C612.453369,466.086975 613.026672,469.328003 613.959229,472.462158 
	C614.337158,473.732239 615.467896,475.736328 616.307312,475.762451 
	C624.359741,476.013367 632.423157,475.912537 640.062927,475.912537 
	C638.632568,466.679108 636.382080,458.210358 636.179871,449.693024 
	C635.610596,425.711761 635.962585,401.710022 635.801453,377.717316 
	C635.655029,355.920776 622.955627,339.396759 602.278992,334.161377 
	C589.450439,330.913116 576.502136,330.886200 563.734985,334.445129 
	C549.588806,338.388519 537.717957,345.776245 530.751953,359.201660 
	C528.570435,363.406128 527.752258,368.318054 526.020874,373.826111 
	C532.839539,373.826111 537.982117,373.635620 543.103821,373.880676 
	C548.036072,374.116699 551.674744,374.004395 553.031799,367.548737 
	C553.773499,364.020355 557.459534,360.256409 560.812683,358.333405 
	C565.738220,355.508667 571.434753,353.081177 577.011658,352.504669 
	C600.065125,350.121521 615.683289,361.857910 610.432495,389.995331 
	C605.566162,389.995331 600.587585,389.780304 595.633850,390.040131 
	C585.346497,390.579651 574.912109,390.459412 564.823486,392.233459 
	C536.932190,397.138031 522.271729,415.623779 524.454163,442.883026 
M236.798477,371.074707 
	C237.197754,375.875702 237.923828,380.675446 237.942520,385.477936 
	C238.052094,413.628357 237.996353,441.779449 237.996384,469.930298 
	C237.996384,471.844330 237.996384,473.758331 237.996384,475.652283 
	C246.438858,475.652283 254.021133,475.652283 261.801270,475.652283 
	C261.931366,474.026733 262.125519,472.727142 262.126160,471.427521 
	C262.141479,440.444916 262.306366,409.460632 261.994293,378.481140 
	C261.929840,372.084045 260.691406,365.527283 258.912872,359.355713 
	C255.548447,347.681122 248.331985,338.747131 236.453049,335.068695 
	C214.786484,328.359406 194.990555,331.389313 178.382553,348.033539 
	C177.524857,348.893127 176.550705,349.636475 175.173447,350.830353 
	C174.734100,345.208710 174.351639,340.314972 173.963638,335.350403 
	C166.213898,335.350403 158.982422,335.350403 151.487747,335.350403 
	C151.487747,382.251892 151.487747,428.799133 151.487747,475.674927 
	C159.509979,475.674927 167.220551,475.674927 175.546844,475.674927 
	C175.546844,473.252686 175.546844,471.124329 175.546844,468.995972 
	C175.546906,439.345947 175.520752,409.695892 175.595612,380.046051 
	C175.601761,377.612885 175.686813,374.859833 176.773438,372.804230 
	C181.798981,363.297058 189.301178,356.435211 199.830048,353.463043 
	C217.642410,348.434814 231.712402,354.940094 236.798477,371.074707 
M443.173218,451.500000 
	C443.173218,459.567932 443.173218,467.635834 443.173218,475.708740 
	C451.731232,475.708740 459.324585,475.708740 467.550232,475.708740 
	C467.550232,473.291840 467.550262,471.167023 467.550262,469.042175 
	C467.550323,439.576904 467.642120,410.111084 467.464172,380.646881 
	C467.432922,375.467926 469.057739,371.234650 472.096344,367.325409 
	C476.897888,361.148193 483.127502,357.023102 490.881439,356.074554 
	C497.541260,355.259857 504.313599,355.364929 511.549896,355.040222 
	C511.549896,349.921967 511.561249,344.620422 511.546967,339.318909 
	C511.530090,333.045349 511.038330,332.493774 504.912933,332.036957 
	C490.872986,330.989807 478.971466,335.150848 470.079437,346.489349 
	C469.486298,347.245697 469.260468,348.290161 468.863800,349.200592 
	C468.240143,348.867188 467.616516,348.533783 466.992859,348.200348 
	C466.992859,344.956604 467.219940,341.688568 466.876984,338.481506 
	C466.746552,337.261719 465.344238,335.225555 464.456879,335.190308 
	C457.545044,334.915710 450.617401,335.038513 443.173431,335.038513 
	C443.173431,373.999817 443.173431,412.249908 443.173218,451.500000 
z"/>
<path fill="#FCDDDF" opacity="1.000000" stroke="none" 
	d="
M1.940689,789.079224 
	C2.604426,789.677063 3.197902,790.656311 3.946357,790.794250 
	C5.564080,791.092224 7.261286,790.996399 8.925986,790.996399 
	C267.070953,791.001892 525.215942,791.007874 783.360840,790.911438 
	C785.877869,790.910461 788.394348,789.547852 791.238037,788.429565 
	C791.565063,788.038330 792.000000,788.000000 792.000000,788.000000 
	C792.000000,789.333313 792.000000,790.666687 792.000000,792.000000 
	C529.833374,792.000000 267.666687,792.004944 5.500126,791.858643 
	C4.210981,791.857971 0.872581,794.328430 1.236027,789.509644 
	C1.472053,789.019287 1.940687,789.079224 1.940689,789.079224 
z"/>
<path fill="#F5999F" opacity="1.000000" stroke="none" 
	d="
M791.000732,2.999999 
	C788.052673,2.666497 785.104614,2.041473 782.156494,2.040959 
	C525.137573,1.996149 268.118622,2.000941 11.099709,1.978106 
	C8.624351,1.977886 6.149022,1.655078 3.336840,1.241436 
	C264.500000,1.000000 526.000000,0.998326 787.500000,1.041272 
	C789.000061,1.041518 790.500000,1.666668 791.750183,2.500086 
	C791.500366,3.000171 791.000732,3.000000 791.000732,2.999999 
z"/>
<path fill="#F5999F" opacity="1.000000" stroke="none" 
	d="
M1.963113,788.608643 
	C1.940687,789.079224 1.472053,789.019287 1.236027,789.009644 
	C1.000000,526.975952 1.000000,264.951843 1.000000,2.463884 
	C1.333299,3.730491 1.958345,5.460940 1.958600,7.191481 
	C1.997038,267.506989 1.990326,527.822510 1.963113,788.608643 
z"/>
<path fill="#F8BBBF" opacity="1.000000" stroke="none" 
	d="
M791.000488,3.455951 
	C791.000732,3.000000 791.500366,3.000171 791.750183,3.000086 
	C792.000000,264.362701 792.000000,525.725403 792.000000,787.544067 
	C792.000000,788.000000 791.565063,788.038330 791.348145,788.051514 
	C791.087463,785.734070 791.005493,783.403381 791.005432,781.072754 
	C790.999695,522.019165 791.000122,262.965515 791.000488,3.455951 
z"/>
<path fill="#FEF6F1" opacity="1.000000" stroke="none" 
	d="
M405.825867,428.000000 
	C405.863342,444.266479 404.893738,460.130402 411.424377,475.973938 
	C402.589355,475.973938 394.799194,476.098206 387.022675,475.828369 
	C385.961548,475.791534 384.468445,473.952301 384.043549,472.661774 
	C383.009644,469.521637 382.486206,466.213470 381.657349,462.529236 
	C380.463104,463.466339 379.429230,464.191254 378.492615,465.025421 
	C363.609985,478.280640 346.258423,481.800293 327.245941,477.378540 
	C308.330811,472.979462 295.817200,458.732971 294.176605,440.641022 
	C292.417084,421.237091 301.942993,405.030609 319.960266,396.868164 
	C330.608246,392.044281 341.895203,390.188354 353.485474,390.021484 
	C362.458008,389.892273 371.433868,389.995667 380.259949,389.995667 
	C386.713104,371.952454 376.126953,354.873169 357.123199,352.433929 
	C347.985901,351.261078 339.157043,352.583984 331.248535,357.754791 
	C326.499298,360.859985 322.954407,364.858063 321.708313,370.654541 
	C321.458710,371.815613 320.142303,373.609467 319.268982,373.638428 
	C311.994720,373.879456 304.709045,373.775208 295.933746,373.775208 
	C297.774933,368.125916 298.669891,363.168243 300.909149,358.919006 
	C307.959106,345.540833 319.889954,338.229248 334.039307,334.357452 
	C346.469055,330.956177 359.075714,330.970459 371.607361,334.014313 
	C392.654083,339.126373 405.598267,355.535370 405.794556,377.518982 
	C405.943329,394.178070 405.825317,410.839569 405.825867,428.000000 
M330.744812,413.109253 
	C320.413757,419.619171 316.802277,427.858002 319.021606,439.853241 
	C320.822266,449.585632 328.211121,456.687866 339.428101,458.348999 
	C354.437897,460.571777 366.955353,455.344940 376.892151,444.052795 
	C378.823395,441.858154 381.101288,439.020660 381.245972,436.371887 
	C381.769470,426.786987 381.452087,417.156189 381.452087,407.134674 
	C373.493134,407.134674 366.034363,406.991791 358.583252,407.170807 
	C349.209778,407.395935 339.977631,408.532562 330.744812,413.109253 
z"/>
<path fill="#FEF6F1" opacity="1.000000" stroke="none" 
	d="
M524.380981,442.441223 
	C522.271729,415.623779 536.932190,397.138031 564.823486,392.233459 
	C574.912109,390.459412 585.346497,390.579651 595.633850,390.040131 
	C600.587585,389.780304 605.566162,389.995331 610.432495,389.995331 
	C615.683289,361.857910 600.065125,350.121521 577.011658,352.504669 
	C571.434753,353.081177 565.738220,355.508667 560.812683,358.333405 
	C557.459534,360.256409 553.773499,364.020355 553.031799,367.548737 
	C551.674744,374.004395 548.036072,374.116699 543.103821,373.880676 
	C537.982117,373.635620 532.839539,373.826111 526.020874,373.826111 
	C527.752258,368.318054 528.570435,363.406128 530.751953,359.201660 
	C537.717957,345.776245 549.588806,338.388519 563.734985,334.445129 
	C576.502136,330.886200 589.450439,330.913116 602.278992,334.161377 
	C622.955627,339.396759 635.655029,355.920776 635.801453,377.717316 
	C635.962585,401.710022 635.610596,425.711761 636.179871,449.693024 
	C636.382080,458.210358 638.632568,466.679108 640.062927,475.912537 
	C632.423157,475.912537 624.359741,476.013367 616.307312,475.762451 
	C615.467896,475.736328 614.337158,473.732239 613.959229,472.462158 
	C613.026672,469.328003 612.453369,466.086975 611.642700,462.474884 
	C608.626160,464.895264 606.074707,467.262329 603.221191,469.180023 
	C585.060608,481.384766 565.830505,482.605560 546.353394,473.206848 
	C533.941833,467.217621 526.415161,456.847473 524.380981,442.441223 
M552.977600,419.589294 
	C544.172913,433.234497 548.221191,449.639771 561.993408,456.124695 
	C578.183594,463.748108 603.132935,454.725616 610.631409,438.530334 
	C610.910706,437.927185 611.339294,437.296143 611.342163,436.676483 
	C611.387207,426.914825 611.373840,417.152924 611.373840,407.720093 
	C600.850830,407.720093 590.860901,407.292755 580.924316,407.838226 
	C570.633545,408.403137 560.788452,410.870300 552.977600,419.589294 
z"/>
<path fill="#FEF6F1" opacity="1.000000" stroke="none" 
	d="
M236.691925,370.675354 
	C231.712402,354.940094 217.642410,348.434814 199.830048,353.463043 
	C189.301178,356.435211 181.798981,363.297058 176.773438,372.804230 
	C175.686813,374.859833 175.601761,377.612885 175.595612,380.046051 
	C175.520752,409.695892 175.546906,439.345947 175.546844,468.995972 
	C175.546844,471.124329 175.546844,473.252686 175.546844,475.674927 
	C167.220551,475.674927 159.509979,475.674927 151.487747,475.674927 
	C151.487747,428.799133 151.487747,382.251892 151.487747,335.350403 
	C158.982422,335.350403 166.213898,335.350403 173.963638,335.350403 
	C174.351639,340.314972 174.734100,345.208710 175.173447,350.830353 
	C176.550705,349.636475 177.524857,348.893127 178.382553,348.033539 
	C194.990555,331.389313 214.786484,328.359406 236.453049,335.068695 
	C248.331985,338.747131 255.548447,347.681122 258.912872,359.355713 
	C260.691406,365.527283 261.929840,372.084045 261.994293,378.481140 
	C262.306366,409.460632 262.141479,440.444916 262.126160,471.427521 
	C262.125519,472.727142 261.931366,474.026733 261.801270,475.652283 
	C254.021133,475.652283 246.438858,475.652283 237.996384,475.652283 
	C237.996384,473.758331 237.996384,471.844330 237.996384,469.930298 
	C237.996353,441.779449 238.052094,413.628357 237.942520,385.477936 
	C237.923828,380.675446 237.197754,375.875702 236.691925,370.675354 
z"/>
<path fill="#FEF6F1" opacity="1.000000" stroke="none" 
	d="
M443.173340,451.000000 
	C443.173431,412.249908 443.173431,373.999817 443.173431,335.038513 
	C450.617401,335.038513 457.545044,334.915710 464.456879,335.190308 
	C465.344238,335.225555 466.746552,337.261719 466.876984,338.481506 
	C467.219940,341.688568 466.992859,344.956604 466.992859,348.200348 
	C467.616516,348.533783 468.240143,348.867188 468.863800,349.200592 
	C469.260468,348.290161 469.486298,347.245697 470.079437,346.489349 
	C478.971466,335.150848 490.872986,330.989807 504.912933,332.036957 
	C511.038330,332.493774 511.530090,333.045349 511.546967,339.318909 
	C511.561249,344.620422 511.549896,349.921967 511.549896,355.040222 
	C504.313599,355.364929 497.541260,355.259857 490.881439,356.074554 
	C483.127502,357.023102 476.897888,361.148193 472.096344,367.325409 
	C469.057739,371.234650 467.432922,375.467926 467.464172,380.646881 
	C467.642120,410.111084 467.550323,439.576904 467.550262,469.042175 
	C467.550262,471.167023 467.550232,473.291840 467.550232,475.708740 
	C459.324585,475.708740 451.731232,475.708740 443.173218,475.708740 
	C443.173218,467.635834 443.173218,459.567932 443.173340,451.000000 
z"/>
<path fill="#F27980" opacity="1.000000" stroke="none" 
	d="
M331.081055,412.951447 
	C339.977631,408.532562 349.209778,407.395935 358.583252,407.170807 
	C366.034363,406.991791 373.493134,407.134674 381.452087,407.134674 
	C381.452087,417.156189 381.769470,426.786987 381.245972,436.371887 
	C381.101288,439.020660 378.823395,441.858154 376.892151,444.052795 
	C366.955353,455.344940 354.437897,460.571777 339.428101,458.348999 
	C328.211121,456.687866 320.822266,449.585632 319.021606,439.853241 
	C316.802277,427.858002 320.413757,419.619171 331.081055,412.951447 
z"/>
<path fill="#F27980" opacity="1.000000" stroke="none" 
	d="
M553.200562,419.302856 
	C560.788452,410.870300 570.633545,408.403137 580.924316,407.838226 
	C590.860901,407.292755 600.850830,407.720093 611.373840,407.720093 
	C611.373840,417.152924 611.387207,426.914825 611.342163,436.676483 
	C611.339294,437.296143 610.910706,437.927185 610.631409,438.530334 
	C603.132935,454.725616 578.183594,463.748108 561.993408,456.124695 
	C548.221191,449.639771 544.172913,433.234497 553.200562,419.302856 
z"/>
</svg>