<svg version="1.1" id="Layer_1" xmlns="http://www.w3.org/2000/svg" xmlns:xlink="http://www.w3.org/1999/xlink" x="0px" y="0px"
	 width="100%" viewBox="0 0 1664 1081" enable-background="new 0 0 1664 1081" xml:space="preserve">
<path fill="#FEF7F2" opacity="1.000000" stroke="none" 
	d="
M54.000000,1.000000 
	C573.034912,1.000000 1092.069824,1.000000 1611.559570,1.390056 
	C1612.348999,5.220770 1614.588135,6.042421 1617.615601,6.013414 
	C1638.949707,5.809010 1660.062866,26.793573 1660.056885,49.911049 
	C1659.973145,377.550537 1660.000122,705.190063 1659.999512,1032.829590 
	C1659.999512,1056.744873 1639.729004,1076.999756 1615.795532,1076.999756 
	C1094.005493,1077.000122 572.215393,1077.000000 50.425362,1076.999756 
	C25.946230,1076.999756 6.000300,1057.093384 6.000269,1032.661621 
	C5.999855,705.355408 6.107938,378.049103 5.757338,50.743275 
	C5.733941,28.901381 26.429018,5.841648 47.984592,5.955414 
	C51.139427,5.972065 54.096172,5.195490 54.000000,1.000000 
M1629.681641,835.484802 
	C1629.554810,835.129395 1629.427979,834.773926 1630.101196,834.165894 
	C1633.487915,831.004150 1631.192139,827.202942 1630.377930,824.273926 
	C1626.977295,812.039734 1622.837036,800.011169 1619.003174,787.160461 
	C1617.887085,784.614868 1617.026123,781.917175 1615.614258,779.547852 
	C1605.152588,761.990967 1592.510010,746.291626 1577.254272,732.535400 
	C1560.485596,717.414612 1541.503296,706.259277 1520.522461,698.359741 
	C1504.406128,692.291687 1487.643921,688.883667 1470.439453,688.354248 
	C1462.817261,688.119690 1454.953613,688.016541 1447.191406,692.043335 
	C1438.310669,688.802612 1429.043213,686.332458 1420.650879,682.118896 
	C1410.963623,677.255188 1403.388062,669.664001 1400.592285,658.786987 
	C1414.659912,655.501282 1428.721191,652.188538 1442.798584,648.945251 
	C1447.437988,647.876404 1450.906372,645.493164 1452.946045,641.065186 
	C1457.761841,630.610291 1458.560547,619.425781 1458.969604,608.186462 
	C1459.159668,602.964783 1459.002075,597.730469 1459.002075,591.799988 
	C1460.271240,592.785889 1461.190063,593.140747 1461.486084,593.782715 
	C1467.400146,606.613953 1473.576294,619.343567 1478.859253,632.432800 
	C1480.145752,635.620300 1480.763794,636.032532 1483.353149,634.789978 
	C1499.466553,627.057556 1516.093140,620.222229 1531.574341,611.382019 
	C1559.489624,595.441711 1583.444824,574.732544 1600.277100,546.883179 
	C1602.725708,542.831970 1604.201172,536.908325 1603.348877,532.373169 
	C1600.017578,514.645813 1596.639893,496.796783 1591.312988,479.602203 
	C1580.581421,444.961334 1565.672119,412.025940 1546.922119,380.905518 
	C1529.260864,351.592133 1508.767212,324.629639 1483.221802,301.561676 
	C1462.203003,282.581360 1439.107666,267.008850 1412.983765,256.153107 
	C1388.488892,245.974289 1362.983887,239.783279 1336.352905,239.043076 
	C1326.255859,238.762421 1316.104370,238.431351 1306.049438,239.139603 
	C1293.200806,240.044632 1280.225586,241.031998 1267.661133,243.676483 
	C1245.501709,248.340485 1224.809082,256.993622 1206.343018,270.447449 
	C1203.825439,272.281708 1201.312378,272.823303 1197.938232,271.821686 
	C1187.467773,268.713440 1176.806396,273.636932 1171.200562,281.853973 
	C1158.193726,300.918945 1155.607422,323.017609 1153.207642,345.175812 
	C1152.477905,351.913971 1154.533691,358.757782 1150.604248,365.441803 
	C1143.215454,378.010315 1138.724731,391.878082 1135.253906,405.999115 
	C1130.613037,424.880615 1127.914185,444.069611 1127.087402,463.506256 
	C1126.890991,468.121765 1125.428223,471.129272 1120.266968,472.521820 
	C1110.769531,475.084259 1101.595581,478.833344 1092.119873,481.493011 
	C1087.750366,482.719452 1085.595093,485.218079 1084.269775,489.148163 
	C1080.850464,499.288971 1081.915405,509.003662 1086.165039,518.748779 
	C1091.952271,532.019775 1110.627441,534.933105 1120.731201,529.847961 
	C1121.520752,530.965515 1122.806274,532.004883 1122.997559,533.216919 
	C1123.406982,535.811096 1123.250488,538.494507 1123.050537,541.921814 
	C1122.761475,544.133423 1122.072021,546.382996 1122.277344,548.547729 
	C1122.582275,551.764404 1123.551758,554.914673 1124.182861,558.104248 
	C1126.499634,569.812256 1129.531250,581.268494 1135.462036,591.776489 
	C1136.548950,593.702393 1137.670288,595.809509 1137.972290,597.946594 
	C1140.529907,616.037964 1145.894287,633.231628 1155.098511,649.001343 
	C1165.673096,667.119141 1179.570801,681.461365 1201.223511,685.876892 
	C1206.155762,686.882629 1211.095703,687.973694 1216.087158,688.537354 
	C1224.520020,689.489807 1232.984009,690.332886 1241.457886,690.721008 
	C1259.267090,691.536682 1277.096558,689.977234 1294.924072,692.734192 
	C1319.772705,696.577026 1337.282715,709.587830 1347.429321,732.036560 
	C1341.205200,733.391113 1334.981079,734.745667 1327.941772,736.032593 
	C1326.463257,736.189697 1324.942505,736.176331 1323.512695,736.530029 
	C1307.316772,740.536438 1293.449219,748.888916 1281.429932,760.172729 
	C1271.149658,769.824036 1263.958374,781.672363 1259.654053,795.140320 
	C1258.958740,797.316284 1259.196411,799.790405 1258.980835,802.911743 
	C1255.988037,817.954041 1252.995361,832.996338 1249.296997,848.282043 
	C1248.546997,850.520752 1247.797119,852.759460 1246.266113,855.180664 
	C1245.327759,855.462036 1244.406860,855.846558 1243.448364,856.009705 
	C1221.280884,859.784729 1199.185181,864.087769 1176.918457,867.144470 
	C1151.929932,870.574646 1126.783203,871.698792 1101.490356,870.395874 
	C1079.126099,869.243713 1056.941406,867.034546 1035.187012,861.842651 
	C1023.438965,859.038757 1011.145630,856.441223 1000.666016,850.825134 
	C977.493286,838.406921 957.241699,821.858765 940.849915,800.968567 
	C940.127747,800.048279 938.298401,799.202454 937.269043,799.459656 
	C933.523926,800.395325 929.720337,801.446350 926.266174,803.126770 
	C918.299927,807.002441 918.007874,808.069458 921.185364,816.131348 
	C921.844666,817.804199 922.600403,819.469788 923.545349,820.993896 
	C927.247803,826.965637 931.043945,832.879333 935.522034,839.945740 
	C906.534546,830.658752 879.434509,820.585449 858.019714,798.502625 
	C853.130005,803.975098 850.826904,810.454102 849.223511,817.237427 
	C849.046753,817.984924 849.711121,819.214844 850.358154,819.826843 
	C854.070862,823.338623 857.920105,826.705383 861.676880,830.171448 
	C865.917114,834.083679 870.108337,838.048889 874.320923,841.991028 
	C873.928223,842.485718 873.535522,842.980408 873.142822,843.475098 
	C864.222656,837.506226 855.302490,831.537415 845.427856,824.929932 
	C844.671448,830.838074 844.220703,836.688049 843.107910,842.409241 
	C841.943359,848.396667 844.719055,852.259033 849.066101,855.479919 
	C855.183350,860.012329 861.395691,864.416443 867.567383,868.875366 
	C867.476013,869.217651 867.384705,869.559875 867.293396,869.902161 
	C858.897034,867.496216 850.500732,865.090210 842.025085,862.661499 
	C841.849304,872.467224 843.810303,882.030518 846.849609,891.523132 
	C848.980652,898.179077 853.190125,902.686401 859.028320,905.886475 
	C869.230835,911.478882 879.398193,917.162231 889.822021,922.318787 
	C912.733521,933.652771 936.939758,941.788330 961.658264,947.728882 
	C986.392334,953.673157 1011.562927,957.978699 1036.699097,962.028076 
	C1069.613892,967.330627 1102.889282,968.897949 1136.197388,969.324463 
	C1179.699707,969.881470 1223.067749,967.471436 1266.304688,962.763000 
	C1282.742676,960.972961 1299.179810,959.063110 1315.534302,956.646790 
	C1332.832397,954.091003 1350.108887,951.252747 1367.254028,947.832397 
	C1386.408691,944.011169 1405.557251,939.965576 1424.416870,934.926697 
	C1436.870117,931.599365 1448.809326,926.348389 1461.451538,922.508789 
	C1473.648560,918.965393 1485.845581,915.421997 1498.820312,911.896851 
	C1501.458862,910.901062 1504.097534,909.905273 1507.520630,908.894592 
	C1513.898804,906.583008 1520.350586,904.454834 1526.642700,901.928711 
	C1556.346680,890.003113 1585.901978,877.734192 1611.618774,858.111267 
	C1616.089844,854.699524 1619.967773,850.510193 1624.817993,846.754395 
	C1626.517822,843.508545 1628.217651,840.262634 1630.263306,836.836792 
	C1630.333618,836.729248 1630.486816,836.559631 1630.460571,836.524597 
	C1630.313232,836.328186 1630.122803,836.164307 1629.681641,835.484802 
M308.185669,740.977051 
	C305.751709,741.370789 303.317780,741.764526 300.284515,741.817993 
	C297.187195,734.957703 291.960968,731.108765 284.507965,733.266724 
	C278.666962,734.957947 272.903656,737.657715 267.807495,740.984375 
	C262.102997,744.708191 258.913574,750.249512 260.990356,757.563110 
	C258.155823,758.335083 255.311401,759.072754 252.488312,759.884460 
	C230.558487,766.190247 208.792358,773.161682 186.647263,778.587036 
	C172.874603,781.961121 161.071472,788.263123 151.129410,797.713867 
	C141.360397,807.000244 135.654648,819.182922 131.068298,831.789673 
	C125.998451,845.725220 126.209290,860.266418 126.153580,874.769165 
	C126.149529,875.824585 126.858391,876.882812 127.212341,878.613342 
	C130.229706,881.398254 133.004425,884.518127 136.306290,886.910339 
	C150.855988,897.451721 167.988342,901.601135 185.003815,905.772644 
	C210.754028,912.085449 237.076447,915.021790 263.372467,917.799316 
	C279.044006,919.454590 294.823914,920.254395 310.577057,920.916504 
	C325.294067,921.535156 340.043610,921.790649 354.772552,921.629333 
	C386.272888,921.284424 417.771912,920.683167 449.265533,919.935730 
	C459.610382,919.690186 469.983856,919.084290 480.261993,917.918152 
	C501.640106,915.492493 523.039917,913.068665 544.284851,909.718018 
	C561.385986,907.020996 578.121216,902.349365 593.635010,894.376404 
	C601.050354,890.565491 608.870361,886.807373 612.588440,877.472473 
	C612.679565,875.833374 613.196228,874.081604 612.796814,872.572327 
	C608.250061,855.390686 604.195496,838.040771 598.713989,821.156433 
	C594.342590,807.691589 585.955994,796.999695 572.170776,791.174255 
	C549.072632,781.413513 525.156189,774.268921 500.936798,768.049744 
	C485.939850,764.198730 470.848206,760.716553 455.835205,756.270325 
	C457.672882,751.277832 456.528564,746.924683 452.013763,744.275940 
	C443.831543,739.475586 435.584930,734.676636 426.959229,730.774597 
	C419.952087,727.604736 415.863220,729.593872 411.656738,735.985291 
	C410.978546,737.015747 409.589142,738.084900 408.426727,738.213074 
	C393.684753,739.838501 381.953796,730.626770 379.949615,715.781128 
	C379.243103,710.547852 379.083649,705.240662 378.764160,699.213684 
	C378.844116,698.196045 378.924042,697.178467 379.926453,696.022827 
	C394.502594,694.307373 409.253082,693.485718 423.617371,690.684021 
	C450.651886,685.411072 473.122467,672.144836 489.263275,649.249268 
	C510.091614,619.704407 518.716858,586.325867 519.955383,550.700867 
	C520.283508,541.262573 520.004944,531.803162 520.004944,522.100525 
	C538.920715,526.389832 548.755798,521.096008 552.911926,503.152466 
	C555.101685,493.698456 555.149536,483.514709 554.628174,473.742432 
	C554.231506,466.307922 549.645935,460.515930 541.568481,458.962738 
	C537.883057,458.254089 534.112305,457.989227 529.781006,457.448242 
	C538.624084,388.579285 511.770844,331.076050 470.839020,277.127716 
	C470.153076,285.591431 469.533142,293.240814 468.803741,302.240875 
	C457.750763,290.539551 451.363861,277.251251 443.725403,264.995056 
	C442.946991,276.122223 442.187561,286.978271 441.428131,297.834351 
	C440.909454,297.868195 440.390778,297.902039 439.872101,297.935883 
	C432.439911,283.318329 432.263824,266.964905 429.693512,251.752090 
	C424.840210,264.069672 419.847534,276.740997 414.457886,290.419830 
	C402.117157,274.539581 396.908936,256.896423 390.644196,240.729828 
	C385.131836,255.579697 379.585419,270.521301 373.585388,286.684784 
	C360.327606,271.236145 355.163605,253.579895 347.823517,236.087036 
	C343.059479,253.445953 334.958679,268.214264 325.448792,282.448456 
	C313.008270,273.031586 308.693176,259.586700 304.708282,246.012909 
	C296.709412,263.717041 288.872742,281.062164 280.642609,299.278198 
	C268.778687,287.122040 267.725830,271.447235 262.473846,257.133942 
	C259.366272,273.984558 259.623993,290.866150 252.239807,307.667999 
	C245.085846,296.714050 244.969604,285.003021 241.569809,273.981384 
	C225.994949,303.187805 207.052185,330.527771 198.013260,362.879578 
	C188.897690,395.505646 189.591766,428.780792 190.901871,462.173096 
	C172.732880,460.091156 167.139740,469.345978 164.444702,480.118866 
	C161.701355,491.084869 161.825546,502.421234 165.452606,513.335632 
	C168.437164,522.316711 173.576340,529.774597 183.474716,531.860779 
	C187.743622,532.760498 192.360031,532.011536 196.647598,532.011536 
	C197.494598,540.807007 198.213409,549.280151 199.145050,557.729797 
	C200.924850,573.871948 204.451813,589.643372 210.240646,604.820923 
	C218.973511,627.717346 229.533585,649.433350 248.097885,666.455750 
	C256.807312,674.441772 266.442322,680.606995 277.282135,684.729309 
	C293.884094,691.043030 311.278473,694.004578 328.991943,695.545715 
	C328.991943,695.545715 329.043579,695.925232 328.459900,696.548279 
	C328.295441,700.175537 327.916077,703.808044 328.004486,707.429138 
	C328.346985,721.457153 324.030579,732.584229 309.812164,737.943481 
	C309.255737,738.153198 309.263794,739.860474 308.185669,740.977051 
M962.588135,297.062469 
	C958.746399,300.188843 954.579956,302.994141 951.117737,306.495819 
	C933.723694,324.088165 922.287354,345.090118 916.073120,368.989960 
	C913.292603,379.683685 911.750427,390.669312 913.343933,401.523132 
	C916.376587,422.179474 916.136719,442.882782 916.021118,463.625397 
	C915.982056,470.632690 912.677856,475.227539 906.442139,478.350220 
	C901.296204,480.927216 896.231934,483.852631 891.638794,487.299683 
	C886.281250,491.320465 881.647095,496.344238 881.202881,503.525360 
	C880.545776,514.149902 885.718140,522.617065 892.100769,530.489929 
	C897.528137,537.184448 904.686707,538.275024 912.679749,536.214111 
	C913.176514,546.288269 913.430725,555.884766 914.186157,565.441589 
	C914.862000,573.990601 915.806824,582.545837 917.292419,590.982178 
	C917.625977,592.876221 920.571594,595.498535 922.540222,595.712585 
	C931.545654,596.691895 940.047791,594.843628 947.430725,589.137634 
	C948.232666,588.517883 949.379150,588.343933 951.270264,587.614197 
	C950.926514,591.034607 951.078613,593.727295 950.338257,596.146973 
	C947.371399,605.843384 939.553833,609.362610 930.490173,611.058533 
	C923.468750,612.372253 922.158875,614.287964 923.690491,621.275452 
	C929.214844,646.478760 938.404968,670.111206 954.265442,690.718079 
	C965.658020,705.519897 979.955322,716.429260 998.211731,721.568176 
	C1002.035095,722.644287 1004.707153,721.985291 1005.042480,717.277771 
	C1005.229858,714.647461 1005.858643,712.049194 1006.277405,709.434692 
	C1010.853271,680.861267 1015.843811,652.345886 1019.863647,623.694458 
	C1022.852966,602.389282 1025.090820,580.946228 1026.732178,559.493347 
	C1028.377686,537.985840 1029.461548,516.396301 1029.690674,494.831024 
	C1029.898804,475.246765 1028.956299,455.629028 1027.903687,436.059265 
	C1027.041260,420.022827 1026.037354,403.922577 1023.705872,388.054871 
	C1020.871704,368.766083 1017.447754,349.470795 1012.650024,330.592316 
	C1008.625183,314.755280 1002.294189,299.501343 996.905640,284.016602 
	C995.900269,281.127411 994.548767,278.927795 990.719360,281.144409 
	C981.593872,286.426544 972.305054,291.426483 962.588135,297.062469 
M688.449219,642.979431 
	C690.318054,636.455688 692.316284,629.965576 694.019409,623.398926 
	C695.730347,616.802307 693.416199,614.085938 686.610535,614.356689 
	C680.939819,614.582153 675.842468,613.050415 671.286865,609.648621 
	C664.112732,604.291565 660.027405,595.143738 661.879883,588.028564 
	C662.633545,588.255005 663.468079,588.330750 664.106873,588.724304 
	C671.942017,593.551880 680.286682,596.995972 689.377380,598.707947 
	C695.717590,599.901917 700.415527,597.077698 700.993652,590.882202 
	C702.439270,575.389771 703.744812,559.883301 704.965515,544.371399 
	C705.372681,539.198181 707.143677,537.585327 712.276611,536.883789 
	C715.762939,536.407349 719.548401,535.478271 722.406067,533.565491 
	C729.471924,528.835693 733.116394,521.312622 735.772949,513.586243 
	C738.770813,504.867096 737.188843,496.639954 729.868103,490.519012 
	C725.193909,486.610962 720.144409,482.957184 714.767822,480.132080 
	C707.722656,476.430176 700.894531,473.150146 702.739319,463.319244 
	C702.794983,463.022858 702.528503,462.679291 702.525574,462.356689 
	C702.428101,451.723877 701.958374,441.076569 702.352783,430.461456 
	C702.891418,415.967957 704.997192,401.484772 704.771057,387.023102 
	C704.500061,369.687592 698.305481,353.554657 690.386169,338.307129 
	C683.069397,324.219971 673.366394,311.836517 661.085632,301.602661 
	C651.071838,293.257843 640.271667,286.216705 627.992371,281.660126 
	C624.960632,280.535095 622.310486,281.261993 621.127808,284.559448 
	C616.382629,297.790588 611.070679,310.864777 607.185791,324.347839 
	C600.586121,347.253113 596.189209,370.665619 593.958740,394.436981 
	C592.261841,412.522644 590.064697,430.587524 589.174744,448.714935 
	C588.367188,465.165527 588.893311,481.689484 589.074829,498.178436 
	C589.237488,512.955322 589.347473,527.750488 590.187866,542.497253 
	C591.023376,557.159424 592.713379,571.773804 594.078918,586.404419 
	C595.061462,596.930725 595.849243,607.485657 597.219421,617.962952 
	C599.294006,633.826416 601.645081,649.658264 604.164917,665.457825 
	C606.738586,681.594604 609.528076,697.700256 612.485168,713.771301 
	C613.801514,720.925110 616.762268,722.350525 623.836792,720.107666 
	C634.641174,716.682129 644.004578,710.732788 652.242432,703.125977 
	C669.910217,686.811707 680.822876,666.325195 688.449219,642.979431 
z"/>
<path fill="#FEF7F2" opacity="1.000000" stroke="none" 
	d="
M53.533882,1.000000 
	C54.096172,5.195490 51.139427,5.972065 47.984592,5.955414 
	C26.429018,5.841648 5.733941,28.901381 5.757338,50.743275 
	C6.107938,378.049103 5.999855,705.355408 6.000269,1032.661621 
	C6.000300,1057.093384 25.946230,1076.999756 50.425362,1076.999756 
	C572.215393,1077.000000 1094.005493,1077.000122 1615.795532,1076.999756 
	C1639.729004,1076.999756 1659.999512,1056.744873 1659.999512,1032.829590 
	C1660.000122,705.190063 1659.973145,377.550537 1660.056885,49.911049 
	C1660.062866,26.793573 1638.949707,5.809010 1617.615601,6.013414 
	C1614.588135,6.042421 1612.348999,5.220770 1612.007080,1.390056 
	C1616.689331,1.000000 1621.378540,1.000000 1626.596436,1.353099 
	C1627.587891,2.128512 1627.980225,2.759282 1628.523560,2.943002 
	C1646.191650,8.917202 1658.095337,20.447004 1663.195435,38.640446 
	C1663.357056,39.216961 1664.379028,39.552277 1665.000000,40.000015 
	C1665.000000,374.020905 1665.000000,708.041809 1664.640869,1042.601318 
	C1664.012695,1043.319214 1663.569458,1043.447510 1663.499878,1043.685181 
	C1658.027100,1062.370728 1646.273438,1074.802368 1627.357178,1080.195557 
	C1626.780151,1080.359985 1626.446899,1081.379272 1626.000000,1082.000000 
	C1097.645752,1082.000000 569.291565,1082.000000 40.398293,1081.640991 
	C39.679764,1081.013184 39.551331,1080.570190 39.313469,1080.500610 
	C20.629015,1075.027222 8.197758,1063.273804 2.804127,1044.358398 
	C2.639492,1043.781006 1.620631,1043.447266 1.000010,1043.000000 
	C1.000000,708.645752 1.000000,374.291534 1.353136,39.406075 
	C2.292856,37.941593 3.087591,37.079563 3.434908,36.064457 
	C8.947063,19.953939 19.676857,9.093460 35.798626,3.516393 
	C37.010849,3.097043 37.939518,1.858001 39.000000,1.000000 
	C43.689255,1.000000 48.378513,1.000000 53.533882,1.000000 
z"/>
<path fill="#FFFFFF" opacity="1.000000" stroke="none" 
	d="
M1.000010,1043.468628 
	C1.620631,1043.447266 2.639492,1043.781006 2.804127,1044.358398 
	C8.197758,1063.273804 20.629015,1075.027222 39.313469,1080.500610 
	C39.551331,1080.570190 39.679764,1081.013184 39.929634,1081.640991 
	C27.073345,1082.000000 14.146692,1082.000000 1.000000,1082.000000 
	C1.000000,1069.313232 1.000000,1056.625244 1.000010,1043.468628 
z"/>
<path fill="#FFFFFF" opacity="1.000000" stroke="none" 
	d="
M1626.468750,1082.000000 
	C1626.446899,1081.379272 1626.780151,1080.359985 1627.357178,1080.195557 
	C1646.273438,1074.802368 1658.027100,1062.370728 1663.499878,1043.685181 
	C1663.569458,1043.447510 1664.012695,1043.319214 1664.640869,1043.070068 
	C1665.000000,1055.926636 1665.000000,1068.853271 1665.000000,1082.000000 
	C1652.313232,1082.000000 1639.625244,1082.000000 1626.468750,1082.000000 
z"/>
<path fill="#FFFFFF" opacity="1.000000" stroke="none" 
	d="
M1665.000000,39.531357 
	C1664.379028,39.552277 1663.357056,39.216961 1663.195435,38.640446 
	C1658.095337,20.447004 1646.191650,8.917202 1628.523560,2.943002 
	C1627.980225,2.759282 1627.587891,2.128512 1627.062500,1.353099 
	C1639.594238,1.000000 1652.188599,1.000000 1665.000000,1.000000 
	C1665.000000,13.686736 1665.000000,26.374710 1665.000000,39.531357 
z"/>
<path fill="#FFFFFF" opacity="1.000000" stroke="none" 
	d="
M38.531342,1.000000 
	C37.939518,1.858001 37.010849,3.097043 35.798626,3.516393 
	C19.676857,9.093460 8.947063,19.953939 3.434908,36.064457 
	C3.087591,37.079563 2.292856,37.941593 1.353136,38.937416 
	C1.000000,26.406702 1.000000,13.813402 1.000000,1.000000 
	C13.353357,1.000000 25.708019,1.000000 38.531342,1.000000 
z"/>
<path fill="#282362" opacity="1.000000" stroke="none" 
	d="
M1119.838135,529.777649 
	C1110.627441,534.933105 1091.952271,532.019775 1086.165039,518.748779 
	C1081.915405,509.003662 1080.850464,499.288971 1084.269775,489.148163 
	C1085.595093,485.218079 1087.750366,482.719452 1092.119873,481.493011 
	C1101.595581,478.833344 1110.769531,475.084259 1120.266968,472.521820 
	C1125.428223,471.129272 1126.890991,468.121765 1127.087402,463.506256 
	C1127.914185,444.069611 1130.613037,424.880615 1135.253906,405.999115 
	C1138.724731,391.878082 1143.215454,378.010315 1150.604248,365.441803 
	C1154.533691,358.757782 1152.477905,351.913971 1153.207642,345.175812 
	C1155.607422,323.017609 1158.193726,300.918945 1171.200562,281.853973 
	C1176.806396,273.636932 1187.467773,268.713440 1197.938232,271.821686 
	C1201.312378,272.823303 1203.825439,272.281708 1206.343018,270.447449 
	C1224.809082,256.993622 1245.501709,248.340485 1267.661133,243.676483 
	C1280.225586,241.031998 1293.200806,240.044632 1306.049438,239.139603 
	C1316.104370,238.431351 1326.255859,238.762421 1336.352905,239.043076 
	C1362.983887,239.783279 1388.488892,245.974289 1412.983765,256.153107 
	C1439.107666,267.008850 1462.203003,282.581360 1483.221802,301.561676 
	C1508.767212,324.629639 1529.260864,351.592133 1546.922119,380.905518 
	C1565.672119,412.025940 1580.581421,444.961334 1591.312988,479.602203 
	C1596.639893,496.796783 1600.017578,514.645813 1603.348877,532.373169 
	C1604.201172,536.908325 1602.725708,542.831970 1600.277100,546.883179 
	C1583.444824,574.732544 1559.489624,595.441711 1531.574341,611.382019 
	C1516.093140,620.222229 1499.466553,627.057556 1483.353149,634.789978 
	C1480.763794,636.032532 1480.145752,635.620300 1478.859253,632.432800 
	C1473.576294,619.343567 1467.400146,606.613953 1461.486084,593.782715 
	C1461.190063,593.140747 1460.271240,592.785889 1459.002075,591.799988 
	C1459.002075,597.730469 1459.159668,602.964783 1458.969604,608.186462 
	C1458.560547,619.425781 1457.761841,630.610291 1452.946045,641.065186 
	C1450.906372,645.493164 1447.437988,647.876404 1442.798584,648.945251 
	C1428.721191,652.188538 1414.659912,655.501282 1399.930054,658.652893 
	C1398.488037,657.813782 1397.708374,657.108765 1396.928467,656.403809 
	C1396.601685,657.556335 1396.274902,658.708923 1395.510620,659.824768 
	C1371.529907,661.484009 1348.007324,663.651978 1324.434937,664.675659 
	C1312.750977,665.183044 1300.975586,663.585693 1289.200684,662.938354 
	C1289.200684,649.926819 1289.677856,637.791260 1289.105835,625.705322 
	C1287.710815,596.226807 1285.829712,566.771301 1284.134766,537.140320 
	C1272.285522,534.880432 1272.077271,534.781616 1270.348999,530.145020 
	C1271.130249,530.357666 1271.774292,530.417847 1272.305664,530.694336 
	C1285.302612,537.458557 1301.321899,531.816589 1304.223755,514.249756 
	C1305.656250,505.577423 1305.005981,496.415222 1304.235840,487.567169 
	C1303.513672,479.273865 1301.077148,471.228394 1295.512695,464.567810 
	C1290.641602,458.737122 1284.378540,456.620483 1277.187988,458.633209 
	C1272.932617,459.824310 1268.992188,462.148865 1264.923706,463.993530 
	C1263.836670,464.486420 1262.799072,465.088348 1261.211792,465.914520 
	C1262.135376,452.210205 1258.643555,440.089722 1253.956543,428.273529 
	C1240.170776,393.518494 1220.043701,362.355988 1198.740234,331.907379 
	C1197.762085,330.509399 1193.764038,329.593353 1192.315796,330.430603 
	C1185.033203,334.640717 1177.407959,338.710541 1171.236206,344.301239 
	C1155.313354,358.725067 1147.132568,377.880920 1140.896240,397.962677 
	C1133.796509,420.824951 1130.819214,444.388306 1129.256348,468.164001 
	C1129.049561,471.310028 1127.943359,472.870758 1124.988647,473.807190 
	C1114.525635,477.123169 1104.072021,480.487244 1093.741211,484.186188 
	C1091.474976,484.997650 1088.775757,486.862030 1087.905029,488.928101 
	C1083.489136,499.405609 1084.179932,509.815643 1090.519409,519.368347 
	C1096.291016,528.065552 1105.239990,529.364502 1114.819580,528.820557 
	C1116.468994,528.726929 1118.164062,529.438232 1119.838135,529.777649 
M1236.708862,289.784698 
	C1237.497681,290.041687 1238.348267,290.184509 1239.066406,290.572205 
	C1258.823730,301.236725 1279.260498,310.831451 1298.187988,322.810211 
	C1363.069580,363.872070 1413.251343,418.213013 1444.641846,488.982788 
	C1454.082886,510.267487 1460.867432,531.987732 1457.561279,555.714050 
	C1457.469849,556.370361 1458.035645,557.118225 1458.832886,559.286621 
	C1459.838501,555.912170 1460.994507,553.901917 1460.929932,551.931641 
	C1460.620972,542.509094 1461.113770,532.865723 1459.244263,523.725708 
	C1453.839111,497.298462 1441.437866,473.605438 1427.830322,450.654510 
	C1394.533081,394.494415 1348.946167,350.400879 1293.762573,315.981903 
	C1267.265869,299.455475 1239.401733,285.680206 1209.828979,275.502197 
	C1207.781860,274.797607 1205.559326,274.602295 1203.418457,274.170166 
	C1203.257812,274.829163 1203.097290,275.488129 1202.936768,276.147095 
	C1205.159546,277.072876 1207.384155,277.994019 1209.604492,278.925232 
	C1218.411377,282.618713 1227.216797,286.315308 1235.268677,290.149078 
	C1231.394409,290.056183 1233.183105,292.236389 1234.111084,293.522369 
	C1236.447388,296.760223 1239.056152,299.799896 1241.511719,302.953430 
	C1283.034302,356.279114 1321.350586,411.694977 1350.658203,472.836578 
	C1369.031738,511.167755 1383.806763,550.643127 1385.393555,593.854553 
	C1385.452026,595.447876 1386.122314,597.018799 1386.507446,598.600159 
	C1387.213379,598.484131 1387.919189,598.368164 1388.625122,598.252136 
	C1387.946655,589.421753 1387.819214,580.507751 1386.492920,571.775757 
	C1381.192871,536.878357 1368.720215,504.274902 1353.497925,472.680145 
	C1327.745850,419.230042 1295.864380,369.529602 1260.388672,322.074982 
	C1252.332764,311.299011 1244.102783,300.653168 1236.708862,289.784698 
M1480.016602,488.587067 
	C1489.654297,520.262756 1493.875000,552.987061 1498.552002,585.708740 
	C1499.603271,583.587646 1499.940308,581.543030 1499.759277,579.545349 
	C1496.396851,542.453918 1489.275757,506.154205 1477.124878,470.875275 
	C1462.220703,427.602264 1440.128906,388.529755 1407.901978,355.887024 
	C1358.758301,306.109314 1298.632690,279.406555 1229.110596,273.513733 
	C1227.612671,273.386719 1226.035522,274.195007 1224.495361,274.566986 
	C1224.550415,275.002136 1224.605469,275.437317 1224.660522,275.872467 
	C1226.229248,276.205261 1227.785889,276.619080 1229.368774,276.858185 
	C1243.170898,278.943085 1257.201660,280.043884 1270.745361,283.222443 
	C1333.463501,297.941620 1385.752441,329.711548 1425.945312,380.464172 
	C1451.305298,412.486847 1468.120483,448.886353 1480.016602,488.587067 
M1561.134888,475.423462 
	C1562.440063,478.309570 1563.745361,481.195709 1565.050537,484.081848 
	C1565.614502,483.918579 1566.178467,483.755310 1566.742432,483.592010 
	C1566.510742,482.069672 1566.564209,480.432800 1566.005615,479.041656 
	C1548.490845,435.414886 1526.930176,394.023254 1497.236572,357.318451 
	C1453.862305,303.702637 1400.337646,266.961914 1330.215698,258.507172 
	C1307.903320,255.816879 1285.678345,256.692749 1263.664917,261.451538 
	C1262.065918,261.797180 1260.532349,262.444946 1258.968384,262.952240 
	C1259.073120,263.552490 1259.177856,264.152710 1259.282715,264.752960 
	C1261.027344,264.663452 1262.785278,264.680603 1264.514648,264.467072 
	C1275.897339,263.061462 1287.244995,260.704681 1298.658325,260.334717 
	C1334.017700,259.188507 1367.761597,266.455353 1399.755615,281.687714 
	C1440.700195,301.181396 1473.135864,330.771301 1500.413574,366.465271 
	C1525.762573,399.635406 1544.886108,436.301208 1561.134888,475.423462 
M1301.973022,266.625427 
	C1295.249512,266.427643 1288.413330,264.875885 1281.898560,268.325989 
	C1283.331055,269.258362 1284.783813,269.562103 1286.248901,269.644897 
	C1296.376709,270.217041 1306.642578,269.874237 1316.614502,271.427643 
	C1373.779541,280.332581 1417.997070,309.557251 1449.894409,357.662079 
	C1464.540405,379.749725 1474.894531,403.827667 1482.952637,428.975250 
	C1483.708984,431.335480 1484.850830,433.572205 1485.813721,435.866241 
	C1486.312012,435.681305 1486.810181,435.496368 1487.308350,435.311432 
	C1486.423462,431.460968 1485.888916,427.488800 1484.599854,423.778839 
	C1470.939209,384.466888 1451.881714,348.380890 1421.296021,319.333527 
	C1388.074585,287.783081 1348.702515,269.999481 1301.973022,266.625427 
M1371.545654,423.914795 
	C1369.507812,420.288422 1367.534912,416.623810 1365.421997,413.041687 
	C1346.692749,381.289673 1324.410400,352.412476 1296.477539,328.139008 
	C1294.807861,326.688202 1292.766846,325.665070 1290.898560,324.442932 
	C1303.551636,339.506073 1317.617798,352.904327 1329.818481,367.827667 
	C1342.101807,382.852234 1353.599243,398.760742 1363.473022,415.446350 
	C1373.425659,432.265198 1381.914795,450.127106 1389.281494,468.248962 
	C1396.500000,486.005737 1401.497070,504.665588 1407.785645,523.896667 
	C1410.504761,513.536133 1389.888428,457.560242 1371.545654,423.914795 
z"/>
<path fill="#2A2662" opacity="1.000000" stroke="none" 
	d="
M378.674377,699.967224 
	C379.083649,705.240662 379.243103,710.547852 379.949615,715.781128 
	C381.953796,730.626770 393.684753,739.838501 408.426727,738.213074 
	C409.589142,738.084900 410.978546,737.015747 411.656738,735.985291 
	C415.863220,729.593872 419.952087,727.604736 426.959229,730.774597 
	C435.584930,734.676636 443.831543,739.475586 452.013763,744.275940 
	C456.528564,746.924683 457.672882,751.277832 455.494202,756.752319 
	C451.652924,758.878113 453.126740,760.157715 455.588196,760.870178 
	C458.764191,761.789429 462.059814,762.286865 465.285492,763.044434 
	C497.898529,770.703552 530.519531,778.258728 562.090149,789.786072 
	C578.640076,795.828979 591.436890,805.300049 596.466675,822.854614 
	C600.887878,838.285034 604.788208,853.864197 608.997681,869.356201 
	C609.792664,872.281860 610.958862,875.106567 611.953735,877.977905 
	C608.870361,886.807373 601.050354,890.565491 593.635010,894.376404 
	C578.121216,902.349365 561.385986,907.020996 544.284851,909.718018 
	C523.039917,913.068665 501.640106,915.492493 480.261993,917.918152 
	C469.983856,919.084290 459.610382,919.690186 449.265533,919.935730 
	C417.771912,920.683167 386.272888,921.284424 354.772552,921.629333 
	C340.043610,921.790649 325.294067,921.535156 310.577057,920.916504 
	C294.823914,920.254395 279.044006,919.454590 263.372467,917.799316 
	C237.076447,915.021790 210.754028,912.085449 185.003815,905.772644 
	C167.988342,901.601135 150.855988,897.451721 136.306290,886.910339 
	C133.004425,884.518127 130.229706,881.398254 127.576897,878.181335 
	C128.604660,875.488342 129.578491,873.267822 129.878632,870.959595 
	C131.370850,859.484131 131.550552,847.705933 134.298340,836.553223 
	C140.078003,813.094482 153.354492,794.816833 176.365860,785.488892 
	C185.827087,781.653625 196.100998,779.841980 205.972107,776.994873 
	C223.037048,772.072937 240.088837,767.104065 257.110077,762.033813 
	C259.264648,761.392029 262.467224,761.327881 261.830200,757.532227 
	C258.913574,750.249512 262.102997,744.708191 267.807495,740.984375 
	C272.903656,737.657715 278.666962,734.957947 284.507965,733.266724 
	C291.960968,731.108765 297.187195,734.957703 300.700836,742.305176 
	C312.606781,759.372131 326.006012,773.958679 343.690216,784.204590 
	C347.675201,786.513428 351.391510,786.659973 355.542908,784.914124 
	C368.873444,779.308105 381.003326,771.762695 391.415466,761.775513 
	C397.513031,755.926941 402.817627,749.251648 409.088409,742.269714 
	C406.680328,741.700684 405.890503,741.395691 405.083649,741.340637 
	C384.276733,739.921021 374.503693,722.887634 375.864471,703.395325 
	C375.992462,701.561951 375.781403,699.508301 378.674377,699.967224 
M322.014984,809.503967 
	C327.188354,805.614502 332.154602,801.400574 337.594025,797.927734 
	C342.928070,794.522217 354.480225,796.056885 359.420166,800.056580 
	C370.375153,808.926208 382.377686,816.107056 395.858185,820.239075 
	C416.624023,826.604248 419.747437,827.140259 430.607758,806.753174 
	C439.459595,790.136475 445.570679,772.059204 452.885956,754.624939 
	C454.269104,751.328613 453.237549,748.581665 450.338837,746.883911 
	C442.624725,742.365845 434.931274,737.765076 426.931915,733.797363 
	C421.232086,730.970215 417.694733,732.499451 414.431396,737.948425 
	C402.836304,757.309143 386.818726,771.962585 366.883972,782.349121 
	C349.535553,791.388062 347.563934,791.168396 331.892822,779.530640 
	C317.397430,768.765991 305.959534,755.185852 296.157349,740.168457 
	C293.665588,736.350891 290.324341,734.063538 286.146332,735.787720 
	C279.764008,738.421448 273.633911,741.752747 267.641479,745.211914 
	C264.168549,747.216492 263.275238,750.721924 263.932861,754.775085 
	C266.286774,769.282898 269.796356,783.442200 276.448883,796.636169 
	C281.536224,806.725952 288.073608,815.665466 297.816864,821.850830 
	C303.689728,825.579102 307.152252,825.098572 311.810059,820.066040 
	C314.973511,816.648010 318.268219,813.351379 322.014984,809.503967 
z"/>
<path fill="#F1777F" opacity="1.000000" stroke="none" 
	d="
M1120.284668,529.812805 
	C1118.164062,529.438232 1116.468994,528.726929 1114.819580,528.820557 
	C1105.239990,529.364502 1096.291016,528.065552 1090.519409,519.368347 
	C1084.179932,509.815643 1083.489136,499.405609 1087.905029,488.928101 
	C1088.775757,486.862030 1091.474976,484.997650 1093.741211,484.186188 
	C1104.072021,480.487244 1114.525635,477.123169 1124.988647,473.807190 
	C1127.943359,472.870758 1129.049561,471.310028 1129.256348,468.164001 
	C1130.819214,444.388306 1133.796509,420.824951 1140.896240,397.962677 
	C1147.132568,377.880920 1155.313354,358.725067 1171.236206,344.301239 
	C1177.407959,338.710541 1185.033203,334.640717 1192.315796,330.430603 
	C1193.764038,329.593353 1197.762085,330.509399 1198.740234,331.907379 
	C1220.043701,362.355988 1240.170776,393.518494 1253.956543,428.273529 
	C1258.643555,440.089722 1262.135376,452.210205 1261.211792,465.914520 
	C1262.799072,465.088348 1263.836670,464.486420 1264.923706,463.993530 
	C1268.992188,462.148865 1272.932617,459.824310 1277.187988,458.633209 
	C1284.378540,456.620483 1290.641602,458.737122 1295.512695,464.567810 
	C1301.077148,471.228394 1303.513672,479.273865 1304.235840,487.567169 
	C1305.005981,496.415222 1305.656250,505.577423 1304.223755,514.249756 
	C1301.321899,531.816589 1285.302612,537.458557 1272.305664,530.694336 
	C1271.774292,530.417847 1271.130249,530.357666 1270.348999,530.145020 
	C1272.077271,534.781616 1272.285522,534.880432 1284.134766,537.140320 
	C1285.829712,566.771301 1287.710815,596.226807 1289.105835,625.705322 
	C1289.677856,637.791260 1289.200684,649.926819 1289.200684,662.938354 
	C1300.975586,663.585693 1312.750977,665.183044 1324.434937,664.675659 
	C1348.007324,663.651978 1371.529907,661.484009 1395.639648,660.171509 
	C1399.687744,669.182556 1405.483643,676.238586 1413.408813,680.637329 
	C1423.193237,686.068115 1433.724854,690.152893 1443.684204,695.116333 
	C1431.015259,705.712891 1418.408325,715.796326 1406.217041,726.359375 
	C1384.211304,745.426208 1362.664062,765.027832 1340.455566,783.851685 
	C1334.359985,789.018127 1326.820801,792.690491 1319.519775,796.154114 
	C1314.359619,798.602234 1309.673950,795.067932 1309.937866,789.275635 
	C1310.114014,785.412048 1310.694092,780.940796 1312.782959,777.903625 
	C1320.104004,767.258789 1328.191406,757.142822 1335.904297,746.763916 
	C1337.426880,744.715027 1338.579102,742.390869 1340.207520,740.027344 
	C1343.364380,737.804626 1346.215820,735.748352 1349.351562,733.933350 
	C1351.283691,737.832947 1352.931641,741.491333 1354.579468,745.149658 
	C1355.054688,745.012756 1355.530029,744.875854 1356.005249,744.738953 
	C1355.795654,743.073425 1355.861694,741.314575 1355.334229,739.756714 
	C1348.926392,720.828918 1337.516357,705.894409 1319.369629,697.008667 
	C1303.342163,689.160583 1285.995483,686.773560 1268.360962,687.617493 
	C1249.490356,688.520569 1230.797852,687.425659 1212.108154,685.025085 
	C1198.203369,683.239136 1185.609497,678.571472 1175.257324,668.892334 
	C1153.973022,648.991638 1145.934570,622.988220 1140.774536,593.694397 
	C1147.501953,595.537354 1153.256592,596.466187 1158.447632,598.702942 
	C1164.673584,601.385559 1170.387695,605.242615 1176.406738,608.433899 
	C1177.293457,608.904114 1178.639282,608.508423 1179.772705,608.513306 
	C1179.418823,607.694824 1179.299072,606.528198 1178.676392,606.109436 
	C1168.127319,599.014404 1157.323364,592.198181 1144.160522,591.719666 
	C1140.446533,591.584595 1138.930786,590.307922 1137.441528,587.428101 
	C1131.709595,576.344421 1129.032959,564.391541 1126.811157,552.248352 
	C1126.118164,548.460266 1124.513184,544.839050 1123.325684,541.141418 
	C1123.250488,538.494507 1123.406982,535.811096 1122.997559,533.216919 
	C1122.806274,532.004883 1121.520752,530.965515 1120.284668,529.812805 
M1144.570312,436.510895 
	C1146.273926,441.158844 1149.837158,443.888336 1154.445923,444.732056 
	C1160.450684,445.831360 1166.559570,446.567261 1172.654053,446.891510 
	C1176.179810,447.079132 1180.776001,447.068420 1181.634888,442.551361 
	C1182.503418,437.981445 1177.927856,437.208282 1174.835938,436.048798 
	C1166.049438,432.753723 1157.597168,429.083435 1151.639648,421.326385 
	C1149.650024,418.735748 1147.497192,419.774261 1146.825195,422.257660 
	C1145.634521,426.658508 1145.110718,431.239777 1144.570312,436.510895 
M1170.083008,378.365784 
	C1178.805054,383.848907 1185.884033,390.790466 1190.837402,400.010010 
	C1191.942871,402.067719 1195.763916,404.454590 1197.589111,403.956665 
	C1201.140259,402.987854 1201.638306,399.124481 1200.782715,395.609711 
	C1200.475952,394.349548 1199.870117,393.088593 1199.125244,392.020020 
	C1191.428955,380.979034 1181.088379,373.559174 1168.016968,370.373199 
	C1165.046021,369.649078 1161.660034,370.627258 1158.465088,370.821899 
	C1158.503296,371.261963 1158.541382,371.701996 1158.579590,372.142059 
	C1162.208496,374.087738 1165.837524,376.033417 1170.083008,378.365784 
M1290.646118,483.494293 
	C1279.834106,478.429535 1262.108887,484.919983 1258.890747,495.854492 
	C1260.369751,495.571350 1261.635620,494.908752 1262.774170,494.072510 
	C1266.470459,491.357666 1269.973145,488.334015 1273.885254,485.988129 
	C1274.935791,485.358215 1277.797485,486.163177 1278.775269,487.253357 
	C1285.304688,494.534393 1285.312012,502.610260 1279.344604,510.381256 
	C1278.536499,511.433685 1278.438965,513.031738 1278.012451,514.377197 
	C1278.621948,514.522034 1279.231445,514.666931 1279.840942,514.811768 
	C1289.677490,505.893158 1287.022827,495.640076 1282.032471,485.617920 
	C1285.293579,485.109070 1287.993774,484.687775 1290.646118,483.494293 
z"/>
<path fill="#F6A4A4" opacity="1.000000" stroke="none" 
	d="
M962.835205,296.801453 
	C972.305054,291.426483 981.593872,286.426544 990.719360,281.144409 
	C994.548767,278.927795 995.900269,281.127411 996.905640,284.016602 
	C1002.294189,299.501343 1008.625183,314.755280 1012.650024,330.592316 
	C1017.447754,349.470795 1020.871704,368.766083 1023.705872,388.054871 
	C1026.037354,403.922577 1027.041260,420.022827 1027.903687,436.059265 
	C1028.956299,455.629028 1029.898804,475.246765 1029.690674,494.831024 
	C1029.461548,516.396301 1028.377686,537.985840 1026.732178,559.493347 
	C1025.090820,580.946228 1022.852966,602.389282 1019.863647,623.694458 
	C1015.843811,652.345886 1010.853271,680.861267 1006.277405,709.434692 
	C1005.858643,712.049194 1005.229858,714.647461 1005.042480,717.277771 
	C1004.707153,721.985291 1002.035095,722.644287 998.211731,721.568176 
	C979.955322,716.429260 965.658020,705.519897 954.265442,690.718079 
	C938.404968,670.111206 929.214844,646.478760 923.690491,621.275452 
	C922.158875,614.287964 923.468750,612.372253 930.490173,611.058533 
	C939.553833,609.362610 947.371399,605.843384 950.338257,596.146973 
	C951.078613,593.727295 950.926514,591.034607 951.270264,587.614197 
	C949.379150,588.343933 948.232666,588.517883 947.430725,589.137634 
	C940.047791,594.843628 931.545654,596.691895 922.540222,595.712585 
	C920.571594,595.498535 917.625977,592.876221 917.292419,590.982178 
	C915.806824,582.545837 914.862000,573.990601 914.186157,565.441589 
	C913.430725,555.884766 913.176514,546.288269 912.679749,536.214111 
	C904.686707,538.275024 897.528137,537.184448 892.100769,530.489929 
	C885.718140,522.617065 880.545776,514.149902 881.202881,503.525360 
	C881.647095,496.344238 886.281250,491.320465 891.638794,487.299683 
	C896.231934,483.852631 901.296204,480.927216 906.442139,478.350220 
	C912.677856,475.227539 915.982056,470.632690 916.021118,463.625397 
	C916.136719,442.882782 916.376587,422.179474 913.343933,401.523132 
	C911.750427,390.669312 913.292603,379.683685 916.073120,368.989960 
	C922.287354,345.090118 933.723694,324.088165 951.117737,306.495819 
	C954.579956,302.994141 958.746399,300.188843 962.835205,296.801453 
M945.560791,420.666473 
	C936.861938,423.533875 933.819702,427.640411 934.996704,434.926086 
	C935.870789,440.336609 940.463501,442.406067 944.816101,439.480042 
	C950.011414,435.987518 955.369995,432.735321 960.520386,429.179932 
	C961.877869,428.242828 963.759644,426.391724 963.565735,425.280609 
	C963.288208,423.690552 961.482605,421.387054 960.049438,421.160645 
	C955.553345,420.450317 950.926086,420.569489 945.560791,420.666473 
z"/>
<path fill="#F6A4A4" opacity="1.000000" stroke="none" 
	d="
M688.299072,643.346863 
	C680.822876,666.325195 669.910217,686.811707 652.242432,703.125977 
	C644.004578,710.732788 634.641174,716.682129 623.836792,720.107666 
	C616.762268,722.350525 613.801514,720.925110 612.485168,713.771301 
	C609.528076,697.700256 606.738586,681.594604 604.164917,665.457825 
	C601.645081,649.658264 599.294006,633.826416 597.219421,617.962952 
	C595.849243,607.485657 595.061462,596.930725 594.078918,586.404419 
	C592.713379,571.773804 591.023376,557.159424 590.187866,542.497253 
	C589.347473,527.750488 589.237488,512.955322 589.074829,498.178436 
	C588.893311,481.689484 588.367188,465.165527 589.174744,448.714935 
	C590.064697,430.587524 592.261841,412.522644 593.958740,394.436981 
	C596.189209,370.665619 600.586121,347.253113 607.185791,324.347839 
	C611.070679,310.864777 616.382629,297.790588 621.127808,284.559448 
	C622.310486,281.261993 624.960632,280.535095 627.992371,281.660126 
	C640.271667,286.216705 651.071838,293.257843 661.085632,301.602661 
	C673.366394,311.836517 683.069397,324.219971 690.386169,338.307129 
	C698.305481,353.554657 704.500061,369.687592 704.771057,387.023102 
	C704.997192,401.484772 702.891418,415.967957 702.352783,430.461456 
	C701.958374,441.076569 702.428101,451.723877 702.525574,462.356689 
	C702.528503,462.679291 702.794983,463.022858 702.739319,463.319244 
	C700.894531,473.150146 707.722656,476.430176 714.767822,480.132080 
	C720.144409,482.957184 725.193909,486.610962 729.868103,490.519012 
	C737.188843,496.639954 738.770813,504.867096 735.772949,513.586243 
	C733.116394,521.312622 729.471924,528.835693 722.406067,533.565491 
	C719.548401,535.478271 715.762939,536.407349 712.276611,536.883789 
	C707.143677,537.585327 705.372681,539.198181 704.965515,544.371399 
	C703.744812,559.883301 702.439270,575.389771 700.993652,590.882202 
	C700.415527,597.077698 695.717590,599.901917 689.377380,598.707947 
	C680.286682,596.995972 671.942017,593.551880 664.106873,588.724304 
	C663.468079,588.330750 662.633545,588.255005 661.879883,588.028564 
	C660.027405,595.143738 664.112732,604.291565 671.286865,609.648621 
	C675.842468,613.050415 680.939819,614.582153 686.610535,614.356689 
	C693.416199,614.085938 695.730347,616.802307 694.019409,623.398926 
	C692.316284,629.965576 690.318054,636.455688 688.299072,643.346863 
M652.932861,426.813599 
	C659.893372,429.870728 666.858704,432.916779 673.812683,435.988708 
	C678.868469,438.222107 683.866638,436.147675 683.682434,431.107788 
	C683.551331,427.519989 682.040588,423.010284 679.515320,420.674866 
	C673.333191,414.957550 660.656860,415.163971 653.967590,420.083374 
	C651.750366,421.713959 650.445679,423.652740 652.932861,426.813599 
z"/>
<path fill="#2C2763" opacity="1.000000" stroke="none" 
	d="
M328.980682,695.162964 
	C311.278473,694.004578 293.884094,691.043030 277.282135,684.729309 
	C266.442322,680.606995 256.807312,674.441772 248.097885,666.455750 
	C229.533585,649.433350 218.973511,627.717346 210.240646,604.820923 
	C204.451813,589.643372 200.924850,573.871948 199.145050,557.729797 
	C198.213409,549.280151 197.494598,540.807007 196.647598,532.011536 
	C192.360031,532.011536 187.743622,532.760498 183.474716,531.860779 
	C173.576340,529.774597 168.437164,522.316711 165.452606,513.335632 
	C161.825546,502.421234 161.701355,491.084869 164.444702,480.118866 
	C167.139740,469.345978 172.732880,460.091156 190.901871,462.173096 
	C189.591766,428.780792 188.897690,395.505646 198.013260,362.879578 
	C207.052185,330.527771 225.994949,303.187805 241.569809,273.981384 
	C244.969604,285.003021 245.085846,296.714050 252.239807,307.667999 
	C259.623993,290.866150 259.366272,273.984558 262.473846,257.133942 
	C267.725830,271.447235 268.778687,287.122040 280.642609,299.278198 
	C288.872742,281.062164 296.709412,263.717041 304.708282,246.012909 
	C308.693176,259.586700 313.008270,273.031586 325.448792,282.448456 
	C334.958679,268.214264 343.059479,253.445953 347.823517,236.087036 
	C355.163605,253.579895 360.327606,271.236145 373.585388,286.684784 
	C379.585419,270.521301 385.131836,255.579697 390.644196,240.729828 
	C396.908936,256.896423 402.117157,274.539581 414.457886,290.419830 
	C419.847534,276.740997 424.840210,264.069672 429.693512,251.752090 
	C432.263824,266.964905 432.439911,283.318329 439.872101,297.935883 
	C440.390778,297.902039 440.909454,297.868195 441.428131,297.834351 
	C442.187561,286.978271 442.946991,276.122223 443.725403,264.995056 
	C451.363861,277.251251 457.750763,290.539551 468.803741,302.240875 
	C469.533142,293.240814 470.153076,285.591431 470.839020,277.127716 
	C511.770844,331.076050 538.624084,388.579285 529.781006,457.448242 
	C534.112305,457.989227 537.883057,458.254089 541.568481,458.962738 
	C549.645935,460.515930 554.231506,466.307922 554.628174,473.742432 
	C555.149536,483.514709 555.101685,493.698456 552.911926,503.152466 
	C548.755798,521.096008 538.920715,526.389832 520.004944,522.100525 
	C520.004944,531.803162 520.283508,541.262573 519.955383,550.700867 
	C518.716858,586.325867 510.091614,619.704407 489.263275,649.249268 
	C473.122467,672.144836 450.651886,685.411072 423.617371,690.684021 
	C409.253082,693.485718 394.502594,694.307373 379.002014,696.031616 
	C361.711945,695.747925 345.346313,695.455444 328.980682,695.162964 
M532.132507,476.824982 
	C525.082031,476.800629 520.982849,479.510406 520.906799,484.504944 
	C520.770081,493.489380 520.668762,502.478333 520.801636,511.461700 
	C520.912537,518.956787 523.958435,521.582520 531.526733,521.258484 
	C539.312561,520.925232 546.717102,514.760498 549.736023,505.653412 
	C553.220032,495.143402 552.772766,484.263428 551.453308,473.535370 
	C550.565918,466.320648 545.671814,461.682709 538.989929,461.197906 
	C534.083862,460.841919 529.076599,461.715942 524.132996,462.222961 
	C523.410828,462.297028 522.290344,463.318268 522.206665,464.005127 
	C521.653076,468.547180 521.332458,473.117676 520.872559,478.408752 
	C526.273315,475.537964 531.033203,472.902832 535.447937,476.827728 
	C534.621887,476.890076 533.795776,476.952423 532.132507,476.824982 
M177.007950,490.009735 
	C177.007950,490.009735 177.024658,490.033081 176.616699,489.352783 
	C179.614822,481.134003 186.316589,478.989105 197.724594,482.597168 
	C200.216461,474.931946 199.125031,471.113190 193.291229,467.085541 
	C185.585663,461.765747 175.882919,464.790588 170.274124,474.261200 
	C162.998505,486.546295 164.833954,511.225494 174.174896,522.062561 
	C179.204178,527.897400 185.544067,531.120605 193.653381,529.338501 
	C196.223236,528.773743 197.054367,527.602417 197.086456,524.905273 
	C197.220871,513.609314 197.624741,502.316040 197.979401,491.023346 
	C198.176788,484.738373 195.003738,481.487640 188.790176,482.340759 
	C187.410141,482.530212 185.087036,484.774323 185.245850,485.733246 
	C186.010727,490.351288 187.476501,494.853210 188.197342,499.805969 
	C188.047943,499.959839 187.898529,500.113708 187.171112,499.872284 
	C185.318924,495.006653 183.466751,490.141022 181.541031,485.082184 
	C180.228699,486.498688 178.610840,488.244904 177.007950,490.009735 
M202.622360,556.824402 
	C205.280762,581.259644 213.334656,603.921509 223.535965,626.218994 
	C238.947205,659.904114 264.726990,680.215271 300.266632,687.808838 
	C338.067413,695.885437 376.265198,695.218506 414.461060,689.845337 
	C445.828674,685.432739 470.733063,670.831116 488.974182,644.665649 
	C504.575684,622.286438 511.626312,597.021423 514.840210,570.503357 
	C519.038330,535.864441 518.452515,501.028473 517.804993,466.225525 
	C517.752441,463.399109 516.790588,460.283539 515.345764,457.837067 
	C502.701355,436.427246 497.004700,413.007568 495.071259,388.519104 
	C494.306854,378.837341 494.626221,379.314728 484.711548,380.219025 
	C451.418365,383.255615 418.134888,386.938568 384.761322,388.391998 
	C355.018036,389.687317 325.153656,388.668365 295.355438,388.053253 
	C278.735352,387.710175 262.134369,386.205994 245.538467,385.031555 
	C237.483795,384.461517 229.460602,383.446747 222.393814,382.731598 
	C217.814758,404.545624 213.551605,425.707245 208.863449,446.774292 
	C206.954559,455.352234 202.673264,463.607727 201.977951,472.212463 
	C199.725296,500.089813 199.221390,528.056152 202.622360,556.824402 
z"/>
<path fill="#FEFEFF" opacity="1.000000" stroke="none" 
	d="
M1349.067261,733.692078 
	C1346.215820,735.748352 1343.364380,737.804626 1339.860840,740.007935 
	C1337.804443,740.992371 1336.029663,741.526062 1335.054688,742.715454 
	C1327.373047,752.086975 1319.489136,761.329163 1312.435425,771.162048 
	C1309.440186,775.337402 1307.580200,780.674255 1306.440796,785.760254 
	C1304.171143,795.888977 1312.283936,802.766663 1321.955933,799.019836 
	C1326.851562,797.123474 1331.845215,794.734009 1335.855835,791.428528 
	C1353.044067,777.262451 1369.990967,762.796875 1386.820435,748.203613 
	C1404.912720,732.515198 1422.608398,716.366272 1440.819336,700.819031 
	C1448.271973,694.456482 1456.921875,690.650330 1467.362427,690.921082 
	C1499.865845,691.763855 1529.304443,701.730835 1556.182739,719.648987 
	C1580.030762,735.547058 1598.062134,756.861877 1612.900757,781.128357 
	C1614.456787,783.673157 1616.923584,785.661011 1618.967896,787.907227 
	C1622.837036,800.011169 1626.977295,812.039734 1630.377930,824.273926 
	C1631.192139,827.202942 1633.487915,831.004150 1629.353760,834.186035 
	C1625.339844,833.565613 1623.204346,834.841614 1621.852539,837.880371 
	C1620.245972,841.491455 1621.168213,844.312927 1624.119751,846.680115 
	C1619.967773,850.510193 1616.089844,854.699524 1611.618774,858.111267 
	C1585.901978,877.734192 1556.346680,890.003113 1526.642700,901.928711 
	C1520.350586,904.454834 1513.898804,906.583008 1507.227661,908.547363 
	C1508.375366,902.286926 1507.042725,900.290161 1500.427734,897.797241 
	C1502.534668,895.853516 1504.444214,894.239441 1506.225830,892.494812 
	C1520.792236,878.231567 1529.837158,861.557983 1527.891113,840.509399 
	C1526.344727,823.783081 1519.480835,809.112122 1508.804810,796.322205 
	C1492.313110,776.565247 1467.362427,770.294678 1443.423706,779.799377 
	C1433.558594,783.716309 1423.963989,788.310791 1414.131104,792.314026 
	C1408.694336,794.527466 1403.000366,796.103210 1397.466553,798.089355 
	C1396.284546,798.513672 1395.249146,799.412720 1394.225098,800.196106 
	C1392.821411,801.269775 1391.644409,802.733521 1390.110229,803.528625 
	C1362.200073,817.994324 1333.409302,830.399170 1303.294556,839.499695 
	C1287.444824,844.289246 1271.387207,848.390320 1255.310913,852.476013 
	C1253.466431,850.779419 1251.734497,849.409058 1250.002563,848.038635 
	C1252.995361,832.996338 1255.988037,817.954041 1259.369019,802.475952 
	C1260.837036,799.999023 1262.236938,798.062439 1262.943604,795.899475 
	C1266.836182,783.982727 1272.415283,773.138245 1282.305908,764.893555 
	C1289.481934,767.031738 1292.841919,764.033691 1291.864990,756.582336 
	C1293.167969,755.179443 1294.235596,753.773804 1295.650391,753.123291 
	C1305.388672,748.645569 1315.188477,744.300659 1324.996826,739.977478 
	C1326.831421,739.168884 1329.642944,739.480652 1328.756958,736.100220 
	C1334.981079,734.745667 1341.205200,733.391113 1348.068604,732.110474 
	C1348.827637,732.686951 1348.947510,733.189514 1349.067261,733.692078 
M1603.979492,809.465576 
	C1604.749268,808.246887 1606.288940,806.918152 1606.133789,805.831665 
	C1605.778320,803.343750 1605.217896,799.648865 1603.593506,798.885559 
	C1601.471924,797.888611 1597.440796,798.355408 1595.741089,799.877991 
	C1594.368164,801.107727 1594.433228,805.136719 1595.286255,807.382446 
	C1596.626587,810.910950 1600.077148,810.854309 1603.979492,809.465576 
M1295.754150,800.007019 
	C1292.842285,802.588501 1291.979370,805.974487 1294.609741,808.690125 
	C1296.190186,810.321716 1299.855591,811.494141 1301.806030,810.771851 
	C1303.789673,810.037415 1305.743042,806.850037 1306.061768,804.512207 
	C1306.626587,800.368469 1302.682617,798.578735 1295.754150,800.007019 
M1555.794922,851.883301 
	C1553.398193,848.714600 1550.259644,847.097229 1546.858398,849.707336 
	C1544.090576,851.831360 1542.597168,855.617371 1545.011841,858.492615 
	C1546.490967,860.253906 1550.301758,861.426453 1552.558960,860.856873 
	C1556.322388,859.907104 1557.873779,856.614563 1555.794922,851.883301 
M1556.688965,756.442200 
	C1555.390381,750.690369 1551.771606,747.986267 1547.938599,750.534058 
	C1545.988281,751.830444 1544.142090,754.953308 1544.244385,757.158020 
	C1544.331787,759.040833 1547.036011,761.951538 1548.997559,762.346375 
	C1552.516602,763.054749 1555.914307,761.597229 1556.688965,756.442200 
M1503.973022,702.508606 
	C1500.852173,700.156738 1497.552368,700.304810 1495.035522,702.991272 
	C1493.870483,704.234985 1493.377075,706.950134 1493.815186,708.686218 
	C1494.885132,712.926697 1498.715088,714.812744 1502.118652,713.395264 
	C1506.224609,711.685120 1507.096191,707.981262 1503.973022,702.508606 
M1451.982666,759.861267 
	C1456.640015,757.017029 1457.836304,753.432007 1455.339233,749.803284 
	C1453.066162,746.499939 1448.970825,745.997803 1446.047119,749.324951 
	C1444.665771,750.897034 1443.489136,754.505249 1444.337036,755.757751 
	C1445.707642,757.782776 1448.825928,758.624756 1451.982666,759.861267 
z"/>
<path fill="#382E69" opacity="1.000000" stroke="none" 
	d="
M1255.423462,852.802246 
	C1271.387207,848.390320 1287.444824,844.289246 1303.294556,839.499695 
	C1333.409302,830.399170 1362.200073,817.994324 1390.110229,803.528625 
	C1391.644409,802.733521 1392.821411,801.269775 1394.225098,800.196106 
	C1395.249146,799.412720 1396.284546,798.513672 1397.466553,798.089355 
	C1403.000366,796.103210 1408.694336,794.527466 1414.131104,792.314026 
	C1423.963989,788.310791 1433.558594,783.716309 1443.423706,779.799377 
	C1467.362427,770.294678 1492.313110,776.565247 1508.804810,796.322205 
	C1519.480835,809.112122 1526.344727,823.783081 1527.891113,840.509399 
	C1529.837158,861.557983 1520.792236,878.231567 1506.225830,892.494812 
	C1504.444214,894.239441 1502.534668,895.853516 1500.148071,897.836853 
	C1498.075439,899.386414 1496.539185,900.627136 1494.755371,902.155396 
	C1494.656128,902.648010 1494.804321,902.852966 1494.991943,903.060791 
	C1495.031372,903.063660 1495.063843,902.991333 1494.753784,902.747437 
	C1483.288696,908.988586 1472.133789,915.473633 1460.978760,921.958679 
	C1448.809326,926.348389 1436.870117,931.599365 1424.416870,934.926697 
	C1405.557251,939.965576 1386.408691,944.011169 1367.254028,947.832397 
	C1350.108887,951.252747 1332.832397,954.091003 1315.534302,956.646790 
	C1299.179810,959.063110 1282.742676,960.972961 1266.304688,962.763000 
	C1223.067749,967.471436 1179.699707,969.881470 1136.197388,969.324463 
	C1102.889282,968.897949 1069.613892,967.330627 1036.699097,962.028076 
	C1011.562927,957.978699 986.392334,953.673157 961.658264,947.728882 
	C936.939758,941.788330 912.733521,933.652771 889.822021,922.318787 
	C879.398193,917.162231 869.230835,911.478882 859.028320,905.886475 
	C853.190125,902.686401 848.980652,898.179077 846.849609,891.523132 
	C843.810303,882.030518 841.849304,872.467224 842.025085,862.661499 
	C850.500732,865.090210 858.897034,867.496216 867.293396,869.902161 
	C867.384705,869.559875 867.476013,869.217651 867.567383,868.875366 
	C861.395691,864.416443 855.183350,860.012329 849.066101,855.479919 
	C844.719055,852.259033 841.943359,848.396667 843.107910,842.409241 
	C844.220703,836.688049 844.671448,830.838074 845.427856,824.929932 
	C855.302490,831.537415 864.222656,837.506226 873.142822,843.475098 
	C873.535522,842.980408 873.928223,842.485718 874.320923,841.991028 
	C870.108337,838.048889 865.917114,834.083679 861.676880,830.171448 
	C857.920105,826.705383 854.070862,823.338623 850.358154,819.826843 
	C849.711121,819.214844 849.046753,817.984924 849.223511,817.237427 
	C850.826904,810.454102 853.130005,803.975098 858.019714,798.502625 
	C879.434509,820.585449 906.534546,830.658752 935.522034,839.945740 
	C931.043945,832.879333 927.247803,826.965637 923.545349,820.993896 
	C922.600403,819.469788 921.844666,817.804199 921.185364,816.131348 
	C918.007874,808.069458 918.299927,807.002441 926.266174,803.126770 
	C929.720337,801.446350 933.523926,800.395325 937.269043,799.459656 
	C938.298401,799.202454 940.127747,800.048279 940.849915,800.968567 
	C957.241699,821.858765 977.493286,838.406921 1000.666016,850.825134 
	C1011.145630,856.441223 1023.438965,859.038757 1035.187012,861.842651 
	C1056.941406,867.034546 1079.126099,869.243713 1101.490356,870.395874 
	C1126.783203,871.698792 1151.929932,870.574646 1176.918457,867.144470 
	C1199.185181,864.087769 1221.280884,859.784729 1243.448364,856.009705 
	C1244.406860,855.846558 1245.327759,855.462036 1247.048218,855.084900 
	C1250.361328,854.260193 1252.892456,853.531189 1255.423462,852.802246 
M969.030273,833.454102 
	C960.578735,825.451233 951.799133,817.761292 943.775879,809.349915 
	C936.937073,802.180298 937.163635,801.779053 928.203186,806.176147 
	C927.755188,806.395996 927.346252,806.713684 926.880920,806.877014 
	C922.637939,808.366150 922.194397,811.246521 924.285095,814.687500 
	C928.341980,821.364563 932.519775,827.970337 936.760620,834.532532 
	C938.943909,837.910950 941.370789,841.131897 943.687622,844.424011 
	C943.424133,844.817749 943.160706,845.211487 942.897217,845.605225 
	C932.373596,842.087341 921.728577,838.891418 911.352600,834.981750 
	C892.102539,827.728516 873.838623,818.646301 858.323792,803.248291 
	C856.464844,807.625183 854.688049,811.312012 853.404602,815.163330 
	C853.064270,816.184875 853.884644,818.080139 854.779785,818.945801 
	C859.805603,823.806152 864.815186,828.720154 870.211121,833.152344 
	C879.025757,840.392761 888.133484,847.276367 897.618042,854.702332 
	C879.013794,850.740417 863.187683,842.119141 848.123230,830.646545 
	C847.636047,834.055664 847.414978,836.704224 846.857910,839.280090 
	C845.557861,845.290588 847.399292,849.556824 852.487183,853.346741 
	C861.731750,860.232849 870.746887,867.290161 882.189148,870.281494 
	C883.168640,870.537598 883.875427,871.837219 884.708923,872.652161 
	C883.608276,873.080566 882.510803,873.858948 881.406372,873.868896 
	C878.584473,873.894287 875.713013,873.839355 872.944275,873.348999 
	C864.014771,871.767395 855.122620,869.974915 846.224304,868.265320 
	C845.182434,878.135864 846.412781,881.039124 855.400574,884.850098 
	C863.952515,888.476135 872.886597,891.194458 881.594788,894.466003 
	C882.837769,894.932922 883.754700,896.267761 884.822571,897.200989 
	C883.469238,897.343689 881.950806,897.959717 880.788574,897.554382 
	C871.535339,894.327515 862.348328,890.910645 853.144836,887.541443 
	C851.885803,887.080444 850.648315,886.560791 848.887695,885.865723 
	C850.593689,893.034302 853.567261,898.080383 859.404053,901.775208 
	C889.965576,921.121338 923.416626,933.486328 958.025879,943.062866 
	C1012.415527,958.112793 1068.075439,964.262146 1124.291992,965.882324 
	C1167.127563,967.116821 1209.953491,965.579407 1252.504028,960.702515 
	C1290.333618,956.366699 1328.027344,950.666626 1365.643066,944.699219 
	C1395.057373,940.032959 1424.214600,933.901978 1451.815918,922.043579 
	C1473.244873,912.837036 1493.617798,902.037659 1509.360474,884.255066 
	C1519.930908,872.314941 1525.981445,858.437622 1524.788696,842.277283 
	C1523.616577,826.396179 1517.285156,812.322815 1507.468018,799.904602 
	C1493.954590,782.810608 1476.066650,775.496582 1454.890747,780.221436 
	C1442.874268,782.902527 1431.358521,788.359558 1420.030640,793.480652 
	C1398.350586,803.281677 1377.341919,814.642395 1355.387817,823.748718 
	C1288.988892,851.290344 1220.076782,868.743958 1148.082031,873.135254 
	C1110.817261,875.408142 1073.831055,873.664673 1037.324951,865.664551 
	C1022.616516,862.441345 1007.429199,860.126526 994.522827,851.397156 
	C986.112488,845.708862 977.882080,839.754578 969.030273,833.454102 
z"/>
<path fill="#F1757D" opacity="1.000000" stroke="none" 
	d="
M328.986328,695.354370 
	C345.346313,695.455444 361.711945,695.747925 378.540771,696.100586 
	C378.924042,697.178467 378.844116,698.196045 378.719269,699.590454 
	C375.781403,699.508301 375.992462,701.561951 375.864471,703.395325 
	C374.503693,722.887634 384.276733,739.921021 405.083649,741.340637 
	C405.890503,741.395691 406.680328,741.700684 409.088409,742.269714 
	C402.817627,749.251648 397.513031,755.926941 391.415466,761.775513 
	C381.003326,771.762695 368.873444,779.308105 355.542908,784.914124 
	C351.391510,786.659973 347.675201,786.513428 343.690216,784.204590 
	C326.006012,773.958679 312.606781,759.372131 301.000488,742.475342 
	C303.317780,741.764526 305.751709,741.370789 308.983429,740.981934 
	C317.208069,739.740173 322.269836,735.245483 325.886871,728.968628 
	C331.288330,719.595032 332.631744,709.325989 331.902618,698.735352 
	C331.833984,697.737732 330.037720,696.859131 329.043579,695.925232 
	C329.043579,695.925232 328.991943,695.545715 328.986328,695.354370 
z"/>
<path fill="#3B336D" opacity="1.000000" stroke="none" 
	d="
M1618.985596,787.533813 
	C1616.923584,785.661011 1614.456787,783.673157 1612.900757,781.128357 
	C1598.062134,756.861877 1580.030762,735.547058 1556.182739,719.648987 
	C1529.304443,701.730835 1499.865845,691.763855 1467.362427,690.921082 
	C1456.921875,690.650330 1448.271973,694.456482 1440.819336,700.819031 
	C1422.608398,716.366272 1404.912720,732.515198 1386.820435,748.203613 
	C1369.990967,762.796875 1353.044067,777.262451 1335.855835,791.428528 
	C1331.845215,794.734009 1326.851562,797.123474 1321.955933,799.019836 
	C1312.283936,802.766663 1304.171143,795.888977 1306.440796,785.760254 
	C1307.580200,780.674255 1309.440186,775.337402 1312.435425,771.162048 
	C1319.489136,761.329163 1327.373047,752.086975 1335.054688,742.715454 
	C1336.029663,741.526062 1337.804443,740.992371 1339.555420,740.174316 
	C1338.579102,742.390869 1337.426880,744.715027 1335.904297,746.763916 
	C1328.191406,757.142822 1320.104004,767.258789 1312.782959,777.903625 
	C1310.694092,780.940796 1310.114014,785.412048 1309.937866,789.275635 
	C1309.673950,795.067932 1314.359619,798.602234 1319.519775,796.154114 
	C1326.820801,792.690491 1334.359985,789.018127 1340.455566,783.851685 
	C1362.664062,765.027832 1384.211304,745.426208 1406.217041,726.359375 
	C1418.408325,715.796326 1431.015259,705.712891 1443.932617,695.052856 
	C1445.613037,693.872498 1446.795776,693.052612 1447.978516,692.232788 
	C1454.953613,688.016541 1462.817261,688.119690 1470.439453,688.354248 
	C1487.643921,688.883667 1504.406128,692.291687 1520.522461,698.359741 
	C1541.503296,706.259277 1560.485596,717.414612 1577.254272,732.535400 
	C1592.510010,746.291626 1605.152588,761.990967 1615.614258,779.547852 
	C1617.026123,781.917175 1617.887085,784.614868 1618.985596,787.533813 
z"/>
<path fill="#3A2F6A" opacity="1.000000" stroke="none" 
	d="
M1349.351562,733.933350 
	C1348.947510,733.189514 1348.827637,732.686951 1348.483276,732.045776 
	C1337.282715,709.587830 1319.772705,696.577026 1294.924072,692.734192 
	C1277.096558,689.977234 1259.267090,691.536682 1241.457886,690.721008 
	C1232.984009,690.332886 1224.520020,689.489807 1216.087158,688.537354 
	C1211.095703,687.973694 1206.155762,686.882629 1201.223511,685.876892 
	C1179.570801,681.461365 1165.673096,667.119141 1155.098511,649.001343 
	C1145.894287,633.231628 1140.529907,616.037964 1137.972290,597.946594 
	C1137.670288,595.809509 1136.548950,593.702393 1135.462036,591.776489 
	C1129.531250,581.268494 1126.499634,569.812256 1124.182861,558.104248 
	C1123.551758,554.914673 1122.582275,551.764404 1122.277344,548.547729 
	C1122.072021,546.382996 1122.761475,544.133423 1123.188110,541.531616 
	C1124.513184,544.839050 1126.118164,548.460266 1126.811157,552.248352 
	C1129.032959,564.391541 1131.709595,576.344421 1137.441528,587.428101 
	C1138.930786,590.307922 1140.446533,591.584595 1144.160522,591.719666 
	C1157.323364,592.198181 1168.127319,599.014404 1178.676392,606.109436 
	C1179.299072,606.528198 1179.418823,607.694824 1179.772705,608.513306 
	C1178.639282,608.508423 1177.293457,608.904114 1176.406738,608.433899 
	C1170.387695,605.242615 1164.673584,601.385559 1158.447632,598.702942 
	C1153.256592,596.466187 1147.501953,595.537354 1140.774536,593.694397 
	C1145.934570,622.988220 1153.973022,648.991638 1175.257324,668.892334 
	C1185.609497,678.571472 1198.203369,683.239136 1212.108154,685.025085 
	C1230.797852,687.425659 1249.490356,688.520569 1268.360962,687.617493 
	C1285.995483,686.773560 1303.342163,689.160583 1319.369629,697.008667 
	C1337.516357,705.894409 1348.926392,720.828918 1355.334229,739.756714 
	C1355.861694,741.314575 1355.795654,743.073425 1356.005249,744.738953 
	C1355.530029,744.875854 1355.054688,745.012756 1354.579468,745.149658 
	C1352.931641,741.491333 1351.283691,737.832947 1349.351562,733.933350 
z"/>
<path fill="#141518" opacity="1.000000" stroke="none" 
	d="
M261.410278,757.547668 
	C262.467224,761.327881 259.264648,761.392029 257.110077,762.033813 
	C240.088837,767.104065 223.037048,772.072937 205.972107,776.994873 
	C196.100998,779.841980 185.827087,781.653625 176.365860,785.488892 
	C153.354492,794.816833 140.078003,813.094482 134.298340,836.553223 
	C131.550552,847.705933 131.370850,859.484131 129.878632,870.959595 
	C129.578491,873.267822 128.604660,875.488342 127.588623,877.844482 
	C126.858391,876.882812 126.149529,875.824585 126.153580,874.769165 
	C126.209290,860.266418 125.998451,845.725220 131.068298,831.789673 
	C135.654648,819.182922 141.360397,807.000244 151.129410,797.713867 
	C161.071472,788.263123 172.874603,781.961121 186.647263,778.587036 
	C208.792358,773.161682 230.558487,766.190247 252.488312,759.884460 
	C255.311401,759.072754 258.155823,758.335083 261.410278,757.547668 
z"/>
<path fill="#101214" opacity="1.000000" stroke="none" 
	d="
M612.271118,877.725220 
	C610.958862,875.106567 609.792664,872.281860 608.997681,869.356201 
	C604.788208,853.864197 600.887878,838.285034 596.466675,822.854614 
	C591.436890,805.300049 578.640076,795.828979 562.090149,789.786072 
	C530.519531,778.258728 497.898529,770.703552 465.285492,763.044434 
	C462.059814,762.286865 458.764191,761.789429 455.588196,760.870178 
	C453.126740,760.157715 451.652924,758.878113 455.476105,757.151489 
	C470.848206,760.716553 485.939850,764.198730 500.936798,768.049744 
	C525.156189,774.268921 549.072632,781.413513 572.170776,791.174255 
	C585.955994,796.999695 594.342590,807.691589 598.713989,821.156433 
	C604.195496,838.040771 608.250061,855.390686 612.796814,872.572327 
	C613.196228,874.081604 612.679565,875.833374 612.271118,877.725220 
z"/>
<path fill="#3B366F" opacity="1.000000" stroke="none" 
	d="
M1281.971069,764.694214 
	C1272.415283,773.138245 1266.836182,783.982727 1262.943604,795.899475 
	C1262.236938,798.062439 1260.837036,799.999023 1259.380005,802.083374 
	C1259.196411,799.790405 1258.958740,797.316284 1259.654053,795.140320 
	C1263.958374,781.672363 1271.149658,769.824036 1281.429932,760.172729 
	C1293.449219,748.888916 1307.316772,740.536438 1323.512695,736.530029 
	C1324.942505,736.176331 1326.463257,736.189697 1328.349365,736.066406 
	C1329.642944,739.480652 1326.831421,739.168884 1324.996826,739.977478 
	C1315.188477,744.300659 1305.388672,748.645569 1295.650391,753.123291 
	C1294.235596,753.773804 1293.167969,755.179443 1291.514282,756.605835 
	C1288.049683,759.548767 1285.010376,762.121521 1281.971069,764.694214 
z"/>
<path fill="#1B1919" opacity="1.000000" stroke="none" 
	d="
M1447.584961,692.138062 
	C1446.795776,693.052612 1445.613037,693.872498 1444.181885,694.755859 
	C1433.724854,690.152893 1423.193237,686.068115 1413.408813,680.637329 
	C1405.483643,676.238586 1399.687744,669.182556 1396.077148,660.208252 
	C1396.274902,658.708923 1396.601685,657.556335 1396.928467,656.403809 
	C1397.708374,657.108765 1398.488037,657.813782 1399.517578,658.723877 
	C1403.388062,669.664001 1410.963623,677.255188 1420.650879,682.118896 
	C1429.043213,686.332458 1438.310669,688.802612 1447.584961,692.138062 
z"/>
<path fill="#FCFCFD" opacity="1.000000" stroke="none" 
	d="
M1461.215088,922.233765 
	C1472.133789,915.473633 1483.288696,908.988586 1494.781006,903.145996 
	C1496.093140,906.485168 1497.067871,909.181885 1498.042603,911.878662 
	C1485.845581,915.421997 1473.648560,918.965393 1461.215088,922.233765 
z"/>
<path fill="#3B3269" opacity="1.000000" stroke="none" 
	d="
M328.751740,696.236755 
	C330.037720,696.859131 331.833984,697.737732 331.902618,698.735352 
	C332.631744,709.325989 331.288330,719.595032 325.886871,728.968628 
	C322.269836,735.245483 317.208069,739.740173 309.395020,740.928406 
	C309.263794,739.860474 309.255737,738.153198 309.812164,737.943481 
	C324.030579,732.584229 328.346985,721.457153 328.004486,707.429138 
	C327.916077,703.808044 328.295441,700.175537 328.751740,696.236755 
z"/>
<path fill="#364396" opacity="1.000000" stroke="none" 
	d="
M1498.431396,911.887756 
	C1497.067871,909.181885 1496.093140,906.485168 1495.091064,903.389893 
	C1495.063843,902.991333 1495.031372,903.063660 1495.199829,902.975586 
	C1495.447021,902.760498 1495.622070,902.566956 1495.588257,902.517944 
	C1495.423828,902.280029 1495.203369,902.080811 1495.002808,901.867859 
	C1496.539185,900.627136 1498.075439,899.386414 1499.891602,898.105957 
	C1507.042725,900.290161 1508.375366,902.286926 1506.835449,908.554749 
	C1504.097534,909.905273 1501.458862,910.901062 1498.431396,911.887756 
z"/>
<path fill="#364396" opacity="1.000000" stroke="none" 
	d="
M1624.468872,846.717285 
	C1621.168213,844.312927 1620.245972,841.491455 1621.852539,837.880371 
	C1623.204346,834.841614 1625.339844,833.565613 1628.953857,834.312378 
	C1629.427979,834.773926 1629.554810,835.129395 1629.734253,835.991821 
	C1629.830444,836.671509 1629.873901,836.844116 1629.917480,837.016724 
	C1628.217651,840.262634 1626.517822,843.508545 1624.468872,846.717285 
z"/>
<path fill="#364396" opacity="1.000000" stroke="none" 
	d="
M1255.310913,852.476074 
	C1252.892456,853.531189 1250.361328,854.260193 1247.438721,854.993652 
	C1247.797119,852.759460 1248.546997,850.520752 1249.649780,848.160339 
	C1251.734497,849.409058 1253.466431,850.779419 1255.310913,852.476074 
z"/>
<path fill="#FEFEFF" opacity="1.000000" stroke="none" 
	d="
M1630.090332,836.926758 
	C1629.873901,836.844116 1629.830444,836.671509 1629.866943,836.244141 
	C1630.122803,836.164307 1630.313232,836.328186 1630.460571,836.524597 
	C1630.486816,836.559631 1630.333618,836.729248 1630.090332,836.926758 
z"/>
<path fill="#E16E7C" opacity="1.000000" stroke="none" 
	d="
M1479.929443,488.194031 
	C1468.120483,448.886353 1451.305298,412.486847 1425.945312,380.464172 
	C1385.752441,329.711548 1333.463501,297.941620 1270.745361,283.222443 
	C1257.201660,280.043884 1243.170898,278.943085 1229.368774,276.858185 
	C1227.785889,276.619080 1226.229248,276.205261 1224.660522,275.872467 
	C1224.605469,275.437317 1224.550415,275.002136 1224.495361,274.566986 
	C1226.035522,274.195007 1227.612671,273.386719 1229.110596,273.513733 
	C1298.632690,279.406555 1358.758301,306.109314 1407.901978,355.887024 
	C1440.128906,388.529755 1462.220703,427.602264 1477.124878,470.875275 
	C1489.275757,506.154205 1496.396851,542.453918 1499.759277,579.545349 
	C1499.940308,581.543030 1499.603271,583.587646 1498.552002,585.708740 
	C1493.875000,552.987061 1489.654297,520.262756 1479.929443,488.194031 
z"/>
<path fill="#E36F7C" opacity="1.000000" stroke="none" 
	d="
M1561.022461,475.057739 
	C1544.886108,436.301208 1525.762573,399.635406 1500.413574,366.465271 
	C1473.135864,330.771301 1440.700195,301.181396 1399.755615,281.687714 
	C1367.761597,266.455353 1334.017700,259.188507 1298.658325,260.334717 
	C1287.244995,260.704681 1275.897339,263.061462 1264.514648,264.467072 
	C1262.785278,264.680603 1261.027344,264.663452 1259.282715,264.752960 
	C1259.177856,264.152710 1259.073120,263.552490 1258.968384,262.952240 
	C1260.532349,262.444946 1262.065918,261.797180 1263.664917,261.451538 
	C1285.678345,256.692749 1307.903320,255.816879 1330.215698,258.507172 
	C1400.337646,266.961914 1453.862305,303.702637 1497.236572,357.318451 
	C1526.930176,394.023254 1548.490845,435.414886 1566.005615,479.041656 
	C1566.564209,480.432800 1566.510742,482.069672 1566.742432,483.592010 
	C1566.178467,483.755310 1565.614502,483.918579 1565.050537,484.081848 
	C1563.745361,481.195709 1562.440063,478.309570 1561.022461,475.057739 
z"/>
<path fill="#E06E7C" opacity="1.000000" stroke="none" 
	d="
M1236.022827,290.010742 
	C1227.216797,286.315308 1218.411377,282.618713 1209.604492,278.925232 
	C1207.384155,277.994019 1205.159546,277.072876 1202.936768,276.147095 
	C1203.097290,275.488129 1203.257812,274.829163 1203.418457,274.170166 
	C1205.559326,274.602295 1207.781860,274.797607 1209.828979,275.502197 
	C1239.401733,285.680206 1267.265869,299.455475 1293.762573,315.981903 
	C1348.946167,350.400879 1394.533081,394.494415 1427.830322,450.654510 
	C1441.437866,473.605438 1453.839111,497.298462 1459.244263,523.725708 
	C1461.113770,532.865723 1460.620972,542.509094 1460.929932,551.931641 
	C1460.994507,553.901917 1459.838501,555.912170 1458.832886,559.286621 
	C1458.035645,557.118225 1457.469849,556.370361 1457.561279,555.714050 
	C1460.867432,531.987732 1454.082886,510.267487 1444.641846,488.982788 
	C1413.251343,418.213013 1363.069580,363.872070 1298.187988,322.810211 
	C1279.260498,310.831451 1258.823730,301.236725 1239.066406,290.572205 
	C1238.348267,290.184509 1237.497681,290.041687 1236.348145,289.882202 
	C1235.987427,289.979706 1236.022827,290.010742 1236.022827,290.010742 
z"/>
<path fill="#E16E7C" opacity="1.000000" stroke="none" 
	d="
M1235.970215,289.963562 
	C1244.102783,300.653168 1252.332764,311.299011 1260.388672,322.074982 
	C1295.864380,369.529602 1327.745850,419.230042 1353.497925,472.680145 
	C1368.720215,504.274902 1381.192871,536.878357 1386.492920,571.775757 
	C1387.819214,580.507751 1387.946655,589.421753 1388.625122,598.252136 
	C1387.919189,598.368164 1387.213379,598.484131 1386.507446,598.600159 
	C1386.122314,597.018799 1385.452026,595.447876 1385.393555,593.854553 
	C1383.806763,550.643127 1369.031738,511.167755 1350.658203,472.836578 
	C1321.350586,411.694977 1283.034302,356.279114 1241.511719,302.953430 
	C1239.056152,299.799896 1236.447388,296.760223 1234.111084,293.522369 
	C1233.183105,292.236389 1231.394409,290.056183 1235.645752,290.079895 
	C1236.022827,290.010742 1235.987427,289.979706 1235.970215,289.963562 
z"/>
<path fill="#E16E7C" opacity="1.000000" stroke="none" 
	d="
M1302.430664,266.699677 
	C1348.702515,269.999481 1388.074585,287.783081 1421.296021,319.333527 
	C1451.881714,348.380890 1470.939209,384.466888 1484.599854,423.778839 
	C1485.888916,427.488800 1486.423462,431.460968 1487.308350,435.311432 
	C1486.810181,435.496368 1486.312012,435.681305 1485.813721,435.866241 
	C1484.850830,433.572205 1483.708984,431.335480 1482.952637,428.975250 
	C1474.894531,403.827667 1464.540405,379.749725 1449.894409,357.662079 
	C1417.997070,309.557251 1373.779541,280.332581 1316.614502,271.427643 
	C1306.642578,269.874237 1296.376709,270.217041 1286.248901,269.644897 
	C1284.783813,269.562103 1283.331055,269.258362 1281.898560,268.325989 
	C1288.413330,264.875885 1295.249512,266.427643 1302.430664,266.699677 
z"/>
<path fill="#E16E7C" opacity="1.000000" stroke="none" 
	d="
M1371.743530,424.225281 
	C1389.888428,457.560242 1410.504761,513.536133 1407.785645,523.896667 
	C1401.497070,504.665588 1396.500000,486.005737 1389.281494,468.248962 
	C1381.914795,450.127106 1373.425659,432.265198 1363.473022,415.446350 
	C1353.599243,398.760742 1342.101807,382.852234 1329.818481,367.827667 
	C1317.617798,352.904327 1303.551636,339.506073 1290.898560,324.442932 
	C1292.766846,325.665070 1294.807861,326.688202 1296.477539,328.139008 
	C1324.410400,352.412476 1346.692749,381.289673 1365.421997,413.041687 
	C1367.534912,416.623810 1369.507812,420.288422 1371.743530,424.225281 
z"/>
<path fill="#FEFEFE" opacity="1.000000" stroke="none" 
	d="
M321.759613,809.752197 
	C318.268219,813.351379 314.973511,816.648010 311.810059,820.066040 
	C307.152252,825.098572 303.689728,825.579102 297.816864,821.850830 
	C288.073608,815.665466 281.536224,806.725952 276.448883,796.636169 
	C269.796356,783.442200 266.286774,769.282898 263.932861,754.775085 
	C263.275238,750.721924 264.168549,747.216492 267.641479,745.211914 
	C273.633911,741.752747 279.764008,738.421448 286.146332,735.787720 
	C290.324341,734.063538 293.665588,736.350891 296.157349,740.168457 
	C305.959534,755.185852 317.397430,768.765991 331.892822,779.530640 
	C347.563934,791.168396 349.535553,791.388062 366.883972,782.349121 
	C386.818726,771.962585 402.836304,757.309143 414.431396,737.948425 
	C417.694733,732.499451 421.232086,730.970215 426.931915,733.797363 
	C434.931274,737.765076 442.624725,742.365845 450.338837,746.883911 
	C453.237549,748.581665 454.269104,751.328613 452.885956,754.624939 
	C445.570679,772.059204 439.459595,790.136475 430.607758,806.753174 
	C419.747437,827.140259 416.624023,826.604248 395.858185,820.239075 
	C382.377686,816.107056 370.375153,808.926208 359.420166,800.056580 
	C354.480225,796.056885 342.928070,794.522217 337.594025,797.927734 
	C332.154602,801.400574 327.188354,805.614502 321.759613,809.752197 
z"/>
<path fill="#2B2463" opacity="1.000000" stroke="none" 
	d="
M1144.439087,436.128235 
	C1145.110718,431.239777 1145.634521,426.658508 1146.825195,422.257660 
	C1147.497192,419.774261 1149.650024,418.735748 1151.639648,421.326385 
	C1157.597168,429.083435 1166.049438,432.753723 1174.835938,436.048798 
	C1177.927856,437.208282 1182.503418,437.981445 1181.634888,442.551361 
	C1180.776001,447.068420 1176.179810,447.079132 1172.654053,446.891510 
	C1166.559570,446.567261 1160.450684,445.831360 1154.445923,444.732056 
	C1149.837158,443.888336 1146.273926,441.158844 1144.439087,436.128235 
z"/>
<path fill="#2C2463" opacity="1.000000" stroke="none" 
	d="
M1169.774658,378.172424 
	C1165.837524,376.033417 1162.208496,374.087738 1158.579590,372.142059 
	C1158.541382,371.701996 1158.503296,371.261963 1158.465088,370.821899 
	C1161.660034,370.627258 1165.046021,369.649078 1168.016968,370.373199 
	C1181.088379,373.559174 1191.428955,380.979034 1199.125244,392.020020 
	C1199.870117,393.088593 1200.475952,394.349548 1200.782715,395.609711 
	C1201.638306,399.124481 1201.140259,402.987854 1197.589111,403.956665 
	C1195.763916,404.454590 1191.942871,402.067719 1190.837402,400.010010 
	C1185.884033,390.790466 1178.805054,383.848907 1169.774658,378.172424 
z"/>
<path fill="#3B2B64" opacity="1.000000" stroke="none" 
	d="
M1290.669922,483.880371 
	C1287.993774,484.687775 1285.293579,485.109070 1282.032471,485.617920 
	C1287.022827,495.640076 1289.677490,505.893158 1279.840942,514.811768 
	C1279.231445,514.666931 1278.621948,514.522034 1278.012451,514.377197 
	C1278.438965,513.031738 1278.536499,511.433685 1279.344604,510.381256 
	C1285.312012,502.610260 1285.304688,494.534393 1278.775269,487.253357 
	C1277.797485,486.163177 1274.935791,485.358215 1273.885254,485.988129 
	C1269.973145,488.334015 1266.470459,491.357666 1262.774170,494.072510 
	C1261.635620,494.908752 1260.369751,495.571350 1258.890747,495.854492 
	C1262.108887,484.919983 1279.834106,478.429535 1290.669922,483.880371 
z"/>
<path fill="#FEF5F0" opacity="1.000000" stroke="none" 
	d="
M945.955200,420.516907 
	C950.926086,420.569489 955.553345,420.450317 960.049438,421.160645 
	C961.482605,421.387054 963.288208,423.690552 963.565735,425.280609 
	C963.759644,426.391724 961.877869,428.242828 960.520386,429.179932 
	C955.369995,432.735321 950.011414,435.987518 944.816101,439.480042 
	C940.463501,442.406067 935.870789,440.336609 934.996704,434.926086 
	C933.819702,427.640411 936.861938,423.533875 945.955200,420.516907 
z"/>
<path fill="#FEF5F0" opacity="1.000000" stroke="none" 
	d="
M652.635620,426.597473 
	C650.445679,423.652740 651.750366,421.713959 653.967590,420.083374 
	C660.656860,415.163971 673.333191,414.957550 679.515320,420.674866 
	C682.040588,423.010284 683.551331,427.519989 683.682434,431.107788 
	C683.866638,436.147675 678.868469,438.222107 673.812683,435.988708 
	C666.858704,432.916779 659.893372,429.870728 652.635620,426.597473 
z"/>
<path fill="#F2767D" opacity="1.000000" stroke="none" 
	d="
M202.515259,556.388184 
	C199.221390,528.056152 199.725296,500.089813 201.977951,472.212463 
	C202.673264,463.607727 206.954559,455.352234 208.863449,446.774292 
	C213.551605,425.707245 217.814758,404.545624 222.393814,382.731598 
	C229.460602,383.446747 237.483795,384.461517 245.538467,385.031555 
	C262.134369,386.205994 278.735352,387.710175 295.355438,388.053253 
	C325.153656,388.668365 355.018036,389.687317 384.761322,388.391998 
	C418.134888,386.938568 451.418365,383.255615 484.711548,380.219025 
	C494.626221,379.314728 494.306854,378.837341 495.071259,388.519104 
	C497.004700,413.007568 502.701355,436.427246 515.345764,457.837067 
	C516.790588,460.283539 517.752441,463.399109 517.804993,466.225525 
	C518.452515,501.028473 519.038330,535.864441 514.840210,570.503357 
	C511.626312,597.021423 504.575684,622.286438 488.974182,644.665649 
	C470.733063,670.831116 445.828674,685.432739 414.461060,689.845337 
	C376.265198,695.218506 338.067413,695.885437 300.266632,687.808838 
	C264.726990,680.215271 238.947205,659.904114 223.535965,626.218994 
	C213.334656,603.921509 205.280762,581.259644 202.515259,556.388184 
M267.495087,464.992981 
	C279.551422,457.325256 291.152069,448.813324 305.279724,445.030029 
	C306.993561,444.571045 308.820343,443.653412 310.025909,442.400848 
	C311.518158,440.850433 312.416382,438.728363 313.571259,436.853302 
	C311.465576,436.347687 309.135651,434.997375 307.294037,435.486328 
	C300.253235,437.355743 293.166077,439.335724 286.473450,442.166290 
	C275.522003,446.798126 266.432281,453.996338 260.201538,464.352997 
	C259.300568,465.850555 258.949188,467.678741 258.343506,469.353943 
	C258.716919,469.608368 259.090363,469.862793 259.463776,470.117188 
	C261.938995,468.540192 264.414185,466.963165 267.495087,464.992981 
M412.474243,432.864410 
	C410.410065,433.503632 408.345886,434.142883 406.281708,434.782135 
	C407.878845,436.445831 409.287292,438.374969 411.133972,439.687653 
	C412.560883,440.701935 414.495850,441.197388 416.275879,441.486206 
	C425.569214,442.994202 433.403229,447.648865 441.076233,452.699768 
	C442.791748,453.829010 444.546509,454.898560 446.972717,456.431183 
	C446.845917,451.005737 444.420105,447.852875 441.270966,445.475830 
	C432.947144,439.192963 423.736450,434.704742 412.474243,432.864410 
M358.475311,613.038879 
	C368.204071,613.985352 377.932800,614.931763 387.661560,615.878235 
	C375.413025,607.917419 334.301697,607.312012 324.418365,616.087769 
	C335.551392,615.062683 346.541138,614.050842 358.475311,613.038879 
M310.862579,483.219299 
	C310.585815,481.777313 310.490540,480.269867 309.998291,478.905640 
	C308.517273,474.801025 305.279144,473.585144 301.284485,474.246246 
	C297.394684,474.889954 295.937531,477.426361 295.923370,481.318481 
	C295.908569,485.395386 297.156189,488.858307 301.143280,489.848297 
	C305.832306,491.012604 308.874725,488.132690 310.862579,483.219299 
M415.377960,491.377655 
	C421.059753,492.366730 425.175140,487.425049 423.417694,481.043823 
	C422.880188,479.092072 420.521362,476.440948 418.820831,476.304718 
	C416.528809,476.121155 413.244446,477.420654 411.844635,479.219055 
	C408.693359,483.267609 409.933746,486.968140 415.377960,491.377655 
M369.953949,537.910828 
	C368.867981,538.699829 367.327667,539.254944 366.779022,540.320557 
	C364.947632,543.877563 362.340942,546.086609 358.294556,546.374512 
	C353.943207,546.684143 350.367706,545.090881 348.108948,541.372131 
	C345.531158,537.128113 346.093658,532.796875 348.575897,528.626282 
	C349.466309,527.130188 350.304993,525.603394 351.718231,523.124084 
	C345.375122,525.672607 342.309723,531.960327 343.452820,537.858154 
	C344.763733,544.621826 350.479858,549.499512 357.127472,549.526917 
	C363.516388,549.553284 368.697937,545.195435 369.953949,537.910828 
z"/>
<path fill="#EF747D" opacity="1.000000" stroke="none" 
	d="
M188.693542,499.396362 
	C187.476501,494.853210 186.010727,490.351288 185.245850,485.733246 
	C185.087036,484.774323 187.410141,482.530212 188.790176,482.340759 
	C195.003738,481.487640 198.176788,484.738373 197.979401,491.023346 
	C197.624741,502.316040 197.220871,513.609314 197.086456,524.905273 
	C197.054367,527.602417 196.223236,528.773743 193.653381,529.338501 
	C185.544067,531.120605 179.204178,527.897400 174.174896,522.062561 
	C164.833954,511.225494 162.998505,486.546295 170.274124,474.261200 
	C175.882919,464.790588 185.585663,461.765747 193.291229,467.085541 
	C199.125031,471.113190 200.216461,474.931946 197.724594,482.597168 
	C186.316589,478.989105 179.614822,481.134003 176.630585,489.583038 
	C176.585938,490.052856 176.527405,490.292389 176.468872,490.531952 
	C176.643585,490.351685 176.818283,490.171417 176.992981,489.991150 
	C178.610840,488.244904 180.228699,486.498688 181.541031,485.082184 
	C183.466751,490.141022 185.318924,495.006653 187.618530,500.330719 
	C188.695282,500.944031 189.324646,501.098938 189.953995,501.253845 
	C189.533844,500.634674 189.113693,500.015533 188.693542,499.396362 
z"/>
<path fill="#EF757D" opacity="1.000000" stroke="none" 
	d="
M536.259155,476.635345 
	C531.033203,472.902832 526.273315,475.537964 520.872559,478.408752 
	C521.332458,473.117676 521.653076,468.547180 522.206665,464.005127 
	C522.290344,463.318268 523.410828,462.297028 524.132996,462.222961 
	C529.076599,461.715942 534.083862,460.841919 538.989929,461.197906 
	C545.671814,461.682709 550.565918,466.320648 551.453308,473.535370 
	C552.772766,484.263428 553.220032,495.143402 549.736023,505.653412 
	C546.717102,514.760498 539.312561,520.925232 531.526733,521.258484 
	C523.958435,521.582520 520.912537,518.956787 520.801636,511.461700 
	C520.668762,502.478333 520.770081,493.489380 520.906799,484.504944 
	C520.982849,479.510406 525.082031,476.800629 532.582336,477.383545 
	C534.136230,485.587677 533.105530,492.894989 529.593140,499.986023 
	C532.054016,496.967834 534.076721,493.749084 534.897217,490.248535 
	C535.835876,486.243561 535.706116,481.988159 536.322510,478.035065 
	C538.748779,480.718414 540.893188,483.208313 543.736267,486.509430 
	C542.901794,481.051971 541.044800,477.748199 536.230469,476.719574 
	C536.246582,476.694183 536.259155,476.635345 536.259155,476.635345 
z"/>
<path fill="#523267" opacity="1.000000" stroke="none" 
	d="
M536.040649,477.841583 
	C535.706116,481.988159 535.835876,486.243561 534.897217,490.248535 
	C534.076721,493.749084 532.054016,496.967834 529.593140,499.986023 
	C533.105530,492.894989 534.136230,485.587677 533.000977,477.478455 
	C533.795776,476.952423 534.621887,476.890076 535.853516,476.731537 
	C536.259155,476.635345 536.246582,476.694183 536.166870,476.992249 
	C536.071716,477.474060 536.056213,477.657806 536.040649,477.841583 
z"/>
<path fill="#303E94" opacity="1.000000" stroke="none" 
	d="
M1603.665283,809.659302 
	C1600.077148,810.854309 1596.626587,810.910950 1595.286255,807.382446 
	C1594.433228,805.136719 1594.368164,801.107727 1595.741089,799.877991 
	C1597.440796,798.355408 1601.471924,797.888611 1603.593506,798.885559 
	C1605.217896,799.648865 1605.778320,803.343750 1606.133789,805.831665 
	C1606.288940,806.918152 1604.749268,808.246887 1603.665283,809.659302 
z"/>
<path fill="#324096" opacity="1.000000" stroke="none" 
	d="
M1296.094238,799.804932 
	C1302.682617,798.578735 1306.626587,800.368469 1306.061768,804.512207 
	C1305.743042,806.850037 1303.789673,810.037415 1301.806030,810.771851 
	C1299.855591,811.494141 1296.190186,810.321716 1294.609741,808.690125 
	C1291.979370,805.974487 1292.842285,802.588501 1296.094238,799.804932 
z"/>
<path fill="#364396" opacity="1.000000" stroke="none" 
	d="
M1555.941895,852.229492 
	C1557.873779,856.614563 1556.322388,859.907104 1552.558960,860.856873 
	C1550.301758,861.426453 1546.490967,860.253906 1545.011841,858.492615 
	C1542.597168,855.617371 1544.090576,851.831360 1546.858398,849.707336 
	C1550.259644,847.097229 1553.398193,848.714600 1555.941895,852.229492 
z"/>
<path fill="#324096" opacity="1.000000" stroke="none" 
	d="
M1556.678711,756.818909 
	C1555.914307,761.597229 1552.516602,763.054749 1548.997559,762.346375 
	C1547.036011,761.951538 1544.331787,759.040833 1544.244385,757.158020 
	C1544.142090,754.953308 1545.988281,751.830444 1547.938599,750.534058 
	C1551.771606,747.986267 1555.390381,750.690369 1556.678711,756.818909 
z"/>
<path fill="#324096" opacity="1.000000" stroke="none" 
	d="
M1504.261230,702.786499 
	C1507.096191,707.981262 1506.224609,711.685120 1502.118652,713.395264 
	C1498.715088,714.812744 1494.885132,712.926697 1493.815186,708.686218 
	C1493.377075,706.950134 1493.870483,704.234985 1495.035522,702.991272 
	C1497.552368,700.304810 1500.852173,700.156738 1504.261230,702.786499 
z"/>
<path fill="#303E94" opacity="1.000000" stroke="none" 
	d="
M1451.594482,759.913818 
	C1448.825928,758.624756 1445.707642,757.782776 1444.337036,755.757751 
	C1443.489136,754.505249 1444.665771,750.897034 1446.047119,749.324951 
	C1448.970825,745.997803 1453.066162,746.499939 1455.339233,749.803284 
	C1457.836304,753.432007 1456.640015,757.017029 1451.594482,759.913818 
z"/>
<path fill="#364396" opacity="1.000000" stroke="none" 
	d="
M1282.305908,764.893616 
	C1285.010376,762.121521 1288.049683,759.548767 1291.439575,756.952515 
	C1292.841919,764.033691 1289.481934,767.031738 1282.305908,764.893616 
z"/>
<path fill="#F1767E" opacity="1.000000" stroke="none" 
	d="
M969.300659,833.686768 
	C977.882080,839.754578 986.112488,845.708862 994.522827,851.397156 
	C1007.429199,860.126526 1022.616516,862.441345 1037.324951,865.664551 
	C1073.831055,873.664673 1110.817261,875.408142 1148.082031,873.135254 
	C1220.076782,868.743958 1288.988892,851.290344 1355.387817,823.748718 
	C1377.341919,814.642395 1398.350586,803.281677 1420.030640,793.480652 
	C1431.358521,788.359558 1442.874268,782.902527 1454.890747,780.221436 
	C1476.066650,775.496582 1493.954590,782.810608 1507.468018,799.904602 
	C1517.285156,812.322815 1523.616577,826.396179 1524.788696,842.277283 
	C1525.981445,858.437622 1519.930908,872.314941 1509.360474,884.255066 
	C1493.617798,902.037659 1473.244873,912.837036 1451.815918,922.043579 
	C1424.214600,933.901978 1395.057373,940.032959 1365.643066,944.699219 
	C1328.027344,950.666626 1290.333618,956.366699 1252.504028,960.702515 
	C1209.953491,965.579407 1167.127563,967.116821 1124.291992,965.882324 
	C1068.075439,964.262146 1012.415527,958.112793 958.025879,943.062866 
	C923.416626,933.486328 889.965576,921.121338 859.404053,901.775208 
	C853.567261,898.080383 850.593689,893.034302 848.887695,885.865723 
	C850.648315,886.560791 851.885803,887.080444 853.144836,887.541443 
	C862.348328,890.910645 871.535339,894.327515 880.788574,897.554382 
	C881.950806,897.959717 883.469238,897.343689 884.822571,897.200928 
	C883.754700,896.267761 882.837769,894.932922 881.594788,894.466003 
	C872.886597,891.194458 863.952515,888.476135 855.400574,884.850098 
	C846.412781,881.039124 845.182434,878.135864 846.224304,868.265320 
	C855.122620,869.974915 864.014771,871.767395 872.944275,873.348999 
	C875.713013,873.839355 878.584473,873.894287 881.406372,873.868896 
	C882.510803,873.858948 883.608276,873.080566 884.708862,872.652100 
	C883.875427,871.837219 883.168640,870.537598 882.189148,870.281494 
	C870.746887,867.290161 861.731750,860.232849 852.487183,853.346741 
	C847.399292,849.556824 845.557861,845.290588 846.857910,839.280090 
	C847.414978,836.704224 847.636047,834.055664 848.123230,830.646545 
	C863.187683,842.119141 879.013794,850.740417 897.618042,854.702332 
	C888.133484,847.276367 879.025757,840.392761 870.211121,833.152344 
	C864.815186,828.720154 859.805603,823.806152 854.779785,818.945801 
	C853.884644,818.080139 853.064270,816.184875 853.404602,815.163330 
	C854.688049,811.312012 856.464844,807.625183 858.323792,803.248291 
	C873.838623,818.646301 892.102539,827.728516 911.352600,834.981750 
	C921.728577,838.891418 932.373596,842.087341 942.897217,845.605225 
	C943.160706,845.211487 943.424133,844.817749 943.687622,844.424011 
	C941.370789,841.131897 938.943909,837.910950 936.760620,834.532532 
	C932.519775,827.970337 928.341980,821.364563 924.285095,814.687500 
	C922.194397,811.246521 922.637939,808.366150 926.880920,806.877014 
	C927.346252,806.713684 927.755188,806.395996 928.203186,806.176147 
	C937.163635,801.779053 936.937073,802.180298 943.775879,809.349915 
	C951.799133,817.761292 960.578735,825.451233 969.300659,833.686768 
z"/>
<path fill="#FCFCFD" opacity="1.000000" stroke="none" 
	d="
M1494.755371,902.155396 
	C1495.203369,902.080811 1495.423828,902.280029 1495.588257,902.517944 
	C1495.622070,902.566956 1495.447021,902.760498 1495.160400,902.972717 
	C1494.804321,902.852966 1494.656128,902.648010 1494.755371,902.155396 
z"/>
<path fill="#2F2763" opacity="1.000000" stroke="none" 
	d="
M267.192261,465.189575 
	C264.414185,466.963165 261.938995,468.540192 259.463776,470.117188 
	C259.090363,469.862793 258.716919,469.608368 258.343506,469.353943 
	C258.949188,467.678741 259.300568,465.850555 260.201538,464.352997 
	C266.432281,453.996338 275.522003,446.798126 286.473450,442.166290 
	C293.166077,439.335724 300.253235,437.355743 307.294037,435.486328 
	C309.135651,434.997375 311.465576,436.347687 313.571228,436.853302 
	C312.416382,438.728363 311.518158,440.850433 310.025909,442.400848 
	C308.820343,443.653412 306.993561,444.571045 305.279724,445.030029 
	C291.152069,448.813324 279.551422,457.325256 267.192261,465.189575 
z"/>
<path fill="#322863" opacity="1.000000" stroke="none" 
	d="
M412.907135,432.910400 
	C423.736450,434.704742 432.947144,439.192963 441.270966,445.475830 
	C444.420105,447.852875 446.845917,451.005737 446.972717,456.431183 
	C444.546509,454.898560 442.791748,453.829010 441.076233,452.699768 
	C433.403229,447.648865 425.569214,442.994202 416.275879,441.486206 
	C414.495850,441.197388 412.560883,440.701935 411.133972,439.687653 
	C409.287292,438.374969 407.878845,436.445831 406.281708,434.782135 
	C408.345886,434.142883 410.410065,433.503632 412.907135,432.910400 
z"/>
<path fill="#3B2B64" opacity="1.000000" stroke="none" 
	d="
M358.003113,613.038940 
	C346.541138,614.050842 335.551392,615.062683 324.418365,616.087769 
	C334.301697,607.312012 375.413025,607.917419 387.661560,615.878235 
	C377.932800,614.931763 368.204071,613.985352 358.003113,613.038940 
z"/>
<path fill="#2F2763" opacity="1.000000" stroke="none" 
	d="
M310.803528,483.598877 
	C308.874725,488.132690 305.832306,491.012604 301.143280,489.848297 
	C297.156189,488.858307 295.908569,485.395386 295.923370,481.318481 
	C295.937531,477.426361 297.394684,474.889954 301.284485,474.246246 
	C305.279144,473.585144 308.517273,474.801025 309.998291,478.905640 
	C310.490540,480.269867 310.585815,481.777313 310.803528,483.598877 
z"/>
<path fill="#322863" opacity="1.000000" stroke="none" 
	d="
M415.052643,491.185852 
	C409.933746,486.968140 408.693359,483.267609 411.844635,479.219055 
	C413.244446,477.420654 416.528809,476.121155 418.820831,476.304718 
	C420.521362,476.440948 422.880188,479.092072 423.417694,481.043823 
	C425.175140,487.425049 421.059753,492.366730 415.052643,491.185852 
z"/>
<path fill="#3B2B64" opacity="1.000000" stroke="none" 
	d="
M369.986908,538.297485 
	C368.697937,545.195435 363.516388,549.553284 357.127472,549.526917 
	C350.479858,549.499512 344.763733,544.621826 343.452820,537.858154 
	C342.309723,531.960327 345.375122,525.672607 351.718231,523.124084 
	C350.304993,525.603394 349.466309,527.130188 348.575897,528.626282 
	C346.093658,532.796875 345.531158,537.128113 348.108948,541.372131 
	C350.367706,545.090881 353.943207,546.684143 358.294556,546.374512 
	C362.340942,546.086609 364.947632,543.877563 366.779022,540.320557 
	C367.327667,539.254944 368.867981,538.699829 369.986908,538.297485 
z"/>
<path fill="#2C2763" opacity="1.000000" stroke="none" 
	d="
M188.445435,499.601166 
	C189.113693,500.015533 189.533844,500.634674 189.953995,501.253845 
	C189.324646,501.098938 188.695282,500.944031 187.907532,500.528381 
	C187.898529,500.113708 188.047943,499.959839 188.445435,499.601166 
z"/>
<path fill="#2C2763" opacity="1.000000" stroke="none" 
	d="
M177.000473,490.000427 
	C176.818283,490.171417 176.643585,490.351685 176.468872,490.531952 
	C176.527405,490.292389 176.585938,490.052856 176.834564,489.923187 
	C177.024658,490.033081 177.007950,490.009735 177.000473,490.000427 
z"/>
<path fill="#2C2763" opacity="1.000000" stroke="none" 
	d="
M536.322510,478.035065 
	C536.056213,477.657806 536.071716,477.474060 536.150757,477.017639 
	C541.044800,477.748199 542.901794,481.051971 543.736267,486.509430 
	C540.893188,483.208313 538.748779,480.718414 536.322510,478.035065 
z"/>
</svg>