<svg version="1.1" id="Layer_1" xmlns="http://www.w3.org/2000/svg" xmlns:xlink="http://www.w3.org/1999/xlink" x="0px" y="0px"
	 width="100%" viewBox="0 0 1664 1082" enable-background="new 0 0 1664 1082" xml:space="preserve">
<path fill="#FEF7F2" opacity="1.000000" stroke="none" 
	d="
M1.000003,1044.000000 
	C1.000000,709.633911 1.000000,375.267883 1.353600,40.387978 
	C2.177698,39.252975 2.855652,38.700771 3.088404,38.000572 
	C9.180289,19.674145 21.301617,7.769223 40.157097,2.913640 
	C40.887241,2.725616 41.390839,1.657839 42.000000,1.000000 
	C569.032715,1.000000 1096.065430,1.000000 1623.619751,1.360470 
	C1624.619507,2.119441 1625.039429,2.743042 1625.584229,2.883899 
	C1644.136230,7.681362 1656.613037,18.978756 1662.682495,37.264198 
	C1663.031860,38.316616 1664.208374,39.094406 1665.000000,40.000004 
	C1665.000000,374.366058 1665.000000,708.732117 1664.644897,1043.612793 
	C1663.770752,1044.908325 1663.045654,1045.621338 1662.762817,1046.480225 
	C1656.816650,1064.539062 1644.702759,1076.038940 1626.342773,1081.020386 
	C1625.448730,1081.263062 1624.775879,1082.321533 1624.000000,1083.000000 
	C1096.633911,1083.000000 569.267883,1083.000000 41.381016,1082.640625 
	C40.382042,1081.881958 39.964382,1081.269775 39.416885,1081.114136 
	C22.155752,1076.204224 10.326283,1065.383789 3.806367,1048.668945 
	C3.155927,1047.001465 1.948804,1045.551147 1.000003,1044.000000 
M330.272156,679.888306 
	C330.272156,679.888306 330.664764,679.876587 330.471252,680.673767 
	C330.028473,686.556030 329.857758,692.474426 329.084259,698.312866 
	C327.636658,709.239319 323.692810,718.523682 311.950378,722.253906 
	C311.033722,722.545105 310.609467,724.386414 309.064362,725.671082 
	C306.653137,725.922363 304.241882,726.173645 301.275085,725.999451 
	C294.916138,716.520325 291.544373,715.313660 281.552551,719.259583 
	C278.494904,720.467102 275.526642,721.951843 272.641510,723.535522 
	C265.328552,727.549805 260.280396,732.901123 261.542419,742.142761 
	C238.184952,748.995361 214.951569,756.321655 191.414383,762.488281 
	C180.663040,765.305115 170.374893,768.580322 161.486023,775.203308 
	C140.087738,791.146973 130.266312,813.329590 128.164581,839.296692 
	C127.555145,846.826294 128.084763,854.448120 127.997879,862.745789 
	C136.032425,872.255005 146.725876,877.627197 158.089218,881.842834 
	C185.412872,891.979736 213.989655,896.402893 242.735474,899.734680 
	C283.918304,904.507996 325.307800,906.465759 366.730713,906.110596 
	C403.645325,905.794067 440.568878,904.547974 477.449188,902.855835 
	C505.695648,901.559753 533.715271,897.711975 561.222290,890.881042 
	C576.088745,887.189209 590.885071,882.977844 603.461182,873.805176 
	C607.281311,871.018860 609.847534,866.513489 613.621521,862.299194 
	C613.649048,859.994873 614.167847,857.567261 613.625122,855.406128 
	C609.869019,840.450623 606.172180,825.470093 601.916260,810.652710 
	C596.339172,791.235474 583.687134,778.875183 564.500366,771.890442 
	C529.401184,759.113159 493.401062,749.862061 456.882080,741.169312 
	C459.272400,735.373230 457.142792,730.908630 452.193390,727.999512 
	C444.481995,723.466980 436.651672,719.064636 428.557892,715.277954 
	C422.159515,712.284485 417.340149,714.423523 413.229156,720.395813 
	C412.377258,721.633423 410.564850,722.846680 409.120789,722.941772 
	C394.053375,723.933350 382.936798,714.877869 380.972412,700.003967 
	C380.303497,694.938965 380.202820,689.798828 379.931610,683.985168 
	C379.966217,683.015930 380.000824,682.046692 380.897064,680.887939 
	C394.756531,679.244202 408.736938,678.276794 422.451630,675.823730 
	C456.828918,669.674927 482.465576,651.089233 499.217377,620.246521 
	C512.900940,595.052856 519.537354,568.033997 520.967102,539.591064 
	C521.520752,528.577332 521.821899,517.550842 522.241638,506.435242 
	C536.133728,511.645172 547.437012,506.918243 552.646057,493.253723 
	C557.116455,481.526855 557.708130,469.178680 555.611450,456.889099 
	C554.282471,449.099457 549.153076,444.288727 541.207397,442.982727 
	C538.006531,442.456604 534.735718,442.355316 531.147705,442.028900 
	C539.508057,373.083160 513.076965,315.520020 471.949860,261.711487 
	C471.429230,270.413971 470.968994,278.107269 470.443573,286.889435 
	C458.797058,275.494202 452.620575,261.773529 444.721436,249.132004 
	C444.076538,260.550568 443.446320,271.709259 442.816101,282.867981 
	C442.122253,282.943878 441.428375,283.019745 440.734528,283.095642 
	C439.101929,277.953979 437.187714,272.880890 435.914154,267.651794 
	C434.580322,262.175629 433.772736,256.563568 432.900085,250.985107 
	C432.083588,245.765533 431.483185,240.512161 430.919403,236.266037 
	C426.219543,248.441071 421.275085,261.249664 415.940491,275.068909 
	C403.223206,259.572479 398.311249,241.663269 391.888184,225.433563 
	C386.518616,240.017365 380.964691,255.101929 374.983887,271.345978 
	C361.337769,256.088898 356.488983,238.156387 349.023315,220.638062 
	C344.850098,238.226242 336.001801,252.583664 326.962097,267.146820 
	C314.213043,257.889343 310.035217,244.079773 305.971344,230.880951 
	C298.075012,248.343948 290.177673,265.809204 281.925568,284.059021 
	C270.157288,271.757355 268.915955,256.151245 263.665314,241.566422 
	C260.982452,258.834076 260.536316,275.599060 253.509445,292.519623 
	C246.277069,281.162354 246.136490,269.364990 243.071762,257.478149 
	C237.568588,267.396240 232.441605,276.315826 227.617813,285.396454 
	C217.420105,304.593353 206.199585,323.302734 200.102127,344.439941 
	C192.117249,372.120026 190.568115,400.402618 191.563690,428.974792 
	C191.770523,434.910950 191.593704,440.860474 191.593704,446.795807 
	C178.738617,445.163696 169.992538,450.724731 166.051651,463.434998 
	C162.865143,473.712219 163.135208,484.152527 165.811661,494.474731 
	C170.277435,511.697754 180.600586,518.748840 198.058105,516.625305 
	C198.137726,517.433350 198.255432,518.234863 198.290497,519.040039 
	C199.635101,549.913208 205.740326,579.645020 219.147141,607.701416 
	C229.351303,629.055542 242.148132,648.260742 262.690491,661.105530 
	C281.970093,673.160645 303.569489,677.285645 326.454620,679.380310 
	C327.628937,679.463013 328.803223,679.545776 330.272156,679.888306 
M1548.842041,882.774109 
	C1549.022705,881.615112 1549.604248,880.346313 1549.321655,879.314148 
	C1546.651611,869.560486 1544.496216,859.598694 1540.953003,850.162231 
	C1517.204224,786.912170 1472.365845,747.495178 1406.414673,732.429138 
	C1399.435547,730.834778 1392.199707,730.362854 1384.936401,729.349792 
	C1384.936401,732.560181 1384.936401,734.636047 1384.936401,738.212097 
	C1371.997314,736.676453 1359.389282,735.873901 1347.082397,733.506714 
	C1336.668945,731.503662 1327.287354,726.476318 1320.827393,717.502686 
	C1314.273926,708.399231 1312.564575,698.329712 1314.824585,688.563660 
	C1343.809326,686.666504 1371.890259,685.291931 1399.880249,682.866882 
	C1428.252197,680.408630 1456.185669,675.128723 1483.172729,665.751587 
	C1498.959106,660.266235 1513.968262,653.173096 1526.470581,641.700134 
	C1532.470703,636.194153 1536.798218,630.256775 1536.860962,621.220642 
	C1537.145752,580.262756 1530.946533,540.380127 1518.228027,501.505035 
	C1489.001465,412.171936 1432.612549,344.018402 1355.124023,292.228119 
	C1340.200684,282.253937 1324.034668,280.204712 1306.920898,282.587524 
	C1285.695923,285.542725 1266.334106,293.788940 1247.210693,304.097504 
	C1246.579834,304.109039 1245.948853,304.120575 1244.452148,303.988037 
	C1232.457153,301.750549 1220.606812,302.638885 1208.884766,305.743591 
	C1184.868286,312.104675 1165.916138,326.339417 1149.414307,344.281158 
	C1129.926147,365.469940 1116.211426,390.330505 1104.180176,416.206177 
	C1078.126953,472.239227 1059.903687,530.398010 1055.437866,592.474426 
	C1054.645020,603.495911 1058.103760,611.783081 1064.990723,619.581116 
	C1075.973633,632.017029 1089.425537,641.156006 1104.054688,648.528870 
	C1114.642822,653.865234 1125.687378,658.295898 1136.030518,662.908386 
	C1142.230469,647.370117 1148.004028,632.900146 1153.777588,618.430176 
	C1154.333496,618.590027 1154.889282,618.749878 1155.445190,618.909668 
	C1155.537964,619.830078 1155.628052,620.750671 1155.723877,621.670715 
	C1157.134521,635.223511 1158.681641,648.764099 1159.896606,662.334412 
	C1160.455933,668.582153 1163.693115,672.132812 1169.570801,673.232422 
	C1187.350952,676.558472 1205.091919,680.209656 1222.985229,682.778259 
	C1236.763550,684.756042 1250.749268,685.290039 1264.643921,686.453308 
	C1265.529907,695.037048 1262.403442,704.961548 1256.347778,712.266357 
	C1246.701782,723.902161 1233.524292,728.957520 1219.295166,732.105835 
	C1216.811890,732.655334 1214.478394,733.882202 1211.211182,734.903870 
	C1206.714355,735.631348 1202.217651,736.358765 1197.205200,736.475708 
	C1196.963013,734.062317 1196.720947,731.648865 1196.444946,728.898376 
	C1171.767212,735.437073 1148.654297,744.433655 1127.166016,757.299500 
	C1095.689941,776.145508 1070.550659,800.972229 1056.679199,835.522095 
	C1052.518188,845.886230 1050.566772,857.161865 1047.983887,868.109802 
	C1047.586060,869.796082 1049.248169,871.968384 1050.402588,874.505920 
	C1051.448975,874.987000 1052.450317,875.645264 1053.548096,875.923340 
	C1085.329590,883.973267 1117.446899,890.261292 1150.029297,894.030273 
	C1173.498779,896.745117 1196.950562,899.683899 1220.471436,901.859619 
	C1237.777344,903.460510 1255.176392,904.689758 1272.544556,904.837463 
	C1301.639893,905.084961 1330.750732,904.622925 1359.841675,903.912781 
	C1380.378662,903.411438 1400.907593,902.227112 1421.413818,900.930359 
	C1436.258423,899.991638 1451.112793,898.792114 1465.867798,896.948730 
	C1486.845337,894.327942 1507.764771,891.193604 1528.646118,887.881470 
	C1535.239990,886.835510 1541.632080,884.515869 1548.842041,882.774109 
M883.805054,498.531982 
	C891.981262,515.972900 897.192688,519.623474 912.797302,518.701355 
	C912.901611,519.318359 913.065979,519.951355 913.108643,520.592468 
	C914.101746,535.503113 914.978821,550.422424 916.095947,565.323730 
	C917.019714,577.645630 920.537842,580.087036 932.899902,577.481079 
	C933.061951,577.446899 933.219421,577.385376 933.374573,577.325195 
	C939.155029,575.082458 944.934998,572.838257 951.040527,570.467834 
	C951.270447,571.297791 951.912109,572.396606 951.802429,573.414368 
	C951.049683,580.399597 948.286377,586.436340 941.730347,589.592346 
	C937.598633,591.581299 932.994629,592.680237 928.511719,593.822388 
	C924.307129,594.893677 922.463318,597.494141 923.388184,601.486511 
	C928.906189,625.308411 936.842041,648.198975 951.258423,668.267212 
	C963.188171,684.874023 978.058350,697.718872 998.343750,703.295471 
	C1002.483276,704.433472 1004.625305,703.998779 1005.086975,699.261108 
	C1005.488037,695.145752 1006.455078,691.083069 1007.219666,687.005981 
	C1015.207336,644.409790 1021.791138,601.607849 1025.024658,558.366699 
	C1026.968750,532.367004 1028.976196,506.337341 1029.639282,480.287659 
	C1030.163086,459.704651 1029.351685,439.023468 1027.908325,418.471863 
	C1026.317017,395.812866 1023.986511,373.157745 1020.768860,350.673950 
	C1017.281433,326.304932 1011.195435,302.438141 1002.519226,279.329010 
	C1000.318542,273.467377 997.563843,267.813782 994.993652,261.903412 
	C979.118835,267.694580 965.567566,275.972870 953.717651,286.905792 
	C935.745605,303.487091 924.146973,324.027679 917.436462,347.374908 
	C914.257568,358.434723 911.484619,369.862396 913.310181,381.310638 
	C916.876099,403.672913 915.978271,426.104553 915.971802,448.547791 
	C915.970520,453.087463 914.158630,456.446136 910.026917,458.693573 
	C904.477112,461.712402 898.795593,464.622070 893.694336,468.304199 
	C883.847412,475.411865 877.711548,483.736786 883.805054,498.531982 
M713.456299,519.070740 
	C717.144409,517.397705 721.878601,516.634033 724.294495,513.855042 
	C728.792847,508.680420 732.795776,502.691589 735.446228,496.386444 
	C739.175232,487.515472 737.422485,478.841309 729.805542,472.389496 
	C725.269531,468.547272 720.378723,464.776703 715.028564,462.323792 
	C706.866394,458.581757 701.915710,454.067657 702.528992,444.021027 
	C703.508667,427.972290 702.538757,411.794830 703.734802,395.771942 
	C704.761597,382.017120 706.376099,368.491180 703.026367,354.802612 
	C692.837769,313.167877 669.687988,282.146179 629.977539,264.448700 
	C625.419312,262.417297 622.797668,263.315460 620.917725,267.947937 
	C617.605103,276.110779 614.050598,284.216797 611.401550,292.600708 
	C596.265930,340.503662 590.832642,389.954193 589.248108,439.865204 
	C588.054993,477.447754 589.156067,515.029663 592.938293,552.483276 
	C594.955383,572.457947 596.461487,592.510681 599.310181,612.368652 
	C603.312744,640.270630 608.324890,668.028320 612.960754,695.838440 
	C614.145447,702.945129 616.724792,704.416931 623.753906,702.205261 
	C639.377808,697.289185 651.575317,687.476379 661.912537,675.143005 
	C679.239380,654.470276 688.241272,629.933716 694.471191,604.156921 
	C695.632507,599.351562 693.012756,596.159973 688.231689,596.518188 
	C678.976135,597.211792 671.648865,593.482971 666.106506,586.436890 
	C662.414185,581.742737 660.479065,576.249634 661.717285,569.315063 
	C664.029358,570.518738 665.553162,571.514160 667.215576,572.142700 
	C674.463074,574.882812 681.602661,578.081726 689.063721,580.036621 
	C697.287415,582.191345 701.109436,579.206909 701.826538,570.888855 
	C703.081177,556.336060 704.089111,541.760254 705.032349,527.183228 
	C705.428650,521.058472 706.534851,519.647888 713.456299,519.070740 
z"/>
<path fill="#FFFDFD" opacity="1.000000" stroke="none" 
	d="
M41.531342,1.000000 
	C41.390839,1.657839 40.887241,2.725616 40.157097,2.913640 
	C21.301617,7.769223 9.180289,19.674145 3.088404,38.000572 
	C2.855652,38.700771 2.177698,39.252975 1.353600,39.937073 
	C1.000000,27.071510 1.000000,14.143023 1.000000,1.000000 
	C14.353462,1.000000 27.708073,1.000000 41.531342,1.000000 
z"/>
<path fill="#FFFFFF" opacity="1.000000" stroke="none" 
	d="
M1665.000000,39.531345 
	C1664.208374,39.094406 1663.031860,38.316616 1662.682495,37.264198 
	C1656.613037,18.978756 1644.136230,7.681362 1625.584229,2.883899 
	C1625.039429,2.743042 1624.619507,2.119441 1624.070679,1.360470 
	C1637.591431,1.000000 1651.182983,1.000000 1665.000000,1.000000 
	C1665.000000,13.686670 1665.000000,26.374678 1665.000000,39.531345 
z"/>
<path fill="#FFFFFF" opacity="1.000000" stroke="none" 
	d="
M1624.468628,1083.000000 
	C1624.775879,1082.321533 1625.448730,1081.263062 1626.342773,1081.020386 
	C1644.702759,1076.038940 1656.816650,1064.539062 1662.762817,1046.480225 
	C1663.045654,1045.621338 1663.770752,1044.908325 1664.644897,1044.063721 
	C1665.000000,1056.928467 1665.000000,1069.857056 1665.000000,1083.000000 
	C1651.646484,1083.000000 1638.291870,1083.000000 1624.468628,1083.000000 
z"/>
<path fill="#FFFFFF" opacity="1.000000" stroke="none" 
	d="
M1.000003,1044.468628 
	C1.948804,1045.551147 3.155927,1047.001465 3.806367,1048.668945 
	C10.326283,1065.383789 22.155752,1076.204224 39.416885,1081.114136 
	C39.964382,1081.269775 40.382042,1081.881958 40.930111,1082.640625 
	C27.740934,1083.000000 14.481870,1083.000000 1.000000,1083.000000 
	C1.000000,1070.313232 1.000000,1057.625244 1.000003,1044.468628 
z"/>
<path fill="#282363" opacity="1.000000" stroke="none" 
	d="
M1212.075684,734.796204 
	C1214.478394,733.882202 1216.811890,732.655334 1219.295166,732.105835 
	C1233.524292,728.957520 1246.701782,723.902161 1256.347778,712.266357 
	C1262.403442,704.961548 1265.529907,695.037048 1264.643311,686.459717 
	C1250.749268,685.290039 1236.763550,684.756042 1222.985229,682.778259 
	C1205.091919,680.209656 1187.350952,676.558472 1169.570801,673.232422 
	C1163.693115,672.132812 1160.455933,668.582153 1159.896606,662.334412 
	C1158.681641,648.764099 1157.134521,635.223511 1155.723877,621.670715 
	C1155.628052,620.750671 1155.537964,619.830078 1155.445190,618.909668 
	C1154.889282,618.749878 1154.333496,618.590027 1153.777588,618.430176 
	C1148.004028,632.900146 1142.230469,647.370117 1136.030518,662.908386 
	C1125.687378,658.295898 1114.642822,653.865234 1104.054688,648.528870 
	C1089.425537,641.156006 1075.973633,632.017029 1064.990723,619.581116 
	C1058.103760,611.783081 1054.645020,603.495911 1055.437866,592.474426 
	C1059.903687,530.398010 1078.126953,472.239227 1104.180176,416.206177 
	C1116.211426,390.330505 1129.926147,365.469940 1149.414307,344.281158 
	C1165.916138,326.339417 1184.868286,312.104675 1208.884766,305.743591 
	C1220.606812,302.638885 1232.457153,301.750549 1244.707642,304.361267 
	C1242.461548,306.930695 1239.891357,309.054047 1237.468384,311.333801 
	C1179.707886,365.678650 1139.011597,430.689423 1116.063843,506.625854 
	C1106.496338,538.285828 1101.014160,570.718262 1100.170166,603.850830 
	C1100.120605,605.793091 1100.607788,607.748962 1101.016113,611.102539 
	C1102.075928,609.061646 1102.542969,608.512329 1102.640869,607.903687 
	C1102.877075,606.433899 1102.909668,604.932861 1103.078979,603.450623 
	C1105.474365,582.477600 1106.444336,561.221497 1110.532837,540.583313 
	C1126.853149,458.198547 1167.163574,388.423126 1224.925049,328.216766 
	C1226.000244,327.096069 1227.938843,326.803650 1229.178223,326.497223 
	C1199.324219,369.578949 1175.577393,415.125977 1161.334961,465.305450 
	C1158.894165,473.904266 1157.578857,482.978851 1154.018799,491.075256 
	C1141.625977,519.259521 1128.956787,547.299744 1120.692627,577.069336 
	C1116.940552,590.584656 1113.878174,604.220093 1115.049072,618.387939 
	C1115.285522,621.250000 1116.347534,624.043884 1117.028931,626.869202 
	C1117.513916,626.762817 1117.998901,626.656494 1118.484009,626.550171 
	C1118.605591,625.788269 1118.937866,624.991272 1118.817871,624.269592 
	C1116.239502,608.772705 1119.048096,593.735291 1123.078613,578.916565 
	C1132.285767,545.066772 1145.646606,512.724670 1161.791016,481.730682 
	C1184.385376,438.353638 1208.359497,395.695343 1231.716064,352.714752 
	C1232.688843,350.924713 1233.386108,348.985016 1234.211792,347.115051 
	C1233.476440,346.777649 1232.741089,346.440247 1232.005737,346.102875 
	C1207.638550,386.051422 1185.458252,427.239777 1164.034546,468.926056 
	C1164.219238,465.899994 1164.897949,463.097076 1165.671631,460.320679 
	C1175.905029,423.602478 1192.868896,389.961761 1212.785889,357.697296 
	C1218.555176,348.351379 1224.741089,339.263428 1230.631836,329.990997 
	C1231.503174,328.619446 1234.649658,326.029480 1229.312256,325.779907 
	C1229.971924,324.066895 1230.635010,322.514404 1231.751587,321.427979 
	C1235.921143,317.370575 1240.333008,313.559845 1244.450684,309.452667 
	C1245.879883,308.027069 1246.718018,306.009033 1247.826172,304.261566 
	C1266.334106,293.788940 1285.695923,285.542725 1306.920898,282.587524 
	C1324.034668,280.204712 1340.200684,282.253937 1355.124023,292.228119 
	C1432.612549,344.018402 1489.001465,412.171936 1518.228027,501.505035 
	C1530.946533,540.380127 1537.145752,580.262756 1536.860962,621.220642 
	C1536.798218,630.256775 1532.470703,636.194153 1526.470581,641.700134 
	C1513.968262,653.173096 1498.959106,660.266235 1483.172729,665.751587 
	C1456.185669,675.128723 1428.252197,680.408630 1399.880249,682.866882 
	C1371.890259,685.291931 1343.809326,686.666504 1314.824585,688.563660 
	C1312.564575,698.329712 1314.273926,708.399231 1320.827393,717.502686 
	C1327.287354,726.476318 1336.668945,731.503662 1347.082397,733.506714 
	C1359.389282,735.873901 1371.997314,736.676453 1384.936401,738.212097 
	C1384.936401,734.636047 1384.936401,732.560181 1384.936401,729.349792 
	C1392.199707,730.362854 1399.435547,730.834778 1406.414673,732.429138 
	C1472.365845,747.495178 1517.204224,786.912170 1540.953003,850.162231 
	C1544.496216,859.598694 1546.651611,869.560486 1549.321655,879.314148 
	C1549.604248,880.346313 1549.022705,881.615112 1548.442017,882.409668 
	C1546.341064,876.496826 1544.653687,870.944275 1542.937012,865.400635 
	C1523.775024,803.515686 1485.658203,759.623596 1422.767456,739.652588 
	C1411.663574,736.126465 1400.033081,734.258789 1387.941650,731.462402 
	C1387.941650,741.151306 1388.689087,749.332642 1387.807495,757.334595 
	C1384.611694,786.342773 1369.999512,806.977356 1341.941895,816.939941 
	C1322.362915,823.892090 1302.092773,824.428650 1281.777710,821.840698 
	C1243.796997,817.002075 1216.028809,797.825867 1201.209961,761.904968 
	C1197.467163,752.832153 1195.499146,743.027039 1192.592285,733.139099 
	C1185.009888,735.676086 1176.901489,738.106323 1168.999634,741.084290 
	C1141.675171,751.382446 1116.454956,765.260925 1095.157593,785.573181 
	C1069.812256,809.745911 1054.465820,839.066223 1049.957520,873.915894 
	C1049.248169,871.968384 1047.586060,869.796082 1047.983887,868.109802 
	C1050.566772,857.161865 1052.518188,845.886230 1056.679199,835.522095 
	C1070.550659,800.972229 1095.689941,776.145508 1127.166016,757.299500 
	C1148.654297,744.433655 1171.767212,735.437073 1196.444946,728.898376 
	C1196.720947,731.648865 1196.963013,734.062317 1197.477295,737.205994 
	C1202.623047,766.221130 1215.531250,789.890808 1240.566895,804.681885 
	C1273.368042,824.060913 1308.741455,825.607178 1344.117188,813.207031 
	C1378.038330,801.316833 1388.144409,767.180359 1385.381104,740.002380 
	C1382.980225,740.002380 1380.522217,740.027283 1378.064697,739.998169 
	C1364.849854,739.841431 1351.828125,738.451111 1339.323853,733.832703 
	C1322.292358,727.542175 1308.747192,714.548889 1310.948242,691.477112 
	C1311.068359,690.218323 1310.963867,688.938171 1310.963867,687.018188 
	C1296.607666,687.018188 1282.702148,687.018188 1268.668213,687.018188 
	C1268.630981,687.089111 1268.394409,687.364319 1268.346191,687.669312 
	C1268.242676,688.323547 1268.193604,688.993469 1268.197388,689.656494 
	C1268.253418,699.515503 1264.361572,707.786560 1257.822998,714.894531 
	C1246.589355,727.106567 1231.810913,732.429138 1216.154053,735.870850 
	C1214.932373,736.139343 1213.441406,735.183167 1212.075684,734.796204 
M1261.789673,445.094940 
	C1264.069336,402.917419 1268.057617,360.803436 1266.730713,318.491943 
	C1261.515137,360.848328 1260.860840,403.425903 1260.032959,446.907837 
	C1258.818481,469.988312 1257.080322,493.056061 1256.520996,516.152405 
	C1255.804565,545.736694 1255.824585,575.345032 1255.965576,604.940857 
	C1256.021484,616.679077 1257.252808,628.411682 1257.948975,640.146851 
	C1259.019897,638.117737 1258.999634,636.133484 1259.023315,634.149780 
	C1259.213257,618.179993 1259.388672,602.209900 1259.611572,586.240540 
	C1260.263916,539.497314 1260.936279,492.754364 1261.789673,445.094940 
M1397.025269,619.468567 
	C1394.859497,608.535767 1392.891602,597.559448 1390.494995,586.677490 
	C1377.447144,527.433838 1357.205811,470.659821 1331.397705,415.830688 
	C1314.140503,379.168152 1294.203125,344.020721 1271.229248,310.621643 
	C1269.738525,308.454468 1267.926758,306.508087 1266.264282,304.458984 
	C1265.667725,304.885742 1265.071167,305.312500 1264.474487,305.739227 
	C1265.715210,307.858215 1266.833740,310.060547 1268.214233,312.084106 
	C1311.736206,375.882874 1345.283936,444.583710 1369.201294,517.982483 
	C1383.000366,560.329895 1392.415283,603.676147 1398.024780,647.857605 
	C1398.302246,650.041870 1399.128296,652.156616 1399.698853,654.303711 
	C1400.385986,654.142517 1401.073120,653.981323 1401.760132,653.820129 
	C1400.205444,642.659058 1398.650879,631.497986 1397.025269,619.468567 
M1402.854858,474.709534 
	C1411.055664,494.535400 1420.072632,514.072510 1427.219116,534.271423 
	C1433.862183,553.047424 1438.494873,572.533630 1444.057983,591.693970 
	C1444.777344,594.171753 1445.767700,596.570801 1446.632568,599.006348 
	C1447.139038,598.843018 1447.645630,598.679626 1448.152222,598.516296 
	C1447.974854,596.730591 1448.004150,594.894653 1447.584839,593.167725 
	C1445.661133,585.245605 1443.833130,577.290100 1441.573608,569.461243 
	C1419.093994,491.570709 1382.637695,420.788147 1332.307129,357.309937 
	C1318.782837,340.252716 1303.490601,324.594208 1288.921265,308.373352 
	C1287.489502,306.779358 1285.432129,305.747131 1283.665161,304.454193 
	C1283.155151,305.007233 1282.645142,305.560272 1282.135132,306.113342 
	C1331.901367,355.249847 1371.732910,411.433350 1402.854858,474.709534 
M1324.740234,590.761414 
	C1320.858887,567.293091 1317.447998,543.735413 1313.005493,520.373840 
	C1301.197876,458.284241 1288.952881,396.277863 1276.826538,334.249176 
	C1276.520386,332.682861 1275.572266,331.242065 1274.923584,329.742767 
	C1274.418091,329.865082 1273.912598,329.987396 1273.406982,330.109711 
	C1273.495483,331.760193 1273.383179,333.450562 1273.701660,335.055450 
	C1286.325806,398.685913 1299.579590,462.198792 1311.443726,525.970215 
	C1319.593994,569.780029 1327.254517,613.771362 1327.930176,658.568726 
	C1327.947144,659.697449 1328.481079,660.818298 1328.773804,661.942810 
	C1329.352417,661.893066 1329.931030,661.843323 1330.509644,661.793579 
	C1330.509644,654.769775 1331.054565,647.694763 1330.400513,640.732422 
	C1328.860474,624.338867 1326.748779,607.998962 1324.740234,590.761414 
M1113.307495,430.901093 
	C1132.499023,394.554230 1156.035767,361.293304 1185.284790,332.089020 
	C1184.487305,331.517090 1183.689819,330.945129 1182.892334,330.373199 
	C1150.411865,361.534851 1125.639893,398.378510 1106.252075,438.898163 
	C1080.469360,492.782593 1065.550049,549.511597 1063.774902,609.383911 
	C1067.396118,589.303406 1069.122070,568.832153 1073.098511,548.807861 
	C1077.138672,528.462952 1082.286377,508.178070 1089.000366,488.569183 
	C1095.661865,469.113647 1104.878906,450.533203 1113.307495,430.901093 
M1424.079590,441.394287 
	C1422.506470,438.652130 1420.962769,435.892609 1419.355713,433.170502 
	C1397.005127,395.313690 1371.157959,360.104706 1340.176392,328.799438 
	C1338.869507,327.478790 1337.142944,326.573578 1335.611938,325.474823 
	C1335.235352,325.924988 1334.858887,326.375122 1334.482422,326.825256 
	C1335.420288,328.059631 1336.240845,329.407959 1337.312988,330.511963 
	C1385.867188,380.508911 1423.622559,437.677368 1451.185303,501.648193 
	C1462.667114,528.296753 1471.471191,555.828308 1478.852905,583.850586 
	C1479.341309,585.704346 1480.341187,587.423340 1481.103027,589.204956 
	C1481.714844,588.924805 1482.326660,588.644653 1482.938477,588.364441 
	C1470.605957,536.781128 1450.555298,488.222504 1424.079590,441.394287 
M1182.474243,543.909851 
	C1178.724731,564.675415 1173.372070,585.286255 1176.160400,606.701416 
	C1177.357178,604.972778 1177.675415,603.141174 1177.862061,601.296326 
	C1179.149292,588.565918 1179.216919,575.574585 1181.906616,563.149963 
	C1189.220215,529.367676 1196.425659,495.478088 1205.909424,462.269440 
	C1219.696411,413.992767 1235.447998,366.277283 1250.330688,318.312836 
	C1250.939575,316.350647 1251.229980,314.289520 1251.668701,312.274445 
	C1251.023560,312.086823 1250.378540,311.899231 1249.733398,311.711639 
	C1248.837646,313.716583 1247.733521,315.655823 1247.077148,317.736267 
	C1236.418457,351.514404 1225.057373,385.095123 1215.397217,419.157806 
	C1203.741577,460.256500 1193.539551,501.767487 1182.474243,543.909851 
M1420.725830,379.790253 
	C1428.793457,391.006409 1437.221436,401.984741 1444.828125,413.505280 
	C1452.521606,425.157288 1459.857422,437.099182 1466.508057,449.370422 
	C1472.934326,461.227783 1478.287354,473.666901 1484.111816,485.850464 
	C1484.636353,485.633850 1485.160889,485.417206 1485.685425,485.200592 
	C1485.084839,483.081787 1484.827393,480.784119 1483.830444,478.872009 
	C1474.532593,461.039612 1466.044800,442.692719 1455.476440,425.638824 
	C1442.961426,405.443726 1428.645752,386.362579 1415.018311,366.863068 
	C1414.052612,365.481201 1412.328369,364.629425 1410.956787,363.531189 
	C1410.506470,364.037384 1410.056152,364.543610 1409.605835,365.049805 
	C1413.165771,369.774353 1416.725586,374.498871 1420.725830,379.790253 
z"/>
<path fill="#2A2662" opacity="1.000000" stroke="none" 
	d="
M262.362061,742.144348 
	C260.280396,732.901123 265.328552,727.549805 272.641510,723.535522 
	C275.526642,721.951843 278.494904,720.467102 281.552551,719.259583 
	C291.544373,715.313660 294.916138,716.520325 301.619812,726.531311 
	C313.307312,743.537231 326.551880,758.032898 343.964600,768.389221 
	C348.580048,771.134216 352.698334,771.383911 357.587402,769.187683 
	C371.232483,763.058228 383.747986,755.251404 394.334961,744.677917 
	C399.760071,739.259827 404.512543,733.168213 409.951233,726.943542 
	C408.182556,726.350220 407.740234,726.092529 407.283783,726.064453 
	C382.568176,724.542114 375.596222,704.193604 377.069824,688.164551 
	C377.183075,686.932800 378.881104,685.846802 379.842499,684.693054 
	C380.202820,689.798828 380.303497,694.938965 380.972412,700.003967 
	C382.936798,714.877869 394.053375,723.933350 409.120789,722.941772 
	C410.564850,722.846680 412.377258,721.633423 413.229156,720.395813 
	C417.340149,714.423523 422.159515,712.284485 428.557892,715.277954 
	C436.651672,719.064636 444.481995,723.466980 452.193390,727.999512 
	C457.142792,730.908630 459.272400,735.373230 456.579254,741.644531 
	C453.203033,744.937866 456.460999,745.335205 457.917755,745.726379 
	C462.720398,747.015747 467.624908,747.919128 472.465607,749.074280 
	C503.149384,756.396484 533.810974,763.713196 563.539490,774.557007 
	C580.394470,780.705078 592.812927,790.765564 597.951721,808.375122 
	C601.849609,821.732361 605.329712,835.211365 609.013306,848.631287 
	C610.311279,853.360046 611.661621,858.074524 612.988037,862.795410 
	C609.847534,866.513489 607.281311,871.018860 603.461182,873.805176 
	C590.885071,882.977844 576.088745,887.189209 561.222290,890.881042 
	C533.715271,897.711975 505.695648,901.559753 477.449188,902.855835 
	C440.568878,904.547974 403.645325,905.794067 366.730713,906.110596 
	C325.307800,906.465759 283.918304,904.507996 242.735474,899.734680 
	C213.989655,896.402893 185.412872,891.979736 158.089218,881.842834 
	C146.725876,877.627197 136.032425,872.255005 128.436646,862.351257 
	C129.557312,860.099060 130.613113,858.289612 130.859787,856.375793 
	C132.339355,844.896729 132.621582,833.161255 135.198456,821.946716 
	C140.631393,798.302612 153.965775,779.948547 176.730713,770.423706 
	C188.267899,765.596497 200.925949,763.475159 213.031860,759.973633 
	C228.500259,755.499390 243.929611,750.889465 259.356384,746.273071 
	C261.256439,745.704529 264.179871,745.560547 262.362061,742.144348 
M436.159485,783.655518 
	C442.095490,768.874084 448.024628,754.089844 453.972626,739.313232 
	C455.303619,736.006592 454.380707,733.266785 451.476074,731.552429 
	C443.776245,727.007996 436.088226,722.402649 428.116730,718.373108 
	C422.339691,715.452881 419.035126,716.869568 415.659088,722.455322 
	C404.283844,741.276184 388.784119,755.730225 369.484924,766.190857 
	C351.160889,776.122864 348.264435,775.915894 331.881500,763.328308 
	C318.122894,752.757080 307.019379,739.772644 297.611725,725.302612 
	C295.077667,721.404968 291.795807,718.540771 287.359375,720.305298 
	C280.949463,722.854858 274.852295,726.285339 268.857147,729.747742 
	C265.188568,731.866455 264.070343,735.536438 265.084137,739.717651 
	C267.391022,749.231812 269.078064,758.953247 272.162109,768.208984 
	C277.114075,783.070557 284.453583,796.651062 297.904175,805.804565 
	C305.077850,810.686279 307.625000,809.837158 313.812378,803.885376 
	C321.445038,796.543213 329.427490,789.476807 337.861267,783.086365 
	C343.461945,778.842712 355.054352,780.483765 360.608521,784.826050 
	C374.381927,795.594116 389.456665,803.715332 406.658173,807.670776 
	C414.858459,809.556396 421.474060,807.901489 426.079590,800.537842 
	C429.425323,795.188538 432.630829,789.751587 436.159485,783.655518 
z"/>
<path fill="#FFFFFF" opacity="1.000000" stroke="none" 
	d="
M1050.180054,874.210938 
	C1054.465820,839.066223 1069.812256,809.745911 1095.157593,785.573181 
	C1116.454956,765.260925 1141.675171,751.382446 1168.999634,741.084290 
	C1176.901489,738.106323 1185.009888,735.676086 1192.592285,733.139099 
	C1195.499146,743.027039 1197.467163,752.832153 1201.209961,761.904968 
	C1216.028809,797.825867 1243.796997,817.002075 1281.777710,821.840698 
	C1302.092773,824.428650 1322.362915,823.892090 1341.941895,816.939941 
	C1369.999512,806.977356 1384.611694,786.342773 1387.807495,757.334595 
	C1388.689087,749.332642 1387.941650,741.151306 1387.941650,731.462402 
	C1400.033081,734.258789 1411.663574,736.126465 1422.767456,739.652588 
	C1485.658203,759.623596 1523.775024,803.515686 1542.937012,865.400635 
	C1544.653687,870.944275 1546.341064,876.496826 1548.079224,882.412231 
	C1541.632080,884.515869 1535.239990,886.835510 1528.646118,887.881470 
	C1507.764771,891.193604 1486.845337,894.327942 1465.867798,896.948730 
	C1451.112793,898.792114 1436.258423,899.991638 1421.413818,900.930359 
	C1400.907593,902.227112 1380.378662,903.411438 1359.841675,903.912781 
	C1330.750732,904.622925 1301.639893,905.084961 1272.544556,904.837463 
	C1255.176392,904.689758 1237.777344,903.460510 1220.471436,901.859619 
	C1196.950562,899.683899 1173.498779,896.745117 1150.029297,894.030273 
	C1117.446899,890.261292 1085.329590,883.973267 1053.548096,875.923340 
	C1052.450317,875.645264 1051.448975,874.987000 1050.180054,874.210938 
M1350.284790,890.902588 
	C1354.883667,886.112793 1354.720459,880.219604 1349.598267,879.028687 
	C1346.979248,878.419739 1343.393433,879.382080 1341.114014,880.921509 
	C1339.857178,881.770264 1339.451782,885.765747 1340.331177,887.493164 
	C1342.085205,890.938782 1345.466553,892.542664 1350.284790,890.902588 
M1500.987671,838.247498 
	C1503.023926,832.529480 1502.093994,829.055237 1498.031128,828.061707 
	C1494.432861,827.181824 1490.544922,827.454346 1489.120239,831.248779 
	C1488.349243,833.302185 1489.036377,836.975525 1490.517334,838.569397 
	C1493.250610,841.511169 1497.069092,842.448120 1500.987671,838.247498 
M1188.666382,832.062866 
	C1188.351196,836.394470 1189.114990,840.229126 1194.288208,840.812500 
	C1197.939331,841.224182 1201.027100,839.506775 1201.820679,835.817505 
	C1202.641479,832.001099 1200.641479,828.933655 1197.045288,827.537842 
	C1193.281372,826.076965 1190.209351,827.092346 1188.666382,832.062866 
M1400.714600,839.243164 
	C1403.906006,836.404297 1403.391968,832.885986 1400.901367,830.536743 
	C1399.263672,828.991943 1395.615479,828.158875 1393.563110,828.909302 
	C1391.827759,829.543762 1389.870605,833.152466 1390.234741,835.008545 
	C1390.656250,837.155518 1393.277832,839.194641 1395.411743,840.537659 
	C1396.399292,841.159119 1398.495361,840.019226 1400.714600,839.243164 
M1244.941528,879.358582 
	C1240.143433,881.701904 1238.659546,884.979980 1240.699463,888.730286 
	C1242.413940,891.881836 1246.524902,893.216797 1249.699219,890.970215 
	C1251.261841,889.864258 1252.723022,887.271057 1252.622925,885.438538 
	C1252.411743,881.569092 1249.933716,879.145386 1244.941528,879.358582 
M1101.436768,830.026184 
	C1098.203247,827.162598 1094.394165,826.790833 1091.849121,830.075256 
	C1090.441895,831.891296 1090.182129,835.975098 1091.310547,837.945312 
	C1092.227905,839.546936 1096.276245,840.586548 1098.416504,839.995178 
	C1102.629150,838.831238 1103.320801,835.128601 1102.025391,831.132080 
	C1101.974365,830.974609 1101.929443,830.815247 1101.436768,830.026184 
M1452.939087,887.362854 
	C1453.690552,884.033203 1454.634155,880.491577 1450.136963,879.119568 
	C1446.671265,878.062317 1443.365479,878.622864 1441.650391,882.294617 
	C1440.202148,885.395386 1440.951660,888.426453 1443.877930,890.146301 
	C1447.204224,892.101318 1450.571289,892.104431 1452.939087,887.362854 
M1147.441162,879.138794 
	C1142.648804,880.566101 1140.162720,883.673096 1141.064697,887.506409 
	C1141.954956,891.289734 1145.070923,892.632019 1148.272095,891.730042 
	C1150.344604,891.146057 1152.943604,888.914917 1153.427002,886.957581 
	C1154.364258,883.163147 1152.084839,880.374634 1147.441162,879.138794 
M1448.661865,790.151428 
	C1452.149658,788.746887 1453.534302,785.792969 1452.635254,782.559753 
	C1452.136353,780.765808 1449.914429,778.754822 1448.055176,778.179749 
	C1444.163574,776.976013 1440.469604,779.859985 1440.162354,783.609924 
	C1439.834351,787.611694 1442.833740,790.215881 1448.661865,790.151428 
M1144.054077,789.432983 
	C1147.561768,791.347473 1150.358154,790.938049 1152.183960,787.040649 
	C1153.863037,783.456787 1152.382812,780.939514 1149.430298,779.057312 
	C1146.583252,777.242493 1143.645386,777.062622 1141.619263,780.191345 
	C1139.438721,783.558472 1139.581909,786.770325 1144.054077,789.432983 
M1293.301147,839.625305 
	C1297.633423,840.951599 1300.516846,839.124878 1301.947021,835.165466 
	C1303.060791,832.082581 1301.871094,829.495850 1298.760132,828.261658 
	C1295.587402,827.002930 1292.922363,827.818665 1291.017578,830.827026 
	C1288.895264,834.178833 1288.884155,837.046509 1293.301147,839.625305 
z"/>
<path fill="#F6A4A4" opacity="1.000000" stroke="none" 
	d="
M883.634644,498.182037 
	C877.711548,483.736786 883.847412,475.411865 893.694336,468.304199 
	C898.795593,464.622070 904.477112,461.712402 910.026917,458.693573 
	C914.158630,456.446136 915.970520,453.087463 915.971802,448.547791 
	C915.978271,426.104553 916.876099,403.672913 913.310181,381.310638 
	C911.484619,369.862396 914.257568,358.434723 917.436462,347.374908 
	C924.146973,324.027679 935.745605,303.487091 953.717651,286.905792 
	C965.567566,275.972870 979.118835,267.694580 994.993652,261.903412 
	C997.563843,267.813782 1000.318542,273.467377 1002.519226,279.329010 
	C1011.195435,302.438141 1017.281433,326.304932 1020.768860,350.673950 
	C1023.986511,373.157745 1026.317017,395.812866 1027.908325,418.471863 
	C1029.351685,439.023468 1030.163086,459.704651 1029.639282,480.287659 
	C1028.976196,506.337341 1026.968750,532.367004 1025.024658,558.366699 
	C1021.791138,601.607849 1015.207336,644.409790 1007.219666,687.005981 
	C1006.455078,691.083069 1005.488037,695.145752 1005.086975,699.261108 
	C1004.625305,703.998779 1002.483276,704.433472 998.343750,703.295471 
	C978.058350,697.718872 963.188171,684.874023 951.258423,668.267212 
	C936.842041,648.198975 928.906189,625.308411 923.388184,601.486511 
	C922.463318,597.494141 924.307129,594.893677 928.511719,593.822388 
	C932.994629,592.680237 937.598633,591.581299 941.730347,589.592346 
	C948.286377,586.436340 951.049683,580.399597 951.802429,573.414368 
	C951.912109,572.396606 951.270447,571.297791 951.040527,570.467834 
	C944.934998,572.838257 939.155029,575.082458 933.374573,577.325195 
	C933.219421,577.385376 933.061951,577.446899 932.899902,577.481079 
	C920.537842,580.087036 917.019714,577.645630 916.095947,565.323730 
	C914.978821,550.422424 914.101746,535.503113 913.108643,520.592468 
	C913.065979,519.951355 912.901611,519.318359 912.797302,518.701355 
	C897.192688,519.623474 891.981262,515.972900 883.634644,498.182037 
M960.822815,403.372131 
	C953.698242,400.773956 946.748718,401.228760 940.178650,404.973572 
	C934.905823,407.979065 933.141418,414.608704 935.958679,419.735870 
	C937.801575,423.089783 940.627197,424.177368 943.882690,422.238159 
	C949.703857,418.770538 955.353943,415.008606 960.997803,411.252838 
	C964.274048,409.072662 965.159912,406.520508 960.822815,403.372131 
z"/>
<path fill="#F6A4A4" opacity="1.000000" stroke="none" 
	d="
M713.034912,519.075073 
	C706.534851,519.647888 705.428650,521.058472 705.032349,527.183228 
	C704.089111,541.760254 703.081177,556.336060 701.826538,570.888855 
	C701.109436,579.206909 697.287415,582.191345 689.063721,580.036621 
	C681.602661,578.081726 674.463074,574.882812 667.215576,572.142700 
	C665.553162,571.514160 664.029358,570.518738 661.717285,569.315063 
	C660.479065,576.249634 662.414185,581.742737 666.106506,586.436890 
	C671.648865,593.482971 678.976135,597.211792 688.231689,596.518188 
	C693.012756,596.159973 695.632507,599.351562 694.471191,604.156921 
	C688.241272,629.933716 679.239380,654.470276 661.912537,675.143005 
	C651.575317,687.476379 639.377808,697.289185 623.753906,702.205261 
	C616.724792,704.416931 614.145447,702.945129 612.960754,695.838440 
	C608.324890,668.028320 603.312744,640.270630 599.310181,612.368652 
	C596.461487,592.510681 594.955383,572.457947 592.938293,552.483276 
	C589.156067,515.029663 588.054993,477.447754 589.248108,439.865204 
	C590.832642,389.954193 596.265930,340.503662 611.401550,292.600708 
	C614.050598,284.216797 617.605103,276.110779 620.917725,267.947937 
	C622.797668,263.315460 625.419312,262.417297 629.977539,264.448700 
	C669.687988,282.146179 692.837769,313.167877 703.026367,354.802612 
	C706.376099,368.491180 704.761597,382.017120 703.734802,395.771942 
	C702.538757,411.794830 703.508667,427.972290 702.528992,444.021027 
	C701.915710,454.067657 706.866394,458.581757 715.028564,462.323792 
	C720.378723,464.776703 725.269531,468.547272 729.805542,472.389496 
	C737.422485,478.841309 739.175232,487.515472 735.446228,496.386444 
	C732.795776,502.691589 728.792847,508.680420 724.294495,513.855042 
	C721.878601,516.634033 717.144409,517.397705 713.034912,519.075073 
M670.965332,399.030243 
	C668.307068,399.010681 665.528137,398.490814 663.020447,399.095703 
	C659.740295,399.887024 656.257324,401.014557 653.621643,403.004242 
	C650.274841,405.530701 651.390808,408.339691 655.333740,409.917450 
	C661.001709,412.185516 666.598938,414.675476 672.053223,417.415436 
	C675.457336,419.125488 679.306580,420.363464 681.573608,417.248566 
	C683.288940,414.891663 683.670288,410.730469 683.057495,407.692535 
	C681.917480,402.041595 676.693481,400.550903 670.965332,399.030243 
z"/>
<path fill="#2C2763" opacity="1.000000" stroke="none" 
	d="
M325.804535,679.072693 
	C303.569489,677.285645 281.970093,673.160645 262.690491,661.105530 
	C242.148132,648.260742 229.351303,629.055542 219.147141,607.701416 
	C205.740326,579.645020 199.635101,549.913208 198.290497,519.040039 
	C198.255432,518.234863 198.137726,517.433350 198.058105,516.625305 
	C180.600586,518.748840 170.277435,511.697754 165.811661,494.474731 
	C163.135208,484.152527 162.865143,473.712219 166.051651,463.434998 
	C169.992538,450.724731 178.738617,445.163696 191.593704,446.795807 
	C191.593704,440.860474 191.770523,434.910950 191.563690,428.974792 
	C190.568115,400.402618 192.117249,372.120026 200.102127,344.439941 
	C206.199585,323.302734 217.420105,304.593353 227.617813,285.396454 
	C232.441605,276.315826 237.568588,267.396240 243.071762,257.478149 
	C246.136490,269.364990 246.277069,281.162354 253.509445,292.519623 
	C260.536316,275.599060 260.982452,258.834076 263.665314,241.566422 
	C268.915955,256.151245 270.157288,271.757355 281.925568,284.059021 
	C290.177673,265.809204 298.075012,248.343948 305.971344,230.880951 
	C310.035217,244.079773 314.213043,257.889343 326.962097,267.146820 
	C336.001801,252.583664 344.850098,238.226242 349.023315,220.638062 
	C356.488983,238.156387 361.337769,256.088898 374.983887,271.345978 
	C380.964691,255.101929 386.518616,240.017365 391.888184,225.433563 
	C398.311249,241.663269 403.223206,259.572479 415.940491,275.068909 
	C421.275085,261.249664 426.219543,248.441071 430.919403,236.266037 
	C431.483185,240.512161 432.083588,245.765533 432.900085,250.985107 
	C433.772736,256.563568 434.580322,262.175629 435.914154,267.651794 
	C437.187714,272.880890 439.101929,277.953979 440.734528,283.095642 
	C441.428375,283.019745 442.122253,282.943878 442.816101,282.867981 
	C443.446320,271.709259 444.076538,260.550568 444.721436,249.132004 
	C452.620575,261.773529 458.797058,275.494202 470.443573,286.889435 
	C470.968994,278.107269 471.429230,270.413971 471.949860,261.711487 
	C513.076965,315.520020 539.508057,373.083160 531.147705,442.028900 
	C534.735718,442.355316 538.006531,442.456604 541.207397,442.982727 
	C549.153076,444.288727 554.282471,449.099457 555.611450,456.889099 
	C557.708130,469.178680 557.116455,481.526855 552.646057,493.253723 
	C547.437012,506.918243 536.133728,511.645172 522.241638,506.435242 
	C521.821899,517.550842 521.520752,528.577332 520.967102,539.591064 
	C519.537354,568.033997 512.900940,595.052856 499.217377,620.246521 
	C482.465576,651.089233 456.828918,669.674927 422.451630,675.823730 
	C408.736938,678.276794 394.756531,679.244202 380.001038,680.905273 
	C362.938751,680.580750 346.772552,680.239014 330.624573,679.907959 
	C330.642853,679.918640 330.664764,679.876587 330.664764,679.876587 
	C330.664764,679.876587 330.272156,679.888306 329.833984,679.553833 
	C328.198700,679.170471 327.001617,679.121582 325.804535,679.072693 
M197.019592,466.925995 
	C197.946716,466.214447 199.528717,465.627502 199.691757,464.770599 
	C200.569107,460.159302 199.986069,455.921082 195.892349,452.712128 
	C191.360046,449.159393 186.240372,447.048157 181.195251,450.312714 
	C177.039093,453.002014 172.382172,456.610046 170.566559,460.915558 
	C164.422913,475.484467 165.496643,490.309998 173.346527,504.046326 
	C177.573669,511.443329 184.605469,515.118652 193.558167,514.171509 
	C196.688400,513.840332 198.187363,512.809814 198.209229,509.257690 
	C198.280823,497.626617 198.607834,485.992645 199.108322,474.371552 
	C199.247574,471.138489 198.637558,468.833771 195.846329,467.194702 
	C195.962311,467.052795 196.078278,466.910919 197.019592,466.925995 
M499.049866,614.438416 
	C511.950043,589.126953 516.613770,561.758057 517.786621,533.851990 
	C518.953735,506.081146 518.697754,478.248810 518.903442,450.442230 
	C518.920837,448.087555 518.174255,445.456940 516.995239,443.407410 
	C509.046722,429.590332 502.854980,415.084717 500.046661,399.357727 
	C497.978363,387.774689 496.571075,376.073608 494.790649,363.886963 
	C449.985138,369.776001 404.592163,373.557281 358.975006,373.844910 
	C313.384064,374.132416 267.851532,372.840118 222.650909,367.118134 
	C222.366867,367.671051 222.119492,367.947754 222.084946,368.248932 
	C218.736084,397.433594 212.416962,425.964417 203.365555,453.905640 
	C202.814804,455.605713 202.759537,457.510040 202.719055,459.324829 
	C202.348190,475.944794 201.857391,492.564697 201.734879,509.187103 
	C201.464142,545.925049 209.512985,580.586975 225.918533,613.680786 
	C240.845001,643.791016 264.052948,663.325317 296.178436,671.049927 
	C338.990143,681.344116 382.311218,680.876282 425.452026,672.274658 
	C440.904602,669.193665 455.787201,664.159912 467.862854,653.412598 
	C480.253204,642.385132 490.974487,629.917236 499.049866,614.438416 
M521.876587,479.514862 
	C521.876587,485.506561 522.172668,491.517700 521.781006,497.483673 
	C521.480103,502.067780 523.474670,504.651215 527.577820,505.183960 
	C530.905579,505.615997 534.654846,505.732269 537.725098,504.624603 
	C544.735535,502.095428 549.810913,496.585449 550.852478,489.427765 
	C552.345398,479.168549 553.002991,468.631378 552.495056,458.287659 
	C552.099792,450.237396 545.839294,445.729736 537.705261,445.769836 
	C532.968201,445.793182 528.234741,446.539093 523.379883,446.970551 
	C522.888855,452.595337 522.456360,457.550629 521.964050,463.190125 
	C523.629211,462.217743 524.449219,461.684052 525.315918,461.241730 
	C530.422546,458.635742 539.875977,459.588226 538.945984,462.767578 
	C538.114868,462.767578 537.235840,462.767578 536.341858,462.767578 
	C537.493530,473.235718 535.475647,480.545288 531.086853,483.541107 
	C532.254089,479.136200 533.984985,474.351776 534.639160,469.424408 
	C534.984558,466.823151 533.453003,463.972687 532.768860,461.234741 
	C529.646240,462.499817 526.401184,463.542786 523.471069,465.157196 
	C522.517456,465.682587 522.042664,467.676422 521.947876,469.040283 
	C521.729126,472.187408 521.877136,475.360046 521.876587,479.514862 
z"/>
<path fill="#F1777F" opacity="1.000000" stroke="none" 
	d="
M1211.643433,734.849976 
	C1213.441406,735.183167 1214.932373,736.139343 1216.154053,735.870850 
	C1231.810913,732.429138 1246.589355,727.106567 1257.822998,714.894531 
	C1264.361572,707.786560 1268.253418,699.515503 1268.197388,689.656494 
	C1268.193604,688.993469 1268.242676,688.323547 1268.346191,687.669312 
	C1268.394409,687.364319 1268.630981,687.089111 1268.668213,687.018188 
	C1282.702148,687.018188 1296.607666,687.018188 1310.963867,687.018188 
	C1310.963867,688.938171 1311.068359,690.218323 1310.948242,691.477112 
	C1308.747192,714.548889 1322.292358,727.542175 1339.323853,733.832703 
	C1351.828125,738.451111 1364.849854,739.841431 1378.064697,739.998169 
	C1380.522217,740.027283 1382.980225,740.002380 1385.381104,740.002380 
	C1388.144409,767.180359 1378.038330,801.316833 1344.117188,813.207031 
	C1308.741455,825.607178 1273.368042,824.060913 1240.566895,804.681885 
	C1215.531250,789.890808 1202.623047,766.221130 1197.735107,737.511230 
	C1202.217651,736.358765 1206.714355,735.631348 1211.643433,734.849976 
z"/>
<path fill="#F1757D" opacity="1.000000" stroke="none" 
	d="
M330.606323,679.897278 
	C346.772552,680.239014 362.938751,680.580750 379.570190,681.000000 
	C380.000824,682.046692 379.966217,683.015930 379.887054,684.339111 
	C378.881104,685.846802 377.183075,686.932800 377.069824,688.164551 
	C375.596222,704.193604 382.568176,724.542114 407.283783,726.064453 
	C407.740234,726.092529 408.182556,726.350220 409.951233,726.943542 
	C404.512543,733.168213 399.760071,739.259827 394.334961,744.677917 
	C383.747986,755.251404 371.232483,763.058228 357.587402,769.187683 
	C352.698334,771.383911 348.580048,771.134216 343.964600,768.389221 
	C326.551880,758.032898 313.307312,743.537231 301.897583,726.744019 
	C304.241882,726.173645 306.653137,725.922363 309.884277,725.687134 
	C318.753540,724.399597 323.927704,719.295715 327.582703,712.495544 
	C332.334442,703.654724 333.760590,694.054810 332.995483,684.148376 
	C332.881958,682.678589 331.435883,681.311768 330.606323,679.897278 
z"/>
<path fill="#E16E7C" opacity="1.000000" stroke="none" 
	d="
M1229.474487,326.124756 
	C1227.938843,326.803650 1226.000244,327.096069 1224.925049,328.216766 
	C1167.163574,388.423126 1126.853149,458.198547 1110.532837,540.583313 
	C1106.444336,561.221497 1105.474365,582.477600 1103.078979,603.450623 
	C1102.909668,604.932861 1102.877075,606.433899 1102.640869,607.903687 
	C1102.542969,608.512329 1102.075928,609.061646 1101.016113,611.102539 
	C1100.607788,607.748962 1100.120605,605.793091 1100.170166,603.850830 
	C1101.014160,570.718262 1106.496338,538.285828 1116.063843,506.625854 
	C1139.011597,430.689423 1179.707886,365.678650 1237.468384,311.333801 
	C1239.891357,309.054047 1242.461548,306.930695 1245.140625,304.433319 
	C1245.948853,304.120575 1246.579834,304.109039 1247.518433,304.179535 
	C1246.718018,306.009033 1245.879883,308.027069 1244.450684,309.452667 
	C1240.333008,313.559845 1235.921143,317.370575 1231.751587,321.427979 
	C1230.635010,322.514404 1229.971924,324.066895 1229.312866,325.763000 
	C1229.525146,326.120605 1229.474487,326.124725 1229.474487,326.124756 
z"/>
<path fill="#111214" opacity="1.000000" stroke="none" 
	d="
M613.304810,862.547363 
	C611.661621,858.074524 610.311279,853.360046 609.013306,848.631287 
	C605.329712,835.211365 601.849609,821.732361 597.951721,808.375122 
	C592.812927,790.765564 580.394470,780.705078 563.539490,774.557007 
	C533.810974,763.713196 503.149384,756.396484 472.465607,749.074280 
	C467.624908,747.919128 462.720398,747.015747 457.917755,745.726379 
	C456.460999,745.335205 453.203033,744.937866 456.631958,742.038513 
	C493.401062,749.862061 529.401184,759.113159 564.500366,771.890442 
	C583.687134,778.875183 596.339172,791.235474 601.916260,810.652710 
	C606.172180,825.470093 609.869019,840.450623 613.625122,855.406128 
	C614.167847,857.567261 613.649048,859.994873 613.304810,862.547363 
z"/>
<path fill="#121315" opacity="1.000000" stroke="none" 
	d="
M261.952240,742.143555 
	C264.179871,745.560547 261.256439,745.704529 259.356384,746.273071 
	C243.929611,750.889465 228.500259,755.499390 213.031860,759.973633 
	C200.925949,763.475159 188.267899,765.596497 176.730713,770.423706 
	C153.965775,779.948547 140.631393,798.302612 135.198456,821.946716 
	C132.621582,833.161255 132.339355,844.896729 130.859787,856.375793 
	C130.613113,858.289612 129.557312,860.099060 128.483826,861.992188 
	C128.084763,854.448120 127.555145,846.826294 128.164581,839.296692 
	C130.266312,813.329590 140.087738,791.146973 161.486023,775.203308 
	C170.374893,768.580322 180.663040,765.305115 191.414383,762.488281 
	C214.951569,756.321655 238.184952,748.995361 261.952240,742.143555 
z"/>
<path fill="#382F67" opacity="1.000000" stroke="none" 
	d="
M330.624573,679.907959 
	C331.435883,681.311768 332.881958,682.678589 332.995483,684.148376 
	C333.760590,694.054810 332.334442,703.654724 327.582703,712.495544 
	C323.927704,719.295715 318.753540,724.399597 310.330322,725.605225 
	C310.609467,724.386414 311.033722,722.545105 311.950378,722.253906 
	C323.692810,718.523682 327.636658,709.239319 329.084259,698.312866 
	C329.857758,692.474426 330.028473,686.556030 330.567993,680.275146 
	C330.664764,679.876587 330.642853,679.918640 330.624573,679.907959 
z"/>
<path fill="#382F67" opacity="1.000000" stroke="none" 
	d="
M326.129578,679.226501 
	C327.001617,679.121582 328.198700,679.170471 329.686646,679.423889 
	C328.803223,679.545776 327.628937,679.463013 326.129578,679.226501 
z"/>
<path fill="#E16E7C" opacity="1.000000" stroke="none" 
	d="
M1229.178223,326.497192 
	C1229.474487,326.124725 1229.525146,326.120605 1229.524414,326.137512 
	C1234.649658,326.029480 1231.503174,328.619446 1230.631836,329.990997 
	C1224.741089,339.263428 1218.555176,348.351379 1212.785889,357.697296 
	C1192.868896,389.961761 1175.905029,423.602478 1165.671631,460.320679 
	C1164.897949,463.097076 1164.219238,465.899994 1164.034546,468.926056 
	C1185.458252,427.239777 1207.638550,386.051422 1232.005737,346.102875 
	C1232.741089,346.440247 1233.476440,346.777649 1234.211792,347.115051 
	C1233.386108,348.985016 1232.688843,350.924713 1231.716064,352.714752 
	C1208.359497,395.695343 1184.385376,438.353638 1161.791016,481.730682 
	C1145.646606,512.724670 1132.285767,545.066772 1123.078613,578.916565 
	C1119.048096,593.735291 1116.239502,608.772705 1118.817871,624.269592 
	C1118.937866,624.991272 1118.605591,625.788269 1118.484009,626.550171 
	C1117.998901,626.656494 1117.513916,626.762817 1117.028931,626.869202 
	C1116.347534,624.043884 1115.285522,621.250000 1115.049072,618.387939 
	C1113.878174,604.220093 1116.940552,590.584656 1120.692627,577.069336 
	C1128.956787,547.299744 1141.625977,519.259521 1154.018799,491.075256 
	C1157.578857,482.978851 1158.894165,473.904266 1161.334961,465.305450 
	C1175.577393,415.125977 1199.324219,369.578949 1229.178223,326.497192 
z"/>
<path fill="#E16E7C" opacity="1.000000" stroke="none" 
	d="
M1397.060791,619.902710 
	C1398.650879,631.497986 1400.205444,642.659058 1401.760132,653.820129 
	C1401.073120,653.981323 1400.385986,654.142517 1399.698853,654.303711 
	C1399.128296,652.156616 1398.302246,650.041870 1398.024780,647.857605 
	C1392.415283,603.676147 1383.000366,560.329895 1369.201294,517.982483 
	C1345.283936,444.583710 1311.736206,375.882874 1268.214233,312.084106 
	C1266.833740,310.060547 1265.715210,307.858215 1264.474487,305.739227 
	C1265.071167,305.312500 1265.667725,304.885742 1266.264282,304.458984 
	C1267.926758,306.508087 1269.738525,308.454468 1271.229248,310.621643 
	C1294.203125,344.020721 1314.140503,379.168152 1331.397705,415.830688 
	C1357.205811,470.659821 1377.447144,527.433838 1390.494995,586.677490 
	C1392.891602,597.559448 1394.859497,608.535767 1397.060791,619.902710 
z"/>
<path fill="#E06E7C" opacity="1.000000" stroke="none" 
	d="
M1402.683472,474.373840 
	C1371.732910,411.433350 1331.901367,355.249847 1282.135132,306.113342 
	C1282.645142,305.560272 1283.155151,305.007233 1283.665161,304.454193 
	C1285.432129,305.747131 1287.489502,306.779358 1288.921265,308.373352 
	C1303.490601,324.594208 1318.782837,340.252716 1332.307129,357.309937 
	C1382.637695,420.788147 1419.093994,491.570709 1441.573608,569.461243 
	C1443.833130,577.290100 1445.661133,585.245605 1447.584839,593.167725 
	C1448.004150,594.894653 1447.974854,596.730591 1448.152222,598.516296 
	C1447.645630,598.679626 1447.139038,598.843018 1446.632568,599.006348 
	C1445.767700,596.570801 1444.777344,594.171753 1444.057983,591.693970 
	C1438.494873,572.533630 1433.862183,553.047424 1427.219116,534.271423 
	C1420.072632,514.072510 1411.055664,494.535400 1402.683472,474.373840 
z"/>
<path fill="#E16E7C" opacity="1.000000" stroke="none" 
	d="
M1324.804321,591.199402 
	C1326.748779,607.998962 1328.860474,624.338867 1330.400513,640.732422 
	C1331.054565,647.694763 1330.509644,654.769775 1330.509644,661.793579 
	C1329.931030,661.843323 1329.352417,661.893066 1328.773804,661.942810 
	C1328.481079,660.818298 1327.947144,659.697449 1327.930176,658.568726 
	C1327.254517,613.771362 1319.593994,569.780029 1311.443726,525.970215 
	C1299.579590,462.198792 1286.325806,398.685913 1273.701660,335.055450 
	C1273.383179,333.450562 1273.495483,331.760193 1273.406982,330.109711 
	C1273.912598,329.987396 1274.418091,329.865082 1274.923584,329.742767 
	C1275.572266,331.242065 1276.520386,332.682861 1276.826538,334.249176 
	C1288.952881,396.277863 1301.197876,458.284241 1313.005493,520.373840 
	C1317.447998,543.735413 1320.858887,567.293091 1324.804321,591.199402 
z"/>
<path fill="#E16E7C" opacity="1.000000" stroke="none" 
	d="
M1113.141357,431.235046 
	C1104.878906,450.533203 1095.661865,469.113647 1089.000366,488.569183 
	C1082.286377,508.178070 1077.138672,528.462952 1073.098511,548.807861 
	C1069.122070,568.832153 1067.396118,589.303406 1063.774902,609.383911 
	C1065.550049,549.511597 1080.469360,492.782593 1106.252075,438.898163 
	C1125.639893,398.378510 1150.411865,361.534851 1182.892334,330.373199 
	C1183.689819,330.945129 1184.487305,331.517090 1185.284790,332.089020 
	C1156.035767,361.293304 1132.499023,394.554230 1113.141357,431.235046 
z"/>
<path fill="#E06E7C" opacity="1.000000" stroke="none" 
	d="
M1424.243896,441.723663 
	C1450.555298,488.222504 1470.605957,536.781128 1482.938477,588.364441 
	C1482.326660,588.644653 1481.714844,588.924805 1481.103027,589.204956 
	C1480.341187,587.423340 1479.341309,585.704346 1478.852905,583.850586 
	C1471.471191,555.828308 1462.667114,528.296753 1451.185303,501.648193 
	C1423.622559,437.677368 1385.867188,380.508911 1337.312988,330.511963 
	C1336.240845,329.407959 1335.420288,328.059631 1334.482422,326.825256 
	C1334.858887,326.375122 1335.235352,325.924988 1335.611938,325.474823 
	C1337.142944,326.573578 1338.869507,327.478790 1340.176392,328.799438 
	C1371.157959,360.104706 1397.005127,395.313690 1419.355713,433.170502 
	C1420.962769,435.892609 1422.506470,438.652130 1424.243896,441.723663 
z"/>
<path fill="#E06E7C" opacity="1.000000" stroke="none" 
	d="
M1182.591309,543.504944 
	C1193.539551,501.767487 1203.741577,460.256500 1215.397217,419.157806 
	C1225.057373,385.095123 1236.418457,351.514404 1247.077148,317.736267 
	C1247.733521,315.655823 1248.837646,313.716583 1249.733398,311.711639 
	C1250.378540,311.899231 1251.023560,312.086823 1251.668701,312.274445 
	C1251.229980,314.289520 1250.939575,316.350647 1250.330688,318.312836 
	C1235.447998,366.277283 1219.696411,413.992767 1205.909424,462.269440 
	C1196.425659,495.478088 1189.220215,529.367676 1181.906616,563.149963 
	C1179.216919,575.574585 1179.149292,588.565918 1177.862061,601.296326 
	C1177.675415,603.141174 1177.357178,604.972778 1176.160400,606.701416 
	C1173.372070,585.286255 1178.724731,564.675415 1182.591309,543.504944 
z"/>
<path fill="#E7717D" opacity="1.000000" stroke="none" 
	d="
M1261.600708,446.011292 
	C1260.936279,492.754364 1260.263916,539.497314 1259.611572,586.240540 
	C1259.388672,602.209900 1259.213257,618.179993 1259.023315,634.149780 
	C1258.999634,636.133484 1259.019897,638.117737 1257.948975,640.146851 
	C1257.252808,628.411682 1256.021484,616.679077 1255.965576,604.940857 
	C1255.824585,575.345032 1255.804565,545.736694 1256.520996,516.152405 
	C1257.080322,493.056061 1258.818481,469.988312 1260.363525,446.456543 
	C1260.996216,446.006195 1261.298462,446.008209 1261.600708,446.011292 
z"/>
<path fill="#E16E7C" opacity="1.000000" stroke="none" 
	d="
M1420.505615,379.506836 
	C1416.725586,374.498871 1413.165771,369.774353 1409.605835,365.049805 
	C1410.056152,364.543610 1410.506470,364.037384 1410.956787,363.531189 
	C1412.328369,364.629425 1414.052612,365.481201 1415.018311,366.863068 
	C1428.645752,386.362579 1442.961426,405.443726 1455.476440,425.638824 
	C1466.044800,442.692719 1474.532593,461.039612 1483.830444,478.872009 
	C1484.827393,480.784119 1485.084839,483.081787 1485.685425,485.200592 
	C1485.160889,485.417206 1484.636353,485.633850 1484.111816,485.850464 
	C1478.287354,473.666901 1472.934326,461.227783 1466.508057,449.370422 
	C1459.857422,437.099182 1452.521606,425.157288 1444.828125,413.505280 
	C1437.221436,401.984741 1428.793457,391.006409 1420.505615,379.506836 
z"/>
<path fill="#E5707C" opacity="1.000000" stroke="none" 
	d="
M1261.695190,445.553101 
	C1261.298462,446.008209 1260.996216,446.006195 1260.467285,446.005219 
	C1260.860840,403.425903 1261.515137,360.848328 1266.730713,318.491943 
	C1268.057617,360.803436 1264.069336,402.917419 1261.695190,445.553101 
z"/>
<path fill="#FEFEFE" opacity="1.000000" stroke="none" 
	d="
M436.029175,784.004578 
	C432.630829,789.751587 429.425323,795.188538 426.079590,800.537842 
	C421.474060,807.901489 414.858459,809.556396 406.658173,807.670776 
	C389.456665,803.715332 374.381927,795.594116 360.608521,784.826050 
	C355.054352,780.483765 343.461945,778.842712 337.861267,783.086365 
	C329.427490,789.476807 321.445038,796.543213 313.812378,803.885376 
	C307.625000,809.837158 305.077850,810.686279 297.904175,805.804565 
	C284.453583,796.651062 277.114075,783.070557 272.162109,768.208984 
	C269.078064,758.953247 267.391022,749.231812 265.084137,739.717651 
	C264.070343,735.536438 265.188568,731.866455 268.857147,729.747742 
	C274.852295,726.285339 280.949463,722.854858 287.359375,720.305298 
	C291.795807,718.540771 295.077667,721.404968 297.611725,725.302612 
	C307.019379,739.772644 318.122894,752.757080 331.881500,763.328308 
	C348.264435,775.915894 351.160889,776.122864 369.484924,766.190857 
	C388.784119,755.730225 404.283844,741.276184 415.659088,722.455322 
	C419.035126,716.869568 422.339691,715.452881 428.116730,718.373108 
	C436.088226,722.402649 443.776245,727.007996 451.476074,731.552429 
	C454.380707,733.266785 455.303619,736.006592 453.972626,739.313232 
	C448.024628,754.089844 442.095490,768.874084 436.029175,784.004578 
z"/>
<path fill="#334196" opacity="1.000000" stroke="none" 
	d="
M1349.936768,891.043579 
	C1345.466553,892.542664 1342.085205,890.938782 1340.331177,887.493164 
	C1339.451782,885.765747 1339.857178,881.770264 1341.114014,880.921509 
	C1343.393433,879.382080 1346.979248,878.419739 1349.598267,879.028687 
	C1354.720459,880.219604 1354.883667,886.112793 1349.936768,891.043579 
z"/>
<path fill="#303E94" opacity="1.000000" stroke="none" 
	d="
M1500.754395,838.573120 
	C1497.069092,842.448120 1493.250610,841.511169 1490.517334,838.569397 
	C1489.036377,836.975525 1488.349243,833.302185 1489.120239,831.248779 
	C1490.544922,827.454346 1494.432861,827.181824 1498.031128,828.061707 
	C1502.093994,829.055237 1503.023926,832.529480 1500.754395,838.573120 
z"/>
<path fill="#303E94" opacity="1.000000" stroke="none" 
	d="
M1188.759521,831.694214 
	C1190.209351,827.092346 1193.281372,826.076965 1197.045288,827.537842 
	C1200.641479,828.933655 1202.641479,832.001099 1201.820679,835.817505 
	C1201.027100,839.506775 1197.939331,841.224182 1194.288208,840.812500 
	C1189.114990,840.229126 1188.351196,836.394470 1188.759521,831.694214 
z"/>
<path fill="#334196" opacity="1.000000" stroke="none" 
	d="
M1400.401733,839.460510 
	C1398.495361,840.019226 1396.399292,841.159119 1395.411743,840.537659 
	C1393.277832,839.194641 1390.656250,837.155518 1390.234741,835.008545 
	C1389.870605,833.152466 1391.827759,829.543762 1393.563110,828.909302 
	C1395.615479,828.158875 1399.263672,828.991943 1400.901367,830.536743 
	C1403.391968,832.885986 1403.906006,836.404297 1400.401733,839.460510 
z"/>
<path fill="#324095" opacity="1.000000" stroke="none" 
	d="
M1245.315918,879.289978 
	C1249.933716,879.145386 1252.411743,881.569092 1252.622925,885.438538 
	C1252.723022,887.271057 1251.261841,889.864258 1249.699219,890.970215 
	C1246.524902,893.216797 1242.413940,891.881836 1240.699463,888.730286 
	C1238.659546,884.979980 1240.143433,881.701904 1245.315918,879.289978 
z"/>
<path fill="#324095" opacity="1.000000" stroke="none" 
	d="
M1101.659180,830.341431 
	C1101.929443,830.815247 1101.974365,830.974609 1102.025391,831.132080 
	C1103.320801,835.128601 1102.629150,838.831238 1098.416504,839.995178 
	C1096.276245,840.586548 1092.227905,839.546936 1091.310547,837.945312 
	C1090.182129,835.975098 1090.441895,831.891296 1091.849121,830.075256 
	C1094.394165,826.790833 1098.203247,827.162598 1101.659180,830.341431 
z"/>
<path fill="#303E94" opacity="1.000000" stroke="none" 
	d="
M1452.850586,887.729858 
	C1450.571289,892.104431 1447.204224,892.101318 1443.877930,890.146301 
	C1440.951660,888.426453 1440.202148,885.395386 1441.650391,882.294617 
	C1443.365479,878.622864 1446.671265,878.062317 1450.136963,879.119568 
	C1454.634155,880.491577 1453.690552,884.033203 1452.850586,887.729858 
z"/>
<path fill="#324095" opacity="1.000000" stroke="none" 
	d="
M1147.811646,879.196350 
	C1152.084839,880.374634 1154.364258,883.163147 1153.427002,886.957581 
	C1152.943604,888.914917 1150.344604,891.146057 1148.272095,891.730042 
	C1145.070923,892.632019 1141.954956,891.289734 1141.064697,887.506409 
	C1140.162720,883.673096 1142.648804,880.566101 1147.811646,879.196350 
z"/>
<path fill="#334196" opacity="1.000000" stroke="none" 
	d="
M1448.310669,790.265625 
	C1442.833740,790.215881 1439.834351,787.611694 1440.162354,783.609924 
	C1440.469604,779.859985 1444.163574,776.976013 1448.055176,778.179749 
	C1449.914429,778.754822 1452.136353,780.765808 1452.635254,782.559753 
	C1453.534302,785.792969 1452.149658,788.746887 1448.310669,790.265625 
z"/>
<path fill="#334196" opacity="1.000000" stroke="none" 
	d="
M1143.729858,789.259033 
	C1139.581909,786.770325 1139.438721,783.558472 1141.619263,780.191345 
	C1143.645386,777.062622 1146.583252,777.242493 1149.430298,779.057312 
	C1152.382812,780.939514 1153.863037,783.456787 1152.183960,787.040649 
	C1150.358154,790.938049 1147.561768,791.347473 1143.729858,789.259033 
z"/>
<path fill="#303E94" opacity="1.000000" stroke="none" 
	d="
M1292.978271,839.418823 
	C1288.884155,837.046509 1288.895264,834.178833 1291.017578,830.827026 
	C1292.922363,827.818665 1295.587402,827.002930 1298.760132,828.261658 
	C1301.871094,829.495850 1303.060791,832.082581 1301.947021,835.165466 
	C1300.516846,839.124878 1297.633423,840.951599 1292.978271,839.418823 
z"/>
<path fill="#FEF5F0" opacity="1.000000" stroke="none" 
	d="
M961.159424,403.572784 
	C965.159912,406.520508 964.274048,409.072662 960.997803,411.252838 
	C955.353943,415.008606 949.703857,418.770538 943.882690,422.238159 
	C940.627197,424.177368 937.801575,423.089783 935.958679,419.735870 
	C933.141418,414.608704 934.905823,407.979065 940.178650,404.973572 
	C946.748718,401.228760 953.698242,400.773956 961.159424,403.572784 
z"/>
<path fill="#FEF5F0" opacity="1.000000" stroke="none" 
	d="
M671.393799,399.083252 
	C676.693481,400.550903 681.917480,402.041595 683.057495,407.692535 
	C683.670288,410.730469 683.288940,414.891663 681.573608,417.248566 
	C679.306580,420.363464 675.457336,419.125488 672.053223,417.415436 
	C666.598938,414.675476 661.001709,412.185516 655.333740,409.917450 
	C651.390808,408.339691 650.274841,405.530701 653.621643,403.004242 
	C656.257324,401.014557 659.740295,399.887024 663.020447,399.095703 
	C665.528137,398.490814 668.307068,399.010681 671.393799,399.083252 
z"/>
<path fill="#F2767D" opacity="1.000000" stroke="none" 
	d="
M498.897552,614.778320 
	C490.974487,629.917236 480.253204,642.385132 467.862854,653.412598 
	C455.787201,664.159912 440.904602,669.193665 425.452026,672.274658 
	C382.311218,680.876282 338.990143,681.344116 296.178436,671.049927 
	C264.052948,663.325317 240.845001,643.791016 225.918533,613.680786 
	C209.512985,580.586975 201.464142,545.925049 201.734879,509.187103 
	C201.857391,492.564697 202.348190,475.944794 202.719055,459.324829 
	C202.759537,457.510040 202.814804,455.605713 203.365555,453.905640 
	C212.416962,425.964417 218.736084,397.433594 222.084946,368.248932 
	C222.119492,367.947754 222.366867,367.671051 222.650909,367.118134 
	C267.851532,372.840118 313.384064,374.132416 358.975006,373.844910 
	C404.592163,373.557281 449.985138,369.776001 494.790649,363.886963 
	C496.571075,376.073608 497.978363,387.774689 500.046661,399.357727 
	C502.854980,415.084717 509.046722,429.590332 516.995239,443.407410 
	C518.174255,445.456940 518.920837,448.087555 518.903442,450.442230 
	C518.697754,478.248810 518.953735,506.081146 517.786621,533.851990 
	C516.613770,561.758057 511.950043,589.126953 498.897552,614.778320 
M312.505280,425.977875 
	C313.182129,424.409973 313.858978,422.842072 314.535797,421.274200 
	C312.859161,420.847107 311.081726,419.821228 309.521149,420.083832 
	C289.751709,423.410828 272.775177,431.566223 261.306854,448.831665 
	C260.378876,450.228668 259.973267,451.972656 259.324921,453.555420 
	C259.658264,453.857117 259.991638,454.158844 260.325012,454.460541 
	C262.242767,453.394928 264.214996,452.415924 266.069550,451.249756 
	C278.995972,443.121521 291.235413,433.745270 306.354095,429.656952 
	C308.363556,429.113586 310.100250,427.561646 312.505280,425.977875 
M410.869995,423.809967 
	C423.596588,427.207947 435.663025,432.060455 446.405304,439.861786 
	C446.685913,440.065613 447.292450,439.820557 448.677338,439.711731 
	C447.502502,437.326630 446.947418,434.970795 445.503815,433.469025 
	C436.287537,423.881287 424.720306,418.956421 411.679413,417.391724 
	C410.352661,417.232544 408.842224,418.604401 407.417023,419.265808 
	C408.355560,420.653259 409.294067,422.040741 410.869995,423.809967 
M331.863342,597.273804 
	C329.691864,598.108154 327.520386,598.942505 325.348907,599.776855 
	C325.458405,600.304688 325.567902,600.832520 325.677399,601.360413 
	C346.690277,597.303589 367.726013,596.034180 388.811218,600.806030 
	C382.691925,593.945251 350.637939,592.290771 331.863342,597.273804 
M297.002258,464.792084 
	C297.095947,471.045166 299.963409,475.187805 304.047485,474.970367 
	C307.438599,474.789856 311.746582,470.910309 311.836884,467.647369 
	C311.946716,463.678406 310.590912,460.137695 306.427216,459.137268 
	C302.257843,458.135498 298.329895,458.771210 297.002258,464.792084 
M424.233459,471.413574 
	C425.286560,467.369751 425.783905,463.273560 421.279938,461.056122 
	C417.641510,459.264832 414.447693,460.419037 412.520355,464.146332 
	C410.139191,468.751221 411.419067,473.077881 415.818970,475.666473 
	C420.142395,478.210083 422.157898,475.391022 424.233459,471.413574 
M345.230408,514.967773 
	C341.452454,524.109436 348.989349,535.206360 360.025696,533.995605 
	C366.676666,533.265991 371.878296,526.947205 370.020142,521.013611 
	C368.979034,522.888245 368.463013,524.831482 367.202026,525.871033 
	C364.776276,527.870789 362.122803,530.166565 359.209778,530.866516 
	C355.025543,531.871887 351.379578,529.622559 349.143402,525.930603 
	C346.569855,521.681702 347.259308,517.369995 349.682068,513.215454 
	C350.557831,511.713715 351.346161,510.160919 352.174438,508.631409 
	C351.607727,508.263916 351.041016,507.896423 350.474335,507.528931 
	C348.834717,509.775146 347.195099,512.021362 345.230408,514.967773 
z"/>
<path fill="#EF757D" opacity="1.000000" stroke="none" 
	d="
M195.485855,467.618561 
	C198.637558,468.833771 199.247574,471.138489 199.108322,474.371552 
	C198.607834,485.992645 198.280823,497.626617 198.209229,509.257690 
	C198.187363,512.809814 196.688400,513.840332 193.558167,514.171509 
	C184.605469,515.118652 177.573669,511.443329 173.346527,504.046326 
	C165.496643,490.309998 164.422913,475.484467 170.566559,460.915558 
	C172.382172,456.610046 177.039093,453.002014 181.195251,450.312714 
	C186.240372,447.048157 191.360046,449.159393 195.892349,452.712128 
	C199.986069,455.921082 200.569107,460.159302 199.691757,464.770599 
	C199.528717,465.627502 197.946716,466.214447 196.345490,466.589294 
	C194.473267,465.973724 193.275177,465.694916 191.737579,465.274719 
	C183.717270,465.233978 178.563675,468.862427 177.549713,475.448486 
	C179.667938,473.154694 181.459000,471.215179 183.588852,468.908813 
	C184.997726,481.736603 186.497787,484.907257 190.438965,485.775116 
	C189.090195,481.812164 187.126755,477.481110 186.217834,472.939087 
	C185.423752,468.970795 187.257538,466.161804 192.385162,466.905609 
	C193.650909,467.199249 194.568375,467.408905 195.485855,467.618561 
z"/>
<path fill="#EF757D" opacity="1.000000" stroke="none" 
	d="
M521.876465,479.018616 
	C521.877136,475.360046 521.729126,472.187408 521.947876,469.040283 
	C522.042664,467.676422 522.517456,465.682587 523.471069,465.157196 
	C526.401184,463.542786 529.646240,462.499817 532.768860,461.234741 
	C533.453003,463.972687 534.984558,466.823151 534.639160,469.424408 
	C533.984985,474.351776 532.254089,479.136200 531.086853,483.541107 
	C535.475647,480.545288 537.493530,473.235718 536.341858,462.767578 
	C537.235840,462.767578 538.114868,462.767578 538.945984,462.767578 
	C539.875977,459.588226 530.422546,458.635742 525.315918,461.241730 
	C524.449219,461.684052 523.629211,462.217743 521.964050,463.190125 
	C522.456360,457.550629 522.888855,452.595337 523.379883,446.970551 
	C528.234741,446.539093 532.968201,445.793182 537.705261,445.769836 
	C545.839294,445.729736 552.099792,450.237396 552.495056,458.287659 
	C553.002991,468.631378 552.345398,479.168549 550.852478,489.427765 
	C549.810913,496.585449 544.735535,502.095428 537.725098,504.624603 
	C534.654846,505.732269 530.905579,505.615997 527.577820,505.183960 
	C523.474670,504.651215 521.480103,502.067780 521.781006,497.483673 
	C522.172668,491.517700 521.876587,485.506561 521.876465,479.018616 
M544.061951,467.215820 
	C543.306458,466.323181 542.550903,465.430542 541.795410,464.537872 
	C541.474060,464.776062 541.152771,465.014252 540.831482,465.252441 
	C541.756287,467.102142 542.681091,468.951843 543.778687,471.147064 
	C544.385925,470.240723 544.707458,469.979980 544.690002,469.744446 
	C544.643738,469.119843 544.450867,468.506134 544.061951,467.215820 
M540.884094,463.564484 
	C540.664734,463.487549 540.445312,463.410614 540.225891,463.333679 
	C540.295776,463.554840 540.365662,463.776001 540.884094,463.564484 
z"/>
<path fill="#2F2763" opacity="1.000000" stroke="none" 
	d="
M312.234253,426.227325 
	C310.100250,427.561646 308.363556,429.113586 306.354095,429.656952 
	C291.235413,433.745270 278.995972,443.121521 266.069550,451.249756 
	C264.214996,452.415924 262.242767,453.394928 260.325012,454.460541 
	C259.991638,454.158844 259.658264,453.857117 259.324921,453.555420 
	C259.973267,451.972656 260.378876,450.228668 261.306854,448.831665 
	C272.775177,431.566223 289.751709,423.410828 309.521149,420.083832 
	C311.081726,419.821228 312.859161,420.847107 314.535797,421.274170 
	C313.858978,422.842072 313.182129,424.409973 312.234253,426.227325 
z"/>
<path fill="#322863" opacity="1.000000" stroke="none" 
	d="
M410.551300,423.619080 
	C409.294067,422.040741 408.355560,420.653259 407.416992,419.265808 
	C408.842224,418.604401 410.352661,417.232544 411.679413,417.391724 
	C424.720306,418.956421 436.287537,423.881287 445.503815,433.469025 
	C446.947418,434.970795 447.502502,437.326630 448.677338,439.711731 
	C447.292450,439.820557 446.685913,440.065613 446.405304,439.861786 
	C435.663025,432.060455 423.596588,427.207947 410.551300,423.619080 
z"/>
<path fill="#412D65" opacity="1.000000" stroke="none" 
	d="
M332.255859,597.173035 
	C350.637939,592.290771 382.691925,593.945251 388.811218,600.806030 
	C367.726013,596.034180 346.690277,597.303589 325.677399,601.360413 
	C325.567902,600.832520 325.458405,600.304688 325.348907,599.776855 
	C327.520386,598.942505 329.691864,598.108154 332.255859,597.173035 
z"/>
<path fill="#2F2763" opacity="1.000000" stroke="none" 
	d="
M297.037659,464.380798 
	C298.329895,458.771210 302.257843,458.135498 306.427216,459.137268 
	C310.590912,460.137695 311.946716,463.678406 311.836884,467.647369 
	C311.746582,470.910309 307.438599,474.789856 304.047485,474.970367 
	C299.963409,475.187805 297.095947,471.045166 297.037659,464.380798 
z"/>
<path fill="#322863" opacity="1.000000" stroke="none" 
	d="
M424.116272,471.785461 
	C422.157898,475.391022 420.142395,478.210083 415.818970,475.666473 
	C411.419067,473.077881 410.139191,468.751221 412.520355,464.146332 
	C414.447693,460.419037 417.641510,459.264832 421.279938,461.056122 
	C425.783905,463.273560 425.286560,467.369751 424.116272,471.785461 
z"/>
<path fill="#3C2B65" opacity="1.000000" stroke="none" 
	d="
M345.392944,514.617676 
	C347.195099,512.021362 348.834717,509.775146 350.474335,507.528931 
	C351.041016,507.896423 351.607727,508.263916 352.174438,508.631409 
	C351.346161,510.160919 350.557831,511.713715 349.682068,513.215454 
	C347.259308,517.369995 346.569855,521.681702 349.143402,525.930603 
	C351.379578,529.622559 355.025543,531.871887 359.209778,530.866516 
	C362.122803,530.166565 364.776276,527.870789 367.202026,525.871033 
	C368.463013,524.831482 368.979034,522.888245 370.020142,521.013611 
	C371.878296,526.947205 366.676666,533.265991 360.025696,533.995605 
	C348.989349,535.206360 341.452454,524.109436 345.392944,514.617676 
z"/>
<path fill="#4C3067" opacity="1.000000" stroke="none" 
	d="
M192.036880,466.821625 
	C187.257538,466.161804 185.423752,468.970795 186.217834,472.939087 
	C187.126755,477.481110 189.090195,481.812164 190.438965,485.775116 
	C186.497787,484.907257 184.997726,481.736603 183.588852,468.908813 
	C181.459000,471.215179 179.667938,473.154694 177.549713,475.448486 
	C178.563675,468.862427 183.717270,465.233978 191.731628,465.626770 
	C192.055740,466.354004 192.046310,466.587830 192.036880,466.821625 
z"/>
<path fill="#2C2763" opacity="1.000000" stroke="none" 
	d="
M192.385162,466.905609 
	C192.046310,466.587830 192.055740,466.354004 192.071121,465.768127 
	C193.275177,465.694916 194.473267,465.973724 195.932800,466.510803 
	C196.078278,466.910919 195.962311,467.052795 195.666092,467.406616 
	C194.568375,467.408905 193.650909,467.199249 192.385162,466.905609 
z"/>
<path fill="#2C2763" opacity="1.000000" stroke="none" 
	d="
M544.189148,467.551971 
	C544.450867,468.506134 544.643738,469.119843 544.690002,469.744446 
	C544.707458,469.979980 544.385925,470.240723 543.778687,471.147064 
	C542.681091,468.951843 541.756287,467.102142 540.831482,465.252441 
	C541.152771,465.014252 541.474060,464.776062 541.795410,464.537872 
	C542.550903,465.430542 543.306458,466.323181 544.189148,467.551971 
z"/>
<path fill="#2C2763" opacity="1.000000" stroke="none" 
	d="
M540.659790,463.780823 
	C540.365662,463.776001 540.295776,463.554840 540.225952,463.333679 
	C540.445312,463.410614 540.664734,463.487549 540.659790,463.780823 
z"/>
</svg>